SplineFontDB: 3.2
FontName: Hypnogogia
FullName: Hypnogogia
FamilyName: Hypnogogia
Weight: Regular
Copyright: 
Version: 
ItalicAngle: 0
UnderlinePosition: 0
UnderlineWidth: 0
Ascent: 248
Descent: 62
InvalidEm: 0
LayerCount: 2
Layer: 0 0 "Back" 1
Layer: 1 0 "Fore" 0
XUID: [1021 307 1127429350 18574]
FSType: 0
OS2Version: 0
OS2_WeightWidthSlopeOnly: 0
OS2_UseTypoMetrics: 0
CreationTime: 1616720104
ModificationTime: 1616721119
PfmFamily: 17
TTFWeight: 400
TTFWidth: 5
LineGap: 28
VLineGap: 28
OS2TypoAscent: 0
OS2TypoAOffset: 1
OS2TypoDescent: 0
OS2TypoDOffset: 1
OS2TypoLinegap: 28
OS2WinAscent: 0
OS2WinAOffset: 1
OS2WinDescent: 0
OS2WinDOffset: 1
HheadAscent: 0
HheadAOffset: 1
HheadDescent: 0
HheadDOffset: 1
OS2Vendor: 'PfEd'
MarkAttachClasses: 1
DEI: 91125
LangName: 1033
Encoding: Original
UnicodeInterp: none
NameList: ΤεΧ Names
DisplaySize: -48
AntiAlias: 1
FitToEm: 0
WidthSeparation: 10
WinInfo: 0 38 14
BeginPrivate: 0
EndPrivate
TeXData: 1 0 0 3463683 1731842 1154560 514140 1048576 1154560 783286 444596 497025 792723 393216 433062 380633 303038 157286 324010 404750 52429 2506097 1059062 262144
BeginChars: 100 100

StartChar: uni0000
Encoding: 0 0 0
Width: 86
VWidth: 309
Flags: HW
LayerCount: 2
Fore
SplineSet
38.0703125 210 m 0
 35.0703125 210 32.0703125 209 31.0703125 205 c 0
 28.0703125 201 26.0703125 196 23.0703125 191 c 1
 21.0703125 192 20.0703125 193 18.0703125 193 c 0
 9.0703125 197 2.0703125 183 11.0703125 179 c 0
 12.0703125 178 14.0703125 178 15.0703125 177 c 1
 14.0703125 175 12.0703125 172 11.0703125 170 c 0
 9.0703125 166 7.0703125 162 5.0703125 158 c 0
 1.0703125 152 9.0703125 143 16.0703125 148 c 0
 17.0703125 150 18.0703125 151 19.0703125 153 c 0
 23.0703125 157 25.0703125 161 28.0703125 166 c 0
 29.0703125 167 29.0703125 169 30.0703125 170 c 1
 35.0703125 168 39.0703125 167 44.0703125 165 c 0
 44.0703125 165 53.0703125 163 52.0703125 164 c 1
 60.0703125 160 67.0703125 173 59.0703125 177 c 0
 56.0703125 179 53.0703125 180 50.0703125 181 c 0
 46.0703125 182 42.0703125 183 38.0703125 185 c 1
 41.0703125 190 44.0703125 195 46.0703125 200 c 0
 48.0703125 206 43.0703125 210 38.0703125 210 c 0
71.0703125 153 m 1
 65.0703125 153 60.0703125 147 64.0703125 141 c 0
 64.0703125 140 65.0703125 140 65.0703125 139 c 0
 66.0703125 136 66.0703125 134 66.0703125 131 c 0
 66.0703125 130 67.0703125 129 66.0703125 128 c 0
 65.0703125 128 l 0
 61.0703125 129 59.0703125 131 56.0703125 134 c 0
 54.0703125 137 51.0703125 140 49.0703125 143 c 0
 46.0703125 148 35.0703125 140 35.0703125 138 c 0
 35.0703125 137 35.0703125 135 35.0703125 134 c 0
 35.0703125 130 35.0703125 126 34.0703125 123 c 0
 33.0703125 122 34.0703125 121 33.0703125 120 c 0
 32.0703125 119 l 0
 33.0703125 120 l 1
 33.0703125 119 l 0
 32.0703125 118 32.0703125 117 30.0703125 117 c 0
 28.0703125 118 26.0703125 120 25.0703125 122 c 0
 24.0703125 127 24.0703125 130 23.0703125 135 c 0
 21.0703125 145 6.0703125 143 8.0703125 133 c 1
 8.0703125 127 8.0703125 121 10.0703125 115 c 0
 12.0703125 109 18.0703125 104 24.0703125 102 c 0
 30.0703125 100 34.0703125 102 39.0703125 105 c 0
 44.0703125 109 47.0703125 113 49.0703125 118 c 1
 52.0703125 116 55.0703125 114 59.0703125 113 c 0
 65.0703125 111 69.0703125 113 74.0703125 116 c 0
 80.0703125 121 82.0703125 127 82.0703125 134 c 0
 82.0703125 139 81.0703125 144 78.0703125 148 c 0
 78.0703125 149 77.0703125 149 77.0703125 150 c 0
 75.0703125 152 73.0703125 153 71.0703125 153 c 1
67.0703125 131 m 0
 67.0703125 131 67.0703125 131 67.0703125 130 c 0
 67.0703125 129 67.0703125 129 66.0703125 128 c 0
 66.0703125 128 67.0703125 128 65.0703125 128 c 1
 67.0703125 130 67.0703125 131 67.0703125 131 c 0
EndSplineSet
EndChar

StartChar: A
Encoding: 1 65 1
Width: 100
VWidth: 299
Flags: HW
LayerCount: 2
Fore
SplineSet
57.0361328125 264 m 1
 50.0361328125 268 44.0361328125 268 37.0361328125 261 c 0
 34.0361328125 256 32.0361328125 251 31.0361328125 245 c 0
 29.0361328125 240 28.0361328125 234 27.0361328125 229 c 0
 26.0361328125 224 24.0361328125 218 23.0361328125 213 c 0
 22.0361328125 208 22.0361328125 203 21.0361328125 198 c 0
 20.0361328125 193 20.0361328125 189 19.0361328125 184 c 0
 18.0361328125 179 17.0361328125 175 16.0361328125 170 c 0
 15.0361328125 165 14.0361328125 160 13.0361328125 155 c 0
 12.0361328125 149 11.0361328125 144 10.0361328125 138 c 0
 9.0361328125 132 8.0361328125 127 8.0361328125 121 c 0
 7.0361328125 114 7.0361328125 107 6.0361328125 101 c 0
 5.0361328125 94 4.0361328125 88 4.0361328125 81 c 0
 3.0361328125 69 23.0361328125 67 24.0361328125 79 c 0
 26.0361328125 86 26.0361328125 93 27.0361328125 100 c 0
 28.0361328125 107 27.0361328125 114 28.0361328125 121 c 0
 28.0361328125 127 29.0361328125 132 30.0361328125 138 c 0
 33.0361328125 139 36.0361328125 140 39.0361328125 140 c 0
 44.0361328125 141 50.0361328125 141 55.0361328125 142 c 0
 59.0361328125 143 64.0361328125 143 68.0361328125 144 c 0
 68.0361328125 140 69.0361328125 137 70.0361328125 133 c 0
 71.0361328125 129 71.0361328125 124 71.0361328125 120 c 0
 71.0361328125 115 72.0361328125 111 72.0361328125 106 c 0
 72.0361328125 101 73.0361328125 95 74.0361328125 90 c 0
 75.0361328125 85 75.0361328125 81 76.0361328125 76 c 0
 76.0361328125 75 77.0361328125 74 77.0361328125 73 c 0
 77.0361328125 61 95.0361328125 60 95.0361328125 72 c 0
 96.0361328125 75 96.0361328125 77 95.0361328125 80 c 0
 94.0361328125 84 94.0361328125 89 93.0361328125 93 c 0
 93.0361328125 98 92.0361328125 102 92.0361328125 107 c 0
 92.0361328125 112 91.0361328125 118 91.0361328125 123 c 0
 91.0361328125 128 90.0361328125 132 89.0361328125 137 c 0
 88.0361328125 142 87.0361328125 146 87.0361328125 151 c 0
 86.0361328125 156 87.0361328125 161 86.0361328125 166 c 0
 85.0361328125 170 84.0361328125 175 83.0361328125 179 c 0
 82.0361328125 184 82.0361328125 191 81.0361328125 196 c 0
 80.0361328125 202 79.0361328125 208 78.0361328125 214 c 0
 77.0361328125 220 76.0361328125 228 74.0361328125 234 c 0
 73.0361328125 239 71.0361328125 244 69.0361328125 249 c 0
 67.0361328125 254 64.0361328125 259 60.0361328125 262 c 0
 59.0361328125 263 58.0361328125 263 57.0361328125 264 c 1
54.0361328125 252 m 0
 54.0361328125 250 53.0361328125 249 52.0361328125 249 c 1
 53.0361328125 251 53.0361328125 252 54.0361328125 252 c 0
51.0361328125 243 m 1
 53.0361328125 238 54.0361328125 233 55.0361328125 228 c 0
 57.0361328125 222 58.0361328125 216 59.0361328125 210 c 0
 60.0361328125 204 61.0361328125 198 62.0361328125 192 c 0
 63.0361328125 187 63.0361328125 181 64.0361328125 176 c 0
 65.0361328125 172 65.0361328125 168 66.0361328125 163 c 1
 63.0361328125 162 59.0361328125 161 56.0361328125 161 c 0
 51.0361328125 160 47.0361328125 161 42.0361328125 160 c 0
 39.0361328125 160 36.0361328125 158 33.0361328125 158 c 1
 34.0361328125 161 35.0361328125 166 36.0361328125 169 c 0
 37.0361328125 174 37.0361328125 178 38.0361328125 183 c 0
 39.0361328125 187 39.0361328125 193 40.0361328125 197 c 0
 41.0361328125 202 42.0361328125 207 43.0361328125 212 c 0
 44.0361328125 217 45.0361328125 222 46.0361328125 227 c 0
 47.0361328125 232 48.0361328125 236 50.0361328125 241 c 0
 50.0361328125 241 51.0361328125 242 51.0361328125 243 c 1
EndSplineSet
EndChar

StartChar: B
Encoding: 2 66 2
Width: 116
VWidth: 299
Flags: HW
LayerCount: 2
Fore
SplineSet
69.2841796875 275 m 1
 66.2841796875 277 63.2841796875 279 60.2841796875 280 c 0
 53.2841796875 283 46.2841796875 285 39.2841796875 284 c 0
 31.2841796875 283 24.2841796875 281 17.2841796875 277 c 1
 11.2841796875 279 2.2841796875 275 4.2841796875 267 c 1
 4.2841796875 259 6.2841796875 252 7.2841796875 244 c 0
 8.2841796875 238 9.2841796875 231 10.2841796875 225 c 0
 10.2841796875 220 11.2841796875 215 11.2841796875 210 c 0
 11.2841796875 205 12.2841796875 200 12.2841796875 195 c 0
 12.2841796875 189 13.2841796875 185 13.2841796875 179 c 0
 13.2841796875 173 13.2841796875 167 14.2841796875 161 c 0
 14.2841796875 156 15.2841796875 151 15.2841796875 146 c 0
 16.2841796875 141 17.2841796875 136 17.2841796875 131 c 0
 17.2841796875 126 18.2841796875 121 18.2841796875 116 c 0
 18.2841796875 111 18.2841796875 106 18.2841796875 101 c 0
 18.2841796875 98 18.2841796875 94 18.2841796875 91 c 0
 17.2841796875 89 17.2841796875 87 18.2841796875 84 c 0
 18.2841796875 83 19.2841796875 83 19.2841796875 82 c 0
 19.2841796875 78 21.2841796875 76 24.2841796875 75 c 0
 25.2841796875 74 27.2841796875 72 29.2841796875 71 c 0
 34.2841796875 68 40.2841796875 66 46.2841796875 65 c 0
 51.2841796875 65 57.2841796875 65 62.2841796875 66 c 0
 69.2841796875 68 76.2841796875 71 83.2841796875 75 c 0
 89.2841796875 78 95.2841796875 82 99.2841796875 87 c 0
 103.284179688 92 106.284179688 98 108.284179688 105 c 0
 109.284179688 111 110.284179688 116 111.284179688 122 c 0
 111.284179688 127 112.284179688 133 112.284179688 138 c 0
 112.284179688 143 112.284179688 148 112.284179688 153 c 0
 112.284179688 158 111.284179688 164 110.284179688 169 c 0
 109.284179688 174 108.284179688 179 105.284179688 184 c 0
 103.284179688 189 100.284179688 194 97.2841796875 198 c 0
 93.2841796875 202 90.2841796875 206 86.2841796875 209 c 0
 83.2841796875 212 79.2841796875 215 75.2841796875 217 c 1
 76.2841796875 218 76.2841796875 219 77.2841796875 220 c 0
 81.2841796875 225 84.2841796875 230 85.2841796875 237 c 0
 85.2841796875 243 86.2841796875 248 84.2841796875 254 c 0
 82.2841796875 259 80.2841796875 265 76.2841796875 269 c 0
 74.2841796875 271 72.2841796875 273 69.2841796875 275 c 1
56.2841796875 260 m 1
 58.2841796875 259 60.2841796875 257 61.2841796875 256 c 0
 63.2841796875 254 64.2841796875 251 65.2841796875 248 c 0
 66.2841796875 244 66.2841796875 241 65.2841796875 237 c 0
 64.2841796875 234 63.2841796875 232 60.2841796875 230 c 0
 58.2841796875 228 56.2841796875 226 53.2841796875 225 c 1
 54.2841796875 225 47.2841796875 224 46.2841796875 223 c 0
 35.2841796875 219 36.2841796875 222 45.2841796875 204 c 0
 45.2841796875 204 49.2841796875 205 50.2841796875 205 c 0
 54.2841796875 205 57.2841796875 203 60.2841796875 202 c 0
 64.2841796875 200 69.2841796875 199 72.2841796875 196 c 0
 76.2841796875 193 79.2841796875 189 82.2841796875 186 c 0
 84.2841796875 183 86.2841796875 179 88.2841796875 176 c 0
 90.2841796875 172 90.2841796875 168 91.2841796875 164 c 0
 91.2841796875 160 92.2841796875 155 92.2841796875 151 c 0
 92.2841796875 146 92.2841796875 142 92.2841796875 137 c 0
 92.2841796875 132 93.2841796875 127 92.2841796875 122 c 0
 91.2841796875 117 89.2841796875 113 88.2841796875 108 c 0
 87.2841796875 104 85.2841796875 101 82.2841796875 98 c 0
 78.2841796875 95 74.2841796875 92 70.2841796875 90 c 0
 69.2841796875 90 68.2841796875 88 67.2841796875 88 c 0
 65.2841796875 87 63.2841796875 87 61.2841796875 86 c 0
 58.2841796875 85 54.2841796875 84 51.2841796875 84 c 0
 47.2841796875 84 43.2841796875 86 40.2841796875 88 c 0
 39.2841796875 88 38.2841796875 88 37.2841796875 89 c 0
 37.2841796875 93 38.2841796875 98 38.2841796875 102 c 0
 38.2841796875 107 37.2841796875 114 37.2841796875 119 c 0
 37.2841796875 124 36.2841796875 129 36.2841796875 134 c 0
 35.2841796875 139 34.2841796875 143 34.2841796875 148 c 0
 34.2841796875 153 34.2841796875 159 34.2841796875 164 c 0
 34.2841796875 170 33.2841796875 175 32.2841796875 181 c 0
 31.2841796875 186 31.2841796875 192 31.2841796875 197 c 0
 31.2841796875 202 31.2841796875 208 31.2841796875 213 c 0
 31.2841796875 218 30.2841796875 222 30.2841796875 227 c 0
 30.2841796875 234 29.2841796875 241 28.2841796875 248 c 0
 27.2841796875 252 26.2841796875 256 25.2841796875 260 c 0
 26.2841796875 260 l 0
 34.2841796875 263 28.2841796875 261 38.2841796875 264 c 0
 42.2841796875 265 46.2841796875 264 50.2841796875 263 c 0
 52.2841796875 262 54.2841796875 261 56.2841796875 260 c 1
EndSplineSet
EndChar

StartChar: C
Encoding: 3 67 3
Width: 72
VWidth: 299
Flags: HW
LayerCount: 2
Fore
SplineSet
44.4443359375 228 m 1
 43.4443359375 234 43.4443359375 238 42.4443359375 244 c 0
 41.4443359375 247 40.4443359375 250 37.4443359375 251 c 0
 35.4443359375 252 31.4443359375 252 29.4443359375 251 c 0
 27.4443359375 250 28.4443359375 251 33.4443359375 252 c 0
 32.4443359375 251 l 0
 31.4443359375 250 30.4443359375 251 29.4443359375 250 c 0
 27.4443359375 247 27.4443359375 244 26.4443359375 241 c 0
 25.4443359375 237 24.4443359375 233 24.4443359375 229 c 0
 24.4443359375 224 23.4443359375 218 23.4443359375 213 c 0
 23.4443359375 208 24.4443359375 204 24.4443359375 199 c 0
 24.4443359375 194 23.4443359375 190 23.4443359375 185 c 0
 23.4443359375 180 24.4443359375 175 24.4443359375 170 c 0
 24.4443359375 165 24.4443359375 160 24.4443359375 155 c 0
 24.4443359375 150 25.4443359375 146 25.4443359375 141 c 0
 26.4443359375 137 25.4443359375 132 25.4443359375 128 c 0
 25.4443359375 123 26.4443359375 119 27.4443359375 114 c 0
 28.4443359375 110 28.4443359375 106 30.4443359375 102 c 0
 32.4443359375 99 35.4443359375 95 38.4443359375 93 c 0
 39.4443359375 92 42.4443359375 91 43.4443359375 93 c 1
 33.4443359375 90 42.4443359375 92 44.4443359375 94 c 0
 46.4443359375 96 47.4443359375 98 48.4443359375 101 c 0
 49.4443359375 104 49.4443359375 106 49.4443359375 109 c 0
 49.4443359375 121 68.4443359375 121 68.4443359375 109 c 1
 68.4443359375 105 68.4443359375 101 67.4443359375 98 c 0
 66.4443359375 93 64.4443359375 88 60.4443359375 84 c 0
 55.4443359375 78 49.4443359375 75 41.4443359375 73 c 0
 35.4443359375 73 29.4443359375 75 24.4443359375 79 c 0
 20.4443359375 83 16.4443359375 88 13.4443359375 93 c 0
 10.4443359375 99 8.4443359375 104 7.4443359375 111 c 0
 7.4443359375 116 6.4443359375 121 6.4443359375 126 c 0
 6.4443359375 130 6.4443359375 135 5.4443359375 139 c 0
 5.4443359375 144 4.4443359375 149 4.4443359375 154 c 0
 4.4443359375 159 4.4443359375 164 4.4443359375 169 c 0
 4.4443359375 174 4.4443359375 179 4.4443359375 184 c 0
 4.4443359375 188 4.4443359375 193 4.4443359375 197 c 0
 4.4443359375 202 5.4443359375 207 4.4443359375 212 c 0
 4.4443359375 218 3.4443359375 222 4.4443359375 228 c 0
 4.4443359375 233 5.4443359375 238 6.4443359375 243 c 0
 7.4443359375 248 9.4443359375 254 12.4443359375 258 c 0
 17.4443359375 265 24.4443359375 270 33.4443359375 270 c 0
 39.4443359375 270 44.4443359375 269 49.4443359375 266 c 0
 55.4443359375 262 59.4443359375 256 61.4443359375 249 c 0
 62.4443359375 242 63.4443359375 236 63.4443359375 229 c 0
 64.4443359375 217 45.4443359375 216 44.4443359375 228 c 1
EndSplineSet
EndChar

StartChar: D
Encoding: 4 68 4
Width: 92
VWidth: 299
Flags: HW
LayerCount: 2
Fore
SplineSet
23.3203125 253 m 1
 25.3203125 246 25.3203125 240 26.3203125 233 c 0
 27.3203125 226 28.3203125 218 28.3203125 211 c 0
 28.3203125 205 28.3203125 200 29.3203125 194 c 0
 29.3203125 189 29.3203125 184 30.3203125 179 c 0
 31.3203125 174 31.3203125 169 31.3203125 164 c 0
 31.3203125 159 32.3203125 154 32.3203125 149 c 0
 32.3203125 143 32.3203125 137 31.3203125 131 c 0
 31.3203125 126 30.3203125 121 30.3203125 116 c 0
 30.3203125 111 29.3203125 106 29.3203125 101 c 0
 29.3203125 97 29.3203125 93 29.3203125 89 c 0
 29.3203125 81 26.3203125 85 11.3203125 88 c 0
 11.3203125 90 l 0
 11.3203125 91 11.3203125 91 11.3203125 92 c 0
 11.3203125 97 13.3203125 101 13.3203125 106 c 0
 13.3203125 111 13.3203125 115 13.3203125 120 c 0
 13.3203125 125 12.3203125 130 12.3203125 135 c 0
 12.3203125 141 11.3203125 146 11.3203125 152 c 0
 11.3203125 157 12.3203125 163 11.3203125 168 c 0
 10.3203125 173 10.3203125 178 10.3203125 183 c 0
 10.3203125 187 9.3203125 192 8.3203125 196 c 0
 8.3203125 201 8.3203125 205 7.3203125 210 c 0
 6.3203125 215 6.3203125 220 6.3203125 225 c 0
 6.3203125 230 5.3203125 235 5.3203125 240 c 0
 4.3203125 246 6.3203125 251 8.3203125 256 c 0
 13.3203125 264 17.3203125 265 26.3203125 268 c 0
 31.3203125 269 36.3203125 270 41.3203125 269 c 0
 47.3203125 268 53.3203125 265 58.3203125 261 c 0
 63.3203125 257 66.3203125 254 70.3203125 249 c 0
 73.3203125 245 76.3203125 240 78.3203125 235 c 0
 80.3203125 231 82.3203125 226 83.3203125 221 c 0
 84.3203125 217 85.3203125 212 86.3203125 208 c 0
 87.3203125 203 87.3203125 199 87.3203125 194 c 0
 87.3203125 189 88.3203125 184 88.3203125 179 c 0
 88.3203125 174 87.3203125 170 87.3203125 165 c 0
 86.3203125 160 86.3203125 156 85.3203125 151 c 0
 84.3203125 146 84.3203125 141 83.3203125 136 c 0
 82.3203125 131 81.3203125 126 79.3203125 121 c 0
 77.3203125 115 74.3203125 110 71.3203125 105 c 0
 68.3203125 100 64.3203125 95 60.3203125 91 c 0
 56.3203125 87 50.3203125 83 45.3203125 80 c 0
 38.3203125 76 30.3203125 73 22.3203125 74 c 0
 19.3203125 75 21.3203125 75 18.3203125 77 c 0
 8.3203125 84 18.3203125 99 28.3203125 92 c 1
 26.3203125 93 27.3203125 93 28.3203125 93 c 0
 29.3203125 94 30.3203125 93 31.3203125 94 c 1
 24.3203125 92 30.3203125 93 31.3203125 94 c 0
 35.3203125 97 40.3203125 99 44.3203125 102 c 0
 48.3203125 105 51.3203125 109 53.3203125 113 c 0
 56.3203125 117 58.3203125 122 60.3203125 126 c 0
 62.3203125 130 63.3203125 134 64.3203125 138 c 0
 65.3203125 143 65.3203125 147 66.3203125 152 c 0
 67.3203125 156 67.3203125 162 68.3203125 166 c 0
 68.3203125 170 68.3203125 174 68.3203125 178 c 0
 68.3203125 182 68.3203125 187 68.3203125 191 c 0
 67.3203125 195 68.3203125 200 67.3203125 204 c 0
 66.3203125 208 66.3203125 212 65.3203125 216 c 0
 64.3203125 220 63.3203125 223 61.3203125 226 c 0
 59.3203125 230 57.3203125 235 54.3203125 238 c 0
 51.3203125 241 49.3203125 243 45.3203125 246 c 0
 42.3203125 248 38.3203125 250 35.3203125 250 c 0
 32.3203125 250 29.3203125 250 26.3203125 249 c 1
 35.3203125 253 28.3203125 251 26.3203125 250 c 1
 24.3203125 247 24.3203125 244 24.3203125 241 c 0
 24.3203125 237 25.3203125 232 25.3203125 228 c 0
 25.3203125 223 26.3203125 219 27.3203125 214 c 0
 28.3203125 209 28.3203125 203 28.3203125 198 c 0
 28.3203125 193 29.3203125 189 29.3203125 184 c 0
 29.3203125 180 29.3203125 175 30.3203125 171 c 0
 31.3203125 165 31.3203125 160 31.3203125 154 c 0
 31.3203125 148 32.3203125 143 32.3203125 137 c 0
 32.3203125 132 32.3203125 128 32.3203125 123 c 0
 33.3203125 118 33.3203125 112 32.3203125 107 c 0
 32.3203125 102 31.3203125 97 30.3203125 92 c 0
 30.3203125 91 31.3203125 85 30.3203125 85 c 0
 13.3203125 82 12.3203125 78 10.3203125 86 c 0
 9.3203125 91 10.3203125 95 10.3203125 100 c 0
 10.3203125 105 10.3203125 111 10.3203125 116 c 0
 10.3203125 121 11.3203125 126 11.3203125 131 c 0
 12.3203125 136 11.3203125 142 12.3203125 147 c 0
 12.3203125 152 12.3203125 156 12.3203125 161 c 0
 11.3203125 166 11.3203125 171 11.3203125 176 c 0
 10.3203125 181 10.3203125 186 10.3203125 191 c 0
 10.3203125 197 8.3203125 202 8.3203125 208 c 0
 7.3203125 215 7.3203125 222 6.3203125 229 c 0
 5.3203125 235 4.3203125 243 4.3203125 249 c 0
 1.3203125 261 20.3203125 265 23.3203125 253 c 1
EndSplineSet
EndChar

StartChar: E
Encoding: 5 69 5
Width: 90
VWidth: 299
Flags: HW
LayerCount: 2
Fore
SplineSet
79.8359375 268 m 1
 78.8359375 269 76.8359375 270 75.8359375 270 c 0
 69.8359375 271 63.8359375 270 57.8359375 270 c 0
 51.8359375 270 45.8359375 271 39.8359375 272 c 0
 29.8359375 272 22.8359375 269 17.8359375 261 c 0
 15.8359375 256 13.8359375 250 13.8359375 245 c 0
 13.8359375 240 13.8359375 235 13.8359375 230 c 0
 13.8359375 225 14.8359375 219 14.8359375 214 c 0
 14.8359375 209 14.8359375 203 14.8359375 198 c 0
 14.8359375 193 14.8359375 188 14.8359375 183 c 0
 14.8359375 178 15.8359375 173 15.8359375 168 c 0
 15.8359375 167 15.8359375 166 15.8359375 165 c 1
 4.8359375 169 -1.1640625 152 9.8359375 147 c 0
 12.8359375 146 15.8359375 146 18.8359375 145 c 1
 18.8359375 142 18.8359375 138 19.8359375 135 c 0
 20.8359375 130 19.8359375 124 20.8359375 119 c 0
 21.8359375 114 21.8359375 110 21.8359375 105 c 0
 21.8359375 100 22.8359375 95 23.8359375 90 c 0
 24.8359375 83 29.8359375 79 35.8359375 75 c 0
 40.8359375 72 45.8359375 70 51.8359375 70 c 0
 55.8359375 70 61.8359375 69 65.8359375 69 c 0
 69.8359375 68 72.8359375 69 76.8359375 69 c 0
 88.8359375 69 88.8359375 88 76.8359375 88 c 1
 75.8359375 86 72.8359375 88 71.8359375 88 c 0
 66.8359375 89 62.8359375 88 57.8359375 89 c 0
 53.8359375 89 49.8359375 89 46.8359375 90 c 0
 44.8359375 91 42.8359375 92 42.8359375 94 c 0
 41.8359375 98 40.8359375 103 40.8359375 107 c 0
 40.8359375 112 39.8359375 117 39.8359375 122 c 0
 39.8359375 127 39.8359375 133 38.8359375 138 c 0
 38.8359375 140 38.8359375 141 38.8359375 143 c 1
 42.8359375 143 45.8359375 143 48.8359375 144 c 0
 49.8359375 144 l 0
 61.8359375 141 67.8359375 159 55.8359375 162 c 0
 54.8359375 162 53.8359375 163 52.8359375 163 c 0
 47.8359375 163 41.8359375 162 36.8359375 163 c 0
 35.8359375 163 l 0
 35.8359375 166 34.8359375 167 34.8359375 170 c 0
 34.8359375 175 33.8359375 181 33.8359375 186 c 0
 33.8359375 190 33.8359375 195 33.8359375 199 c 0
 33.8359375 204 34.8359375 210 34.8359375 215 c 0
 34.8359375 220 33.8359375 226 33.8359375 231 c 0
 33.8359375 236 33.8359375 240 33.8359375 245 c 0
 33.8359375 248 33.8359375 251 34.8359375 253 c 1
 35.8359375 253 36.8359375 253 35.8359375 253 c 1
 41.8359375 253 45.8359375 251 51.8359375 251 c 0
 57.8359375 250 65.8359375 250 71.8359375 251 c 1
 81.8359375 249 86.8359375 263 79.8359375 268 c 1
35.8359375 253 m 1
 34.8359375 253 l 0
 35.8359375 253 l 1
EndSplineSet
EndChar

StartChar: F
Encoding: 6 70 6
Width: 74
VWidth: 299
Flags: HW
LayerCount: 2
Fore
SplineSet
67 281 m 1
 66 282 65 283 63 283 c 0
 60 283 56 283 53 283 c 0
 48 283 44 283 39 283 c 0
 35 283 31 281 27 281 c 0
 19 281 11 279 7 272 c 0
 5 267 4 262 4 257 c 0
 4 252 4 248 4 243 c 0
 4 238 5 234 5 229 c 0
 5 224 5 220 6 215 c 0
 7 210 8 206 8 201 c 0
 8 200 8 200 8 199 c 0
 7 197 7 195 8 193 c 0
 8 190 8 187 8 184 c 0
 8 178 7 172 7 166 c 0
 7 160 7 155 7 149 c 0
 7 143 6 136 6 130 c 0
 6 123 5 116 6 109 c 0
 7 97 26 98 25 110 c 1
 26 117 26 123 26 130 c 0
 26 136 26 143 27 149 c 0
 27 155 27 161 27 167 c 0
 27 173 28 180 28 186 c 0
 28 187 28 188 28 189 c 0
 30 190 33 190 35 191 c 0
 38 192 41 193 44 194 c 0
 56 194 57 213 45 213 c 0
 42 212 37 212 34 211 c 0
 31 210 30 210 27 209 c 1
 27 212 26 215 26 218 c 0
 25 222 24 227 24 231 c 0
 23 236 23 240 23 245 c 0
 23 249 23 253 23 257 c 0
 23 257 24 260 24 262 c 0
 28 262 32 262 36 263 c 0
 40 263 44 264 48 264 c 0
 52 264 54 263 58 263 c 0
 69 261 74 276 67 281 c 1
25 264 m 1
 25 263 l 0
 26 264 l 0
 26 263 l 0
 24 262 25 262 24 262 c 1
 24 263 24 264 25 264 c 1
EndSplineSet
EndChar

StartChar: G
Encoding: 7 71 7
Width: 118
VWidth: 299
Flags: HW
LayerCount: 2
Fore
SplineSet
88 231 m 1
 86 236 85 241 82 245 c 0
 80 248 76 249 73 250 c 0
 69 251 66 252 62 253 c 0
 58 253 55 252 51 252 c 0
 50 252 l 0
 49 251 l 0
 48 251 47 251 46 251 c 0
 45 251 44 250 45 250 c 0
 48 251 50 252 47 251 c 0
 44 249 42 246 39 243 c 0
 37 240 35 237 34 233 c 0
 33 229 33 225 33 221 c 0
 32 217 31 212 31 208 c 0
 31 203 30 197 29 192 c 0
 28 187 28 183 27 178 c 0
 26 173 27 168 26 163 c 0
 26 159 24 154 24 150 c 0
 24 145 24 140 24 135 c 0
 24 131 24 127 24 123 c 0
 24 119 24 113 25 109 c 0
 25 105 27 102 29 99 c 0
 30 96 33 95 36 93 c 0
 40 91 45 89 49 88 c 0
 52 87 56 85 60 86 c 0
 64 86 66 87 70 88 c 0
 71 88 73 89 72 89 c 0
 64 87 70 88 72 90 c 0
 74 93 74 96 75 99 c 0
 76 103 76 107 76 111 c 0
 76 116 77 121 77 126 c 0
 77 128 79 132 77 134 c 1
 76 134 73 134 71 134 c 0
 67 134 65 134 61 133 c 0
 47 132 51 132 56 152 c 1
 60 152 64 153 68 153 c 0
 72 153 77 152 81 153 c 0
 85 153 89 155 94 155 c 0
 101 155 106 151 110 145 c 0
 112 140 114 134 114 129 c 0
 114 124 114 120 114 115 c 0
 114 110 113 105 113 100 c 0
 113 95 113 91 113 86 c 0
 113 82 113 79 113 75 c 0
 112 63 94 64 95 76 c 1
 94 79 94 83 94 86 c 0
 94 91 93 94 94 99 c 0
 94 104 94 110 94 115 c 0
 94 119 95 124 95 128 c 0
 95 130 94 133 94 135 c 0
 93 136 92 136 90 136 c 0
 86 136 82 134 78 134 c 0
 74 134 69 134 65 134 c 0
 62 134 58 133 55 133 c 1
 56 139 57 145 57 151 c 0
 57 152 56 151 56 152 c 0
 56 153 56 152 57 152 c 0
 59 152 61 153 63 153 c 0
 68 153 74 153 79 152 c 0
 85 151 89 148 93 143 c 0
 96 138 98 132 97 126 c 0
 97 121 96 116 96 111 c 0
 96 106 96 102 95 97 c 0
 94 91 92 86 89 81 c 0
 84 74 79 70 70 69 c 0
 65 68 60 67 55 67 c 0
 49 67 44 68 39 70 c 0
 33 72 28 75 23 78 c 0
 19 81 15 85 12 90 c 0
 9 95 7 100 6 105 c 0
 5 110 5 115 5 120 c 0
 5 125 4 131 4 136 c 0
 5 140 5 145 5 149 c 0
 5 154 6 159 6 164 c 0
 7 169 7 174 8 179 c 0
 9 184 10 189 10 194 c 0
 11 199 11 203 12 208 c 0
 13 212 12 217 13 221 c 0
 13 226 14 230 15 235 c 0
 16 241 18 246 21 251 c 0
 24 256 29 261 34 265 c 0
 40 269 47 270 54 271 c 0
 59 271 64 272 69 271 c 0
 74 270 78 269 83 267 c 0
 89 264 95 261 99 255 c 0
 103 249 105 242 106 235 c 0
 109 223 91 219 88 231 c 1
EndSplineSet
EndChar

StartChar: H
Encoding: 8 72 8
Width: 110
VWidth: 299
Flags: HW
LayerCount: 2
Fore
SplineSet
81.9853515625 268 m 1
 75.9853515625 273 63.9853515625 269 65.9853515625 259 c 1
 65.9853515625 252 65.9853515625 246 65.9853515625 239 c 0
 65.9853515625 232 65.9853515625 226 65.9853515625 219 c 0
 65.9853515625 213 65.9853515625 208 65.9853515625 202 c 0
 65.9853515625 197 66.9853515625 191 66.9853515625 186 c 0
 66.9853515625 183 66.9853515625 181 66.9853515625 178 c 1
 61.9853515625 177 57.9853515625 176 52.9853515625 176 c 0
 46.9853515625 175 40.9853515625 176 34.9853515625 175 c 0
 33.9853515625 175 32.9853515625 175 31.9853515625 175 c 1
 31.9853515625 177 31.9853515625 179 31.9853515625 181 c 0
 31.9853515625 187 32.9853515625 191 32.9853515625 197 c 0
 32.9853515625 203 31.9853515625 209 31.9853515625 215 c 0
 31.9853515625 221 31.9853515625 226 31.9853515625 232 c 0
 31.9853515625 238 31.9853515625 245 30.9853515625 251 c 0
 30.9853515625 254 28.9853515625 257 26.9853515625 258 c 0
 20.9853515625 262 10.9853515625 259 10.9853515625 250 c 0
 10.9853515625 244 11.9853515625 237 11.9853515625 231 c 0
 11.9853515625 225 11.9853515625 219 11.9853515625 213 c 0
 11.9853515625 207 12.9853515625 202 12.9853515625 196 c 0
 12.9853515625 191 12.9853515625 185 12.9853515625 180 c 0
 12.9853515625 178 12.9853515625 177 12.9853515625 175 c 1
 2.9853515625 175 -0.0146484375 159 10.9853515625 156 c 0
 11.9853515625 156 11.9853515625 156 12.9853515625 156 c 0
 12.9853515625 155 13.9853515625 154 13.9853515625 153 c 0
 13.9853515625 148 13.9853515625 143 14.9853515625 138 c 0
 14.9853515625 133 14.9853515625 129 14.9853515625 124 c 0
 14.9853515625 119 15.9853515625 114 16.9853515625 109 c 0
 16.9853515625 104 17.9853515625 100 17.9853515625 95 c 0
 17.9853515625 90 18.9853515625 85 18.9853515625 80 c 0
 18.9853515625 79 18.9853515625 79 18.9853515625 77 c 0
 18.9853515625 65 37.9853515625 66 37.9853515625 78 c 0
 37.9853515625 80 37.9853515625 79 37.9853515625 82 c 0
 37.9853515625 87 36.9853515625 91 36.9853515625 96 c 0
 36.9853515625 101 36.9853515625 107 35.9853515625 112 c 0
 34.9853515625 117 34.9853515625 121 34.9853515625 126 c 0
 34.9853515625 131 34.9853515625 137 33.9853515625 142 c 0
 32.9853515625 147 32.9853515625 150 32.9853515625 155 c 0
 32.9853515625 156 l 1
 38.9853515625 156 42.9853515625 157 48.9853515625 157 c 0
 53.9853515625 157 59.9853515625 157 64.9853515625 158 c 0
 65.9853515625 158 65.9853515625 159 66.9853515625 159 c 1
 66.9853515625 158 66.9853515625 156 66.9853515625 155 c 0
 67.9853515625 150 67.9853515625 146 67.9853515625 141 c 0
 68.9853515625 136 68.9853515625 131 68.9853515625 126 c 0
 68.9853515625 121 69.9853515625 115 70.9853515625 110 c 0
 71.9853515625 105 71.9853515625 102 72.9853515625 97 c 0
 73.9853515625 93 73.9853515625 88 74.9853515625 84 c 0
 75.9853515625 80 75.9853515625 77 75.9853515625 73 c 0
 75.9853515625 72 74.9853515625 69 75.9853515625 72 c 1
 70.9853515625 61 87.9853515625 53 92.9853515625 64 c 0
 94.9853515625 67 95.9853515625 70 95.9853515625 74 c 0
 95.9853515625 79 94.9853515625 83 93.9853515625 88 c 0
 92.9853515625 92 92.9853515625 97 91.9853515625 101 c 0
 90.9853515625 105 89.9853515625 110 89.9853515625 114 c 0
 88.9853515625 119 88.9853515625 124 88.9853515625 129 c 0
 87.9853515625 134 87.9853515625 138 87.9853515625 143 c 0
 87.9853515625 148 87.9853515625 152 86.9853515625 157 c 0
 86.9853515625 158 86.9853515625 160 86.9853515625 161 c 1
 88.9853515625 161 90.9853515625 161 92.9853515625 161 c 0
 93.9853515625 161 92.9853515625 161 93.9853515625 161 c 0
 105.985351562 158 110.985351562 177 98.9853515625 180 c 0
 97.9853515625 180 96.9853515625 180 95.9853515625 180 c 0
 92.9853515625 180 88.9853515625 180 85.9853515625 180 c 1
 85.9853515625 182 85.9853515625 185 85.9853515625 187 c 0
 85.9853515625 192 85.9853515625 198 85.9853515625 203 c 0
 85.9853515625 209 85.9853515625 213 85.9853515625 219 c 0
 85.9853515625 226 86.9853515625 233 86.9853515625 240 c 0
 86.9853515625 247 85.9853515625 256 83.9853515625 263 c 0
 83.9853515625 265 82.9853515625 267 81.9853515625 268 c 1
EndSplineSet
EndChar

StartChar: I
Encoding: 9 73 9
Width: 71
VWidth: 299
Flags: HW
HStem: 71 1<48.6552 56.3754> 72 18<8.39034 32.5153 56.5153 60.0669> 238 20G<18.0153 19.5153> 261 19<54.5153 65.3574>
VStem: 20.5153 20<136.412 206> 24.5153 19<150.234 165 178 248.625> 27.5153 19<92.1882 134 148 161.766>
LayerCount: 2
Fore
SplineSet
63.515625 279 m 1x78
 62.515625 280 60.515625 281 59.515625 281 c 0
 55.515625 281 52.515625 281 48.515625 280 c 0
 43.515625 280 37.515625 280 32.515625 280 c 0
 26.515625 279 19.515625 279 13.515625 276 c 1
 1.515625 277 0.515625 258 12.515625 257 c 0
 15.515625 257 16.515625 258 19.515625 258 c 1
 19.515625 255 20.515625 253 20.515625 250 c 0
 20.515625 244 20.515625 239 20.515625 233 c 0x78
 21.515625 228 21.515625 223 21.515625 218 c 0
 21.515625 213 21.515625 209 21.515625 204 c 0
 21.515625 199 22.515625 194 23.515625 189 c 0
 23.515625 184 23.515625 180 24.515625 175 c 0x74
 24.515625 170 25.515625 167 25.515625 162 c 0
 25.515625 157 26.515625 153 26.515625 148 c 0
 26.515625 143 27.515625 137 27.515625 132 c 0
 27.515625 127 28.515625 123 29.515625 118 c 0
 30.515625 114 30.515625 109 31.515625 105 c 0
 31.515625 101 32.515625 96 32.515625 92 c 1
 27.515625 92 23.515625 92 18.515625 92 c 1
 6.515625 95 2.515625 77 14.515625 74 c 0
 20.515625 73 26.515625 72 32.515625 72 c 0
 37.515625 71 43.515625 72 48.515625 72 c 0x72
 51.515625 72 53.515625 71 56.515625 71 c 0xb2
 68.515625 69 71.515625 88 59.515625 90 c 0
 57.515625 90 55.515625 90 53.515625 90 c 0
 52.515625 90 52.515625 90 51.515625 90 c 1
 51.515625 91 51.515625 93 51.515625 94 c 0
 51.515625 99 51.515625 103 50.515625 108 c 0
 49.515625 112 49.515625 117 48.515625 121 c 0
 47.515625 125 46.515625 130 46.515625 134 c 0x72
 46.515625 139 45.515625 145 45.515625 150 c 0
 45.515625 155 44.515625 160 44.515625 165 c 0
 43.515625 169 43.515625 173 43.515625 178 c 0x74
 43.515625 183 43.515625 188 42.515625 193 c 0
 41.515625 197 41.515625 202 41.515625 206 c 0
 41.515625 211 40.515625 215 40.515625 220 c 0
 40.515625 225 40.515625 229 40.515625 234 c 0
 40.515625 240 40.515625 246 40.515625 252 c 0
 40.515625 255 39.515625 258 39.515625 261 c 1
 41.515625 261 42.515625 261 44.515625 261 c 0
 47.515625 261 51.515625 261 54.515625 262 c 1
 64.515625 259 70.515625 274 63.515625 279 c 1x78
EndSplineSet
EndChar

StartChar: J
Encoding: 10 74 10
Width: 91
VWidth: 299
Flags: HW
LayerCount: 2
Fore
SplineSet
78.6396484375 275 m 1
 75.6396484375 274 72.6396484375 274 69.6396484375 273 c 0
 64.6396484375 273 60.6396484375 272 55.6396484375 272 c 0
 49.6396484375 272 42.6396484375 272 36.6396484375 272 c 0
 28.6396484375 272 21.6396484375 272 14.6396484375 270 c 1
 2.6396484375 272 -0.3603515625 253 11.6396484375 251 c 0
 18.6396484375 251 25.6396484375 252 32.6396484375 252 c 0
 37.6396484375 252 41.6396484375 252 46.6396484375 252 c 1
 47.6396484375 247 49.6396484375 241 50.6396484375 236 c 0
 51.6396484375 230 52.6396484375 225 53.6396484375 219 c 0
 54.6396484375 214 55.6396484375 209 55.6396484375 204 c 0
 55.6396484375 199 55.6396484375 192 55.6396484375 187 c 0
 55.6396484375 181 54.6396484375 176 55.6396484375 170 c 0
 55.6396484375 165 56.6396484375 161 56.6396484375 156 c 0
 56.6396484375 150 56.6396484375 144 57.6396484375 138 c 0
 58.6396484375 133 58.6396484375 128 58.6396484375 123 c 0
 58.6396484375 118 58.6396484375 114 57.6396484375 109 c 0
 56.6396484375 104 56.6396484375 100 53.6396484375 96 c 0
 52.6396484375 94 49.6396484375 92 47.6396484375 91 c 0
 46.6396484375 92 l 0
 43.6396484375 94 42.6396484375 97 40.6396484375 100 c 0
 38.6396484375 103 37.6396484375 107 36.6396484375 110 c 0
 36.6396484375 111 36.6396484375 113 36.6396484375 114 c 0
 36.6396484375 126 17.6396484375 125 17.6396484375 113 c 0
 17.6396484375 110 17.6396484375 107 18.6396484375 104 c 0
 19.6396484375 99 21.6396484375 94 23.6396484375 90 c 0
 26.6396484375 85 29.6396484375 81 33.6396484375 77 c 0
 41.6396484375 71 47.6396484375 71 57.6396484375 76 c 0
 62.6396484375 80 68.6396484375 83 71.6396484375 89 c 0
 74.6396484375 95 76.6396484375 100 77.6396484375 107 c 0
 78.6396484375 113 77.6396484375 118 77.6396484375 124 c 0
 77.6396484375 130 78.6396484375 135 77.6396484375 141 c 0
 76.6396484375 147 75.6396484375 151 75.6396484375 157 c 0
 75.6396484375 162 75.6396484375 167 75.6396484375 172 c 0
 75.6396484375 177 74.6396484375 184 74.6396484375 189 c 0
 74.6396484375 194 74.6396484375 200 74.6396484375 205 c 0
 74.6396484375 211 74.6396484375 217 73.6396484375 223 c 0
 72.6396484375 229 70.6396484375 235 69.6396484375 241 c 0
 68.6396484375 245 68.6396484375 250 67.6396484375 254 c 1
 71.6396484375 254 74.6396484375 255 77.6396484375 256 c 0
 89.6396484375 255 90.6396484375 274 78.6396484375 275 c 1
49.6396484375 92 m 0
 49.6396484375 92 48.6396484375 91 47.6396484375 91 c 1
 48.6396484375 91 49.6396484375 92 49.6396484375 92 c 0
47.6396484375 91 m 1
 46.6396484375 90 45.6396484375 90 44.6396484375 90 c 1
 45.6396484375 91 46.6396484375 91 47.6396484375 91 c 1
EndSplineSet
EndChar

StartChar: K
Encoding: 11 75 11
Width: 99
VWidth: 299
Flags: HW
LayerCount: 2
Fore
SplineSet
23.3203125 260 m 1
 26.3203125 254 26.3203125 247 27.3203125 240 c 0
 28.3203125 235 28.3203125 229 28.3203125 224 c 0
 28.3203125 219 28.3203125 213 28.3203125 208 c 0
 28.3203125 203 28.3203125 198 28.3203125 193 c 0
 28.3203125 188 29.3203125 184 29.3203125 179 c 0
 29.3203125 174 29.3203125 170 29.3203125 165 c 0
 30.3203125 161 30.3203125 157 30.3203125 153 c 0
 30.3203125 149 30.3203125 144 31.3203125 140 c 0
 31.3203125 135 31.3203125 131 32.3203125 126 c 0
 32.3203125 121 32.3203125 116 32.3203125 111 c 0
 32.3203125 107 33.3203125 102 33.3203125 98 c 0
 34.3203125 94 34.3203125 89 34.3203125 85 c 0
 34.3203125 84 34.3203125 83 34.3203125 82 c 0
 34.3203125 81 34.3203125 79 34.3203125 79 c 0
 33.3203125 75 16.3203125 71 14.3203125 78 c 0
 13.3203125 82 13.3203125 85 12.3203125 89 c 0
 11.3203125 94 11.3203125 98 11.3203125 103 c 0
 10.3203125 108 10.3203125 113 10.3203125 118 c 0
 10.3203125 123 10.3203125 129 10.3203125 134 c 0
 10.3203125 139 10.3203125 144 10.3203125 149 c 0
 10.3203125 153 10.3203125 158 10.3203125 162 c 0
 10.3203125 166 10.3203125 171 10.3203125 175 c 0
 10.3203125 179 10.3203125 184 10.3203125 188 c 0
 10.3203125 194 11.3203125 199 14.3203125 204 c 1
 22.3203125 212 24.3203125 211 31.3203125 213 c 0
 32.3203125 213 32.3203125 214 33.3203125 214 c 0
 34.3203125 214 38.3203125 215 37.3203125 215 c 0
 36.3203125 215 32.3203125 213 33.3203125 213 c 0
 34.3203125 213 46.3203125 218 37.3203125 215 c 1
 41.3203125 216 44.3203125 219 48.3203125 221 c 0
 52.3203125 223 56.3203125 227 60.3203125 230 c 0
 64.3203125 233 67.3203125 236 69.3203125 240 c 0
 72.3203125 244 73.3203125 248 75.3203125 252 c 0
 76.3203125 252 l 0
 81.3203125 249 86.3203125 247 91.3203125 244 c 0
 90.3203125 244 l 0
 89.3203125 243 89.3203125 242 88.3203125 241 c 0
 85.3203125 237 82.3203125 232 79.3203125 228 c 0
 75.3203125 223 71.3203125 219 66.3203125 215 c 0
 62.3203125 212 58.3203125 209 53.3203125 207 c 0
 50.3203125 206 48.3203125 206 45.3203125 205 c 0
 41.3203125 204 37.3203125 203 34.3203125 202 c 1
 37.3203125 203 43.3203125 205 42.3203125 210 c 0
 41.3203125 218 35.3203125 219 41.3203125 217 c 1
 45.3203125 217 50.3203125 215 53.3203125 213 c 0
 57.3203125 210 61.3203125 207 65.3203125 203 c 0
 69.3203125 199 71.3203125 195 74.3203125 190 c 0
 76.3203125 186 78.3203125 181 79.3203125 176 c 0
 80.3203125 171 81.3203125 167 81.3203125 162 c 0
 81.3203125 158 81.3203125 153 81.3203125 149 c 0
 81.3203125 145 82.3203125 141 83.3203125 137 c 0
 83.3203125 132 83.3203125 128 84.3203125 123 c 0
 84.3203125 119 85.3203125 114 86.3203125 110 c 0
 86.3203125 105 86.3203125 101 87.3203125 96 c 0
 87.3203125 92 88.3203125 88 89.3203125 84 c 0
 91.3203125 80 91.3203125 75 90.3203125 71 c 0
 87.3203125 60 70.3203125 65 73.3203125 76 c 1
 73.3203125 75 72.3203125 75 72.3203125 74 c 0
 72.3203125 73 l 0
 72.3203125 73 72.3203125 79 71.3203125 79 c 0
 70.3203125 84 68.3203125 87 68.3203125 92 c 0
 67.3203125 97 66.3203125 102 66.3203125 107 c 0
 66.3203125 111 65.3203125 116 65.3203125 120 c 0
 64.3203125 125 64.3203125 129 64.3203125 134 c 0
 64.3203125 138 62.3203125 143 62.3203125 147 c 0
 62.3203125 151 62.3203125 156 62.3203125 160 c 0
 62.3203125 164 61.3203125 166 61.3203125 170 c 0
 60.3203125 173 59.3203125 178 57.3203125 181 c 0
 55.3203125 184 54.3203125 187 51.3203125 190 c 0
 48.3203125 193 44.3203125 196 41.3203125 198 c 0
 38.3203125 199 34.3203125 200 31.3203125 201 c 0
 23.3203125 205 22.3203125 210 26.3203125 217 c 0
 26.3203125 218 26.3203125 218 27.3203125 218 c 0
 29.3203125 219 32.3203125 221 35.3203125 222 c 0
 36.3203125 222 36.3203125 222 37.3203125 222 c 0
 38.3203125 222 39.3203125 222 40.3203125 222 c 0
 42.3203125 222 48.3203125 226 40.3203125 222 c 1
 44.3203125 224 48.3203125 225 51.3203125 228 c 0
 55.3203125 230 59.3203125 235 62.3203125 238 c 0
 66.3203125 242 68.3203125 246 71.3203125 250 c 0
 72.3203125 251 75.3203125 256 76.3203125 256 c 0
 91.3203125 254 96.3203125 256 94.3203125 247 c 0
 92.3203125 242 90.3203125 237 87.3203125 233 c 0
 84.3203125 228 80.3203125 222 75.3203125 218 c 0
 71.3203125 214 67.3203125 211 62.3203125 208 c 0
 57.3203125 205 53.3203125 201 48.3203125 199 c 0
 40.3203125 196 42.3203125 197 31.3203125 194 c 1
 32.3203125 194 36.3203125 195 35.3203125 195 c 0
 33.3203125 194 30.3203125 193 28.3203125 193 c 0
 26.3203125 193 31.3203125 194 32.3203125 195 c 0
 33.3203125 195 30.3203125 194 30.3203125 195 c 0
 30.3203125 199 30.3203125 190 30.3203125 190 c 0
 30.3203125 186 30.3203125 180 29.3203125 176 c 0
 29.3203125 172 29.3203125 168 29.3203125 164 c 0
 29.3203125 159 29.3203125 155 30.3203125 150 c 0
 30.3203125 145 30.3203125 141 30.3203125 136 c 0
 30.3203125 131 29.3203125 125 29.3203125 120 c 0
 29.3203125 115 30.3203125 111 30.3203125 106 c 0
 30.3203125 102 31.3203125 97 31.3203125 93 c 0
 32.3203125 90 31.3203125 87 32.3203125 84 c 0
 34.3203125 77 34.3203125 81 15.3203125 77 c 0
 15.3203125 77 14.3203125 81 14.3203125 82 c 0
 14.3203125 86 15.3203125 92 14.3203125 96 c 0
 14.3203125 101 13.3203125 106 13.3203125 111 c 0
 13.3203125 115 13.3203125 119 13.3203125 123 c 0
 12.3203125 128 12.3203125 132 12.3203125 137 c 0
 12.3203125 141 11.3203125 146 11.3203125 150 c 0
 11.3203125 154 11.3203125 159 10.3203125 163 c 0
 10.3203125 167 10.3203125 172 10.3203125 176 c 0
 9.3203125 181 9.3203125 186 9.3203125 191 c 0
 9.3203125 196 9.3203125 202 9.3203125 207 c 0
 9.3203125 212 8.3203125 216 8.3203125 221 c 0
 7.3203125 226 8.3203125 232 7.3203125 237 c 0
 6.3203125 243 5.3203125 250 4.3203125 256 c 0
 1.3203125 268 20.3203125 272 23.3203125 260 c 1
EndSplineSet
EndChar

StartChar: L
Encoding: 12 76 12
Width: 65
VWidth: 299
Flags: HW
LayerCount: 2
Fore
SplineSet
23.4443359375 259 m 1
 24.4443359375 252 24.4443359375 247 24.4443359375 240 c 0
 24.4443359375 234 24.4443359375 228 24.4443359375 222 c 0
 24.4443359375 216 25.4443359375 212 25.4443359375 206 c 0
 25.4443359375 201 25.4443359375 196 25.4443359375 191 c 0
 25.4443359375 186 25.4443359375 181 25.4443359375 176 c 0
 25.4443359375 170 25.4443359375 165 25.4443359375 159 c 0
 25.4443359375 154 25.4443359375 148 25.4443359375 143 c 0
 25.4443359375 138 25.4443359375 134 26.4443359375 129 c 0
 27.4443359375 123 27.4443359375 118 27.4443359375 112 c 0
 27.4443359375 107 28.4443359375 101 28.4443359375 96 c 0
 28.4443359375 91 27.4443359375 86 27.4443359375 81 c 0
 27.4443359375 80 27.4443359375 81 27.4443359375 80 c 0
 27.4443359375 79 27.4443359375 80 28.4443359375 80 c 1
 29.4443359375 80 l 0
 31.4443359375 80 34.4443359375 80 36.4443359375 80 c 0
 41.4443359375 79 44.4443359375 80 48.4443359375 80 c 0
 51.4443359375 80 49.4443359375 80 52.4443359375 80 c 0
 64.4443359375 78 62.4443359375 59 50.4443359375 61 c 1
 47.4443359375 61 47.4443359375 61 45.4443359375 61 c 0
 40.4443359375 60 35.4443359375 61 30.4443359375 62 c 0
 25.4443359375 62 20.4443359375 62 16.4443359375 65 c 0
 11.4443359375 69 8.4443359375 74 8.4443359375 81 c 0
 8.4443359375 85 8.4443359375 90 8.4443359375 94 c 0
 8.4443359375 99 8.4443359375 104 8.4443359375 109 c 0
 7.4443359375 115 6.4443359375 120 6.4443359375 126 c 0
 6.4443359375 131 5.4443359375 137 5.4443359375 142 c 0
 5.4443359375 147 5.4443359375 153 5.4443359375 158 c 0
 5.4443359375 163 5.4443359375 169 5.4443359375 174 c 0
 5.4443359375 179 5.4443359375 185 5.4443359375 190 c 0
 5.4443359375 195 5.4443359375 200 5.4443359375 205 c 0
 5.4443359375 210 5.4443359375 215 5.4443359375 220 c 0
 5.4443359375 226 4.4443359375 232 4.4443359375 238 c 0
 4.4443359375 245 3.4443359375 251 4.4443359375 258 c 1
 3.4443359375 270 22.4443359375 271 23.4443359375 259 c 1
EndSplineSet
EndChar

StartChar: M
Encoding: 13 77 13
Width: 104
VWidth: 299
Flags: HW
LayerCount: 2
Fore
SplineSet
8 82 m 1
 6 89 6 96 6 103 c 0
 5 109 5 116 5 122 c 0
 5 127 6 131 6 136 c 0
 6 140 5 146 5 150 c 0
 5 155 5 158 5 163 c 0
 5 168 5 174 5 179 c 0
 5 185 5 190 5 196 c 0
 5 201 4 206 4 211 c 0
 4 216 4 221 4 226 c 0
 4 231 4 235 4 240 c 0
 4 245 4 249 4 254 c 0
 4 257 5 266 8 267 c 0
 12 268 16 268 21 269 c 1
 25 266 28 262 30 257 c 0
 32 253 34 249 36 245 c 0
 38 241 41 237 43 233 c 0
 46 228 50 223 52 218 c 0
 54 214 55 209 57 205 c 1
 57 206 54 208 53 208 c 0
 51 208 48 207 46 206 c 0
 48 209 49 212 50 215 c 0
 52 220 55 224 58 229 c 0
 61 234 63 240 66 245 c 0
 69 250 73 256 76 261 c 0
 81 267 85 271 94 269 c 0
 96 269 97 266 98 265 c 0
 101 260 100 255 100 249 c 0
 100 243 100 237 99 232 c 0
 99 227 98 221 98 216 c 0
 98 211 97 206 97 201 c 0
 97 196 97 190 97 185 c 0
 97 180 96 174 96 169 c 0
 96 164 95 159 95 154 c 0
 95 149 95 144 95 139 c 0
 95 134 96 129 96 124 c 0
 96 119 96 115 96 110 c 0
 96 105 96 101 96 96 c 0
 96 91 95 87 94 82 c 0
 93 80 94 81 93 78 c 0
 90 67 72 72 75 83 c 1
 75 87 76 91 76 95 c 0
 76 99 77 104 77 108 c 0
 77 113 76 118 76 123 c 0
 76 128 76 133 76 138 c 0
 76 143 76 148 76 153 c 0
 76 158 76 164 76 169 c 0
 76 174 77 179 77 184 c 0
 77 189 77 195 77 200 c 0
 77 205 78 211 78 216 c 0
 78 221 79 227 79 232 c 0
 80 237 80 243 80 249 c 0
 80 250 80 259 82 256 c 0
 83 255 84 253 86 253 c 0
 97 252 98 260 94 253 c 0
 91 248 87 243 84 238 c 0
 81 233 79 228 77 223 c 0
 75 218 71 214 69 209 c 0
 67 205 65 201 62 197 c 0
 55 188 46 187 39 197 c 0
 37 201 36 206 34 210 c 0
 32 215 29 219 26 223 c 0
 23 228 21 232 19 237 c 0
 17 241 15 245 13 249 c 0
 13 250 9 256 11 254 c 1
 15 255 19 255 23 257 c 0
 25 258 24 261 24 257 c 0
 24 256 24 256 24 255 c 0
 24 251 23 246 23 242 c 0
 23 237 23 232 23 227 c 0
 23 222 24 217 24 212 c 0
 24 207 24 201 24 196 c 0
 24 191 24 186 24 181 c 0
 24 176 25 170 25 165 c 0
 25 160 25 156 25 151 c 0
 25 146 25 142 25 137 c 0
 25 132 25 128 25 123 c 0
 25 117 25 112 26 106 c 0
 27 99 27 92 27 85 c 1
 29 73 10 70 8 82 c 1
EndSplineSet
EndChar

StartChar: N
Encoding: 14 78 14
Width: 86
VWidth: 299
Flags: HW
LayerCount: 2
Fore
SplineSet
4 84 m 1
 4 91 4 98 5 105 c 0
 6 111 6 117 6 123 c 0
 6 128 6 134 6 139 c 0
 6 144 6 149 6 154 c 0
 6 159 6 164 6 169 c 0
 6 174 7 180 7 185 c 0
 8 190 8 195 8 200 c 0
 8 205 8 209 8 214 c 0
 8 219 8 224 8 229 c 0
 8 233 8 238 8 242 c 0
 8 247 8 253 10 258 c 0
 17 269 26 267 32 257 c 0
 35 251 36 244 38 238 c 0
 40 232 41 225 42 219 c 0
 43 214 45 208 46 203 c 0
 48 197 48 191 49 185 c 0
 50 180 51 175 52 170 c 0
 53 164 55 158 56 152 c 0
 57 146 59 139 60 133 c 0
 61 128 63 124 65 119 c 0
 67 114 68 110 70 105 c 0
 71 101 72 96 74 92 c 0
 75 91 l 0
 74 92 l 0
 73 93 73 94 72 94 c 0
 64 93 64 94 61 90 c 1
 60 85 61 94 61 95 c 0
 61 99 61 103 61 107 c 0
 61 112 61 118 61 123 c 0
 61 128 61 134 61 139 c 0
 61 144 62 149 62 154 c 0
 62 159 62 162 62 167 c 0
 62 172 62 178 62 183 c 0
 62 188 61 192 60 197 c 0
 59 202 59 207 59 212 c 0
 59 217 58 222 58 227 c 0
 58 232 59 238 59 243 c 0
 59 248 59 253 59 258 c 0
 59 259 60 260 60 261 c 0
 61 273 80 271 79 259 c 1
 79 258 l 0
 78 253 79 248 78 243 c 0
 78 238 78 234 78 229 c 0
 78 224 78 220 78 215 c 0
 79 210 79 205 80 200 c 0
 81 195 81 190 81 185 c 0
 81 180 82 174 82 169 c 0
 82 164 81 159 81 154 c 0
 81 149 81 144 81 139 c 0
 80 134 80 128 80 123 c 0
 80 118 80 113 80 108 c 0
 80 104 80 100 80 96 c 0
 80 91 79 87 78 83 c 0
 77 82 77 81 76 80 c 0
 66 74 61 76 56 85 c 0
 54 89 53 94 51 99 c 0
 49 104 48 108 46 112 c 0
 44 117 42 122 41 128 c 0
 39 134 37 141 36 147 c 0
 35 153 34 159 33 165 c 0
 32 170 31 175 30 180 c 0
 29 186 27 192 26 198 c 0
 25 203 24 209 23 214 c 0
 21 220 19 227 18 233 c 0
 17 238 16 244 15 249 c 0
 15 250 16 248 17 248 c 0
 22 248 27 247 28 252 c 0
 27 254 28 245 28 244 c 0
 28 239 28 235 28 230 c 0
 28 225 27 221 27 216 c 0
 27 211 28 206 28 201 c 0
 28 196 27 191 27 186 c 0
 27 181 26 175 26 170 c 0
 26 165 26 161 26 156 c 0
 26 151 26 145 26 140 c 0
 26 135 26 130 26 125 c 0
 26 118 26 112 26 105 c 0
 26 98 25 90 23 83 c 1
 23 71 4 72 4 84 c 1
EndSplineSet
EndChar

StartChar: Ntilde
Encoding: 15 209 15
Width: 116
VWidth: 299
Flags: HW
LayerCount: 2
Fore
SplineSet
78 272 m 1
 72 272 67 270 62 265 c 0
 58 261 56 255 53 250 c 0
 51 246 48 242 45 238 c 0
 43 236 41 235 39 233 c 0
 37 233 l 0
 35 235 35 237 34 239 c 0
 33 243 33 247 33 251 c 0
 33 252 l 0
 33 264 14 265 14 253 c 0
 14 252 14 251 14 250 c 0
 14 244 14 239 16 233 c 0
 18 228 21 223 25 219 c 0
 33 213 39 213 49 217 c 0
 54 220 58 224 62 229 c 0
 66 234 70 238 72 244 c 0
 73 247 74 251 77 254 c 1
 76 254 75 253 74 253 c 0
 73 253 78 256 77 254 c 1
 80 255 84 249 85 248 c 0
 88 243 90 237 93 232 c 1
 97 221 115 228 111 239 c 0
 109 246 106 252 102 258 c 0
 98 264 92 268 85 271 c 0
 83 272 80 272 78 272 c 1
77 254 m 1
 77 254 l 1
40 233 m 0
 40 233 40 233 39 233 c 1
 40 233 40 233 40 233 c 0
39 233 m 1
 38 232 36 231 35 231 c 1
 36 232 38 233 39 233 c 1
102 215 m 1
 97 215 92 212 92 206 c 0
 92 202 92 203 92 200 c 0
 92 195 91 191 91 186 c 0
 91 181 91 177 91 172 c 0
 91 167 91 162 91 157 c 0
 91 153 90 148 90 144 c 0
 90 139 91 135 90 130 c 0
 90 125 89 120 89 115 c 0
 89 110 88 104 88 99 c 1
 86 102 83 106 80 109 c 0
 77 113 75 116 73 120 c 0
 71 125 68 128 66 133 c 0
 64 138 62 143 60 148 c 0
 58 153 56 159 54 164 c 0
 52 170 49 176 46 181 c 0
 43 185 41 189 39 193 c 0
 37 197 33 201 30 205 c 0
 23 213 15 216 7 205 c 0
 5 200 5 196 5 190 c 0
 5 186 5 180 5 176 c 0
 5 172 4 168 4 164 c 0
 4 159 5 154 5 149 c 0
 5 144 5 140 5 135 c 0
 5 130 5 125 5 120 c 0
 5 114 4 108 4 102 c 0
 4 96 4 88 5 82 c 1
 6 70 26 71 25 83 c 0
 25 90 24 96 24 103 c 0
 24 109 24 115 24 121 c 0
 24 126 24 132 24 137 c 0
 24 142 24 146 24 151 c 0
 24 156 24 160 24 165 c 0
 24 170 24 173 24 178 c 0
 24 180 l 1
 26 177 27 174 29 171 c 0
 32 166 34 162 36 157 c 0
 38 152 40 146 42 141 c 0
 44 136 46 131 48 126 c 0
 50 121 52 117 55 112 c 0
 57 107 61 102 64 98 c 0
 67 94 69 91 72 87 c 0
 75 82 78 78 83 75 c 0
 92 69 100 74 104 83 c 0
 106 88 107 94 107 99 c 0
 107 105 109 109 109 115 c 0
 109 120 109 125 109 130 c 0
 110 134 109 140 110 144 c 0
 110 149 110 152 110 157 c 0
 110 162 110 168 110 173 c 0
 111 178 110 181 111 186 c 0
 111 191 111 196 111 201 c 0
 111 204 112 203 112 206 c 0
 112 212 107 215 102 215 c 1
25 199 m 0
 25 198 l 0
 25 199 25 199 25 199 c 0
94 91 m 1
 95 91 96 90 96 89 c 1
 95 89 95 91 94 91 c 1
EndSplineSet
EndChar

StartChar: O
Encoding: 16 79 16
Width: 100
VWidth: 299
Flags: HW
HStem: 251 22<30.4219 39.0447> 254 19<39.0938 56.8594>
VStem: 4 19<115.922 183.765> 6 20<106.781 248.25> 71 19<95.1264 226.765> 77 19<156.5 251.625>
LayerCount: 2
Fore
SplineSet
60 253 m 1x50
 55 254 50 255 45 254 c 0x50
 43 254 41 253 39 252 c 0
 38 252 35 250 36 251 c 0
 37 252 38 252 39 252 c 0
 40 252 38 251 37 251 c 0
 33 250 32 247 30 244 c 0
 28 240 28 235 27 231 c 0
 26 226 26 220 26 215 c 0
 26 210 26 205 26 200 c 0x90
 26 195 24 189 24 184 c 0
 24 179 23 173 23 168 c 0
 23 164 23 159 23 155 c 0
 23 151 23 146 23 142 c 0
 23 138 23 135 24 131 c 0
 25 126 28 122 29 118 c 0
 31 113 32 108 34 104 c 0
 36 100 40 98 43 95 c 0
 46 92 49 90 53 89 c 0
 56 89 58 89 61 90 c 1
 53 87 61 90 63 93 c 0
 65 96 67 100 68 104 c 0
 69 109 70 113 70 118 c 0
 70 123 71 128 71 133 c 0
 71 138 71 143 71 148 c 0
 71 153 71 159 71 164 c 0xa8
 71 169 72 175 72 180 c 0
 73 185 74 190 74 195 c 0
 75 201 75 206 76 212 c 0
 77 217 77 222 77 227 c 0
 77 231 76 235 75 239 c 0
 74 244 72 248 70 252 c 0
 69 253 68 256 66 255 c 0
 66 254 66 254 64 254 c 0
 52 257 57 276 69 273 c 1
 72 273 71 273 75 272 c 0
 81 270 85 267 88 261 c 0
 91 256 93 251 94 245 c 0
 95 239 96 233 96 227 c 0x44
 96 222 95 216 95 211 c 0
 94 205 94 199 93 194 c 0
 92 189 93 185 92 180 c 0
 92 175 91 169 91 164 c 0
 91 159 90 155 90 150 c 0
 90 144 90 139 90 133 c 0
 90 128 90 123 90 118 c 0
 89 113 88 106 87 101 c 0
 86 95 84 90 81 85 c 0
 76 78 70 73 61 71 c 0
 55 70 50 70 44 72 c 0
 38 74 33 77 28 81 c 0
 23 85 19 90 16 96 c 0
 14 101 12 106 10 111 c 0
 8 116 6 121 5 126 c 0
 4 131 4 136 4 141 c 0
 4 145 4 150 4 154 c 0
 4 159 4 163 4 168 c 0x68
 4 173 5 178 5 183 c 0
 5 188 5 195 6 200 c 0
 6 205 7 210 7 215 c 0
 7 221 7 227 8 232 c 0
 9 238 10 244 12 250 c 0
 15 256 19 262 25 266 c 0
 32 270 40 273 48 273 c 0
 55 273 62 273 69 270 c 0
 80 264 71 247 60 253 c 1x50
EndSplineSet
EndChar

StartChar: P
Encoding: 17 80 17
Width: 92
VWidth: 299
Flags: HW
LayerCount: 2
Fore
SplineSet
24 260 m 1
 25 254 25 248 25 242 c 0
 25 236 26 231 26 225 c 0
 26 220 26 214 27 209 c 0
 27 203 28 198 28 192 c 0
 28 186 29 181 29 175 c 0
 29 170 29 164 29 159 c 0
 29 153 29 148 29 142 c 0
 29 137 30 132 30 127 c 0
 30 122 30 116 30 111 c 0
 30 106 29 101 29 96 c 0
 29 91 28 87 28 82 c 0
 28 70 29 74 9 74 c 1
 8 79 8 83 8 88 c 0
 8 93 8 97 8 102 c 0
 8 107 7 114 7 119 c 0
 7 125 8 130 8 136 c 0
 8 141 8 145 8 150 c 0
 8 154 7 160 7 164 c 0
 7 168 6 173 6 177 c 0
 5 181 4 186 4 190 c 0
 4 195 4 199 4 204 c 0
 4 209 4 213 4 218 c 0
 4 222 4 227 4 231 c 0
 4 237 5 243 6 248 c 0
 8 254 11 259 16 263 c 0
 22 267 29 270 36 271 c 0
 42 271 48 270 54 268 c 0
 60 267 64 265 69 262 c 0
 74 259 78 256 81 251 c 0
 84 247 86 242 87 237 c 0
 88 232 89 226 88 221 c 0
 88 215 85 209 82 204 c 0
 79 199 75 194 71 190 c 0
 67 187 63 183 59 181 c 0
 56 180 54 179 51 178 c 0
 46 176 39 176 34 177 c 0
 28 178 23 181 18 184 c 0
 17 185 16 185 15 186 c 0
 6 194 19 208 28 200 c 1
 29 200 l 0
 33 199 35 196 39 196 c 0
 43 196 47 197 51 198 c 1
 41 194 54 199 55 201 c 0
 59 204 61 207 64 211 c 0
 66 214 67 217 68 221 c 0
 68 224 70 228 69 231 c 0
 68 234 67 237 65 240 c 0
 63 243 59 245 56 247 c 0
 53 249 49 250 45 251 c 0
 41 252 38 251 34 251 c 0
 32 251 27 249 35 252 c 0
 36 253 29 250 31 250 c 1
 29 250 26 247 25 245 c 0
 24 241 24 237 24 233 c 0
 24 229 23 223 23 219 c 0
 23 214 23 211 23 206 c 0
 23 202 24 196 24 192 c 0
 24 188 24 183 25 179 c 0
 25 174 26 170 26 165 c 0
 26 160 27 156 27 151 c 0
 27 146 27 142 27 137 c 0
 27 131 27 126 27 120 c 0
 27 114 27 109 27 103 c 0
 27 98 28 94 28 89 c 0
 28 85 28 81 28 77 c 1
 7 72 9 68 9 82 c 0
 9 86 10 91 10 95 c 0
 10 100 10 104 10 109 c 0
 10 114 10 120 10 125 c 0
 10 130 10 136 10 141 c 0
 10 146 10 152 10 157 c 0
 10 163 9 168 9 174 c 0
 9 179 8 185 8 190 c 0
 8 196 7 201 7 207 c 0
 7 213 6 218 6 224 c 0
 6 229 6 235 6 240 c 0
 6 246 5 253 5 259 c 0
 4 271 23 272 24 260 c 1
EndSplineSet
EndChar

StartChar: Q
Encoding: 18 81 18
Width: 100
VWidth: 299
Flags: HW
LayerCount: 2
Fore
SplineSet
73 260 m 1
 70 262 67 264 64 266 c 0
 58 269 51 269 45 268 c 0
 38 266 32 262 26 257 c 0
 21 253 18 248 15 242 c 0
 12 236 10 229 8 223 c 0
 6 217 5 210 5 204 c 0
 4 198 4 193 4 187 c 0
 4 182 5 176 5 171 c 0
 5 166 5 161 5 156 c 0
 5 151 5 147 5 142 c 0
 5 137 6 132 6 127 c 0
 6 121 7 115 8 109 c 0
 9 103 13 96 16 91 c 0
 19 86 25 82 30 79 c 0
 36 75 41 73 48 73 c 0
 54 73 60 75 66 78 c 1
 67 75 68 72 70 70 c 0
 75 59 92 67 87 78 c 0
 86 81 85 84 84 86 c 0
 83 88 83 89 82 91 c 0
 82 92 83 92 83 93 c 0
 86 98 89 103 91 108 c 0
 93 114 94 120 95 126 c 0
 95 131 95 136 95 141 c 0
 95 146 95 151 95 156 c 0
 95 161 95 165 95 170 c 0
 95 175 96 182 96 187 c 0
 96 192 95 198 95 203 c 0
 95 208 94 213 94 218 c 0
 93 224 91 229 89 234 c 0
 87 238 85 242 82 246 c 0
 82 248 82 250 81 252 c 0
 79 255 76 258 73 260 c 1
61 241 m 1
 63 240 64 238 65 237 c 0
 68 234 69 231 71 227 c 0
 73 223 73 220 74 216 c 0
 74 211 75 207 75 202 c 0
 75 197 76 191 76 186 c 0
 76 181 76 174 76 169 c 0
 76 164 76 159 76 154 c 0
 76 149 76 145 76 140 c 0
 76 136 77 131 76 127 c 0
 75 123 74 118 72 114 c 0
 72 113 l 1
 71 115 69 118 68 120 c 0
 64 131 47 124 51 113 c 0
 53 107 55 101 58 95 c 1
 54 93 l 0
 55 93 56 94 57 94 c 0
 59 94 53 91 53 92 c 1
 49 92 45 92 42 94 c 0
 39 96 35 98 33 101 c 0
 31 105 29 109 28 113 c 0
 27 119 26 124 25 130 c 0
 25 134 24 139 24 143 c 0
 24 148 24 152 24 157 c 0
 24 162 24 168 24 173 c 0
 24 178 24 183 24 188 c 0
 24 193 25 199 25 204 c 0
 26 209 26 215 28 220 c 0
 29 225 31 230 33 235 c 0
 35 239 38 242 42 245 c 0
 43 245 44 247 46 248 c 1
 48 243 55 238 60 241 c 0
 61 241 l 1
59 242 m 1
 58 242 56 241 56 243 c 1
 57 243 58 242 59 242 c 1
EndSplineSet
EndChar

StartChar: R
Encoding: 19 82 19
Width: 101
VWidth: 299
Flags: HW
LayerCount: 2
Fore
SplineSet
22.3359375 235 m 1
 24.3359375 228 25.3359375 221 25.3359375 214 c 0
 25.3359375 207 26.3359375 200 26.3359375 193 c 0
 26.3359375 187 28.3359375 182 28.3359375 176 c 0
 28.3359375 171 29.3359375 165 29.3359375 160 c 0
 29.3359375 155 29.3359375 149 29.3359375 144 c 0
 29.3359375 138 29.3359375 133 29.3359375 127 c 0
 29.3359375 121 27.3359375 115 27.3359375 110 c 0
 27.3359375 105 27.3359375 101 27.3359375 96 c 0
 27.3359375 92 27.3359375 87 27.3359375 83 c 0
 27.3359375 81 27.3359375 79 27.3359375 77 c 0
 26.3359375 71 8.3359375 73 9.3359375 79 c 0
 9.3359375 83 9.3359375 87 9.3359375 91 c 0
 10.3359375 96 9.3359375 101 9.3359375 106 c 0
 9.3359375 111 10.3359375 117 10.3359375 122 c 0
 10.3359375 127 11.3359375 133 11.3359375 138 c 0
 11.3359375 143 11.3359375 148 11.3359375 153 c 0
 11.3359375 158 10.3359375 163 10.3359375 168 c 0
 10.3359375 172 10.3359375 177 9.3359375 181 c 0
 8.3359375 186 8.3359375 191 8.3359375 196 c 0
 8.3359375 201 8.3359375 207 8.3359375 212 c 0
 8.3359375 217 8.3359375 221 8.3359375 226 c 0
 8.3359375 231 7.3359375 236 8.3359375 241 c 0
 11.3359375 251 16.3359375 254 26.3359375 256 c 0
 31.3359375 257 36.3359375 255 41.3359375 256 c 0
 46.3359375 256 53.3359375 257 58.3359375 256 c 0
 64.3359375 255 69.3359375 253 75.3359375 250 c 0
 81.3359375 246 85.3359375 241 88.3359375 235 c 0
 90.3359375 230 91.3359375 224 91.3359375 218 c 0
 91.3359375 211 88.3359375 206 84.3359375 201 c 0
 81.3359375 197 77.3359375 194 73.3359375 191 c 0
 67.3359375 187 61.3359375 185 54.3359375 184 c 0
 50.3359375 183 45.3359375 182 41.3359375 181 c 0
 37.3359375 180 33.3359375 179 29.3359375 179 c 0
 20.3359375 177 34.3359375 196 34.3359375 196 c 0
 35.3359375 196 36.3359375 196 37.3359375 196 c 0
 42.3359375 196 45.3359375 197 50.3359375 197 c 0
 57.3359375 197 63.3359375 195 68.3359375 191 c 0
 72.3359375 187 75.3359375 181 78.3359375 176 c 0
 80.3359375 171 83.3359375 166 84.3359375 161 c 0
 85.3359375 156 84.3359375 152 85.3359375 147 c 0
 85.3359375 143 86.3359375 140 87.3359375 136 c 0
 88.3359375 131 90.3359375 127 91.3359375 122 c 0
 92.3359375 117 93.3359375 112 93.3359375 107 c 0
 93.3359375 103 94.3359375 98 95.3359375 94 c 0
 96.3359375 89 96.3359375 85 96.3359375 80 c 0
 97.3359375 76 96.3359375 71 96.3359375 67 c 0
 96.3359375 64 97.3359375 62 96.3359375 59 c 0
 96.3359375 47 77.3359375 46 77.3359375 58 c 1
 77.3359375 60 77.3359375 63 77.3359375 65 c 0
 77.3359375 69 77.3359375 74 76.3359375 78 c 0
 76.3359375 82 76.3359375 86 76.3359375 90 c 0
 75.3359375 95 74.3359375 99 74.3359375 104 c 0
 74.3359375 108 73.3359375 113 72.3359375 117 c 0
 71.3359375 121 70.3359375 126 69.3359375 130 c 0
 68.3359375 135 66.3359375 139 66.3359375 144 c 0
 65.3359375 148 65.3359375 152 65.3359375 156 c 0
 64.3359375 160 63.3359375 164 61.3359375 168 c 0
 59.3359375 171 58.3359375 175 55.3359375 177 c 0
 53.3359375 179 49.3359375 178 47.3359375 178 c 0
 42.3359375 177 37.3359375 178 32.3359375 178 c 0
 31.3359375 178 25.3359375 178 25.3359375 179 c 0
 25.3359375 189 25.3359375 197 31.3359375 198 c 0
 35.3359375 199 39.3359375 199 43.3359375 200 c 0
 47.3359375 201 50.3359375 202 54.3359375 203 c 0
 56.3359375 204 62.3359375 206 54.3359375 203 c 0
 52.3359375 202 61.3359375 205 59.3359375 205 c 1
 62.3359375 206 65.3359375 209 68.3359375 211 c 0
 70.3359375 212 71.3359375 215 72.3359375 217 c 0
 72.3359375 220 72.3359375 224 71.3359375 227 c 0
 70.3359375 230 67.3359375 232 64.3359375 233 c 0
 60.3359375 235 56.3359375 237 52.3359375 237 c 0
 47.3359375 237 44.3359375 238 39.3359375 237 c 0
 35.3359375 237 29.3359375 237 25.3359375 236 c 0
 20.3359375 235 25.3359375 236 28.3359375 238 c 0
 28.3359375 239 l 0
 28.3359375 240 l 0
 27.3359375 239 l 0
 26.3359375 235 27.3359375 231 27.3359375 227 c 0
 27.3359375 222 27.3359375 218 27.3359375 213 c 0
 27.3359375 208 28.3359375 203 28.3359375 198 c 0
 28.3359375 193 28.3359375 189 28.3359375 185 c 0
 29.3359375 180 30.3359375 175 30.3359375 170 c 0
 30.3359375 165 30.3359375 160 30.3359375 155 c 0
 30.3359375 150 30.3359375 144 30.3359375 139 c 0
 30.3359375 133 30.3359375 129 30.3359375 123 c 0
 30.3359375 118 30.3359375 112 29.3359375 107 c 0
 29.3359375 102 29.3359375 97 28.3359375 92 c 0
 28.3359375 88 29.3359375 82 28.3359375 78 c 0
 27.3359375 70 28.3359375 75 9.3359375 74 c 0
 8.3359375 80 l 0
 8.3359375 85 7.3359375 89 7.3359375 94 c 0
 7.3359375 99 7.3359375 105 8.3359375 110 c 0
 8.3359375 115 9.3359375 121 9.3359375 126 c 0
 9.3359375 131 9.3359375 137 9.3359375 142 c 0
 9.3359375 147 9.3359375 153 9.3359375 158 c 0
 9.3359375 163 9.3359375 168 8.3359375 173 c 0
 7.3359375 179 8.3359375 185 7.3359375 191 c 0
 6.3359375 198 5.3359375 204 5.3359375 211 c 0
 4.3359375 218 4.3359375 224 4.3359375 231 c 1
 1.3359375 243 19.3359375 247 22.3359375 235 c 1
EndSplineSet
EndChar

StartChar: S
Encoding: 20 83 20
Width: 90
VWidth: 299
Flags: HW
LayerCount: 2
Fore
SplineSet
65 222 m 1
 64 228 63 234 61 239 c 0
 60 244 57 248 55 252 c 0
 53 255 50 256 47 258 c 0
 45 259 42 262 40 260 c 0
 39 259 33 257 41 259 c 0
 40 259 l 0
 39 258 38 258 37 257 c 0
 34 254 32 251 29 248 c 0
 27 245 25 241 24 237 c 0
 23 233 23 229 23 225 c 0
 23 222 24 219 26 216 c 0
 29 213 32 210 35 207 c 0
 39 203 43 199 47 196 c 0
 50 192 55 188 58 184 c 0
 61 180 64 176 67 172 c 0
 71 167 73 162 76 157 c 0
 79 152 80 146 82 141 c 0
 83 136 84 133 85 128 c 0
 86 123 86 118 86 113 c 0
 86 107 83 102 80 97 c 0
 77 93 73 90 70 86 c 0
 66 81 60 77 54 75 c 0
 45 71 38 71 29 75 c 0
 24 78 20 82 17 87 c 0
 14 91 12 95 10 99 c 0
 8 104 6 109 5 114 c 0
 4 119 4 123 4 128 c 0
 4 132 4 135 4 139 c 0
 5 151 24 149 23 137 c 1
 22 134 23 132 23 129 c 0
 23 125 23 121 24 117 c 0
 24 114 26 111 27 108 c 0
 29 104 31 100 33 97 c 0
 35 95 36 92 39 91 c 0
 42 90 49 92 42 90 c 1
 46 91 50 93 53 96 c 0
 56 99 58 102 62 105 c 0
 64 107 66 110 67 113 c 0
 68 117 67 120 66 124 c 0
 65 128 64 132 63 136 c 0
 62 141 60 145 58 149 c 0
 56 154 53 158 50 162 c 0
 48 166 45 170 42 173 c 0
 39 176 35 180 32 183 c 0
 28 186 25 190 21 193 c 0
 16 197 12 202 9 207 c 0
 6 212 5 217 4 223 c 0
 4 228 4 234 5 239 c 0
 6 245 7 250 10 255 c 0
 13 260 18 265 22 269 c 0
 28 274 34 278 42 279 c 0
 48 279 55 277 60 273 c 0
 65 270 69 266 72 261 c 0
 75 256 77 251 79 245 c 0
 81 239 83 233 83 226 c 1
 86 214 68 210 65 222 c 1
EndSplineSet
EndChar

StartChar: T
Encoding: 21 84 21
Width: 113
VWidth: 299
Flags: HW
LayerCount: 2
Fore
SplineSet
105.515625 268 m 1
 104.515625 269 102.515625 270 100.515625 270 c 0
 98.515625 269 94.515625 269 92.515625 269 c 0
 88.515625 269 83.515625 268 79.515625 267 c 0
 74.515625 267 70.515625 268 65.515625 268 c 0
 60.515625 267 56.515625 268 51.515625 268 c 0
 45.515625 268 40.515625 269 34.515625 268 c 0
 27.515625 267 20.515625 268 13.515625 266 c 1
 1.515625 267 0.515625 248 12.515625 247 c 0
 18.515625 247 25.515625 248 31.515625 249 c 0
 33.515625 249 35.515625 249 37.515625 249 c 1
 37.515625 244 38.515625 239 38.515625 234 c 0
 38.515625 228 37.515625 223 37.515625 217 c 0
 37.515625 212 38.515625 206 38.515625 201 c 0
 38.515625 196 38.515625 191 38.515625 186 c 0
 38.515625 182 38.515625 176 38.515625 172 c 0
 38.515625 167 39.515625 162 39.515625 157 c 0
 39.515625 152 39.515625 146 40.515625 141 c 0
 41.515625 136 42.515625 132 43.515625 127 c 0
 44.515625 123 44.515625 119 45.515625 115 c 0
 46.515625 111 46.515625 106 47.515625 102 c 0
 48.515625 98 49.515625 94 49.515625 90 c 0
 49.515625 86 49.515625 83 49.515625 79 c 0
 49.515625 78 49.515625 78 49.515625 77 c 0
 49.515625 65 68.515625 66 68.515625 78 c 0
 68.515625 79 l 0
 68.515625 84 68.515625 88 68.515625 93 c 0
 68.515625 97 67.515625 102 66.515625 106 c 0
 65.515625 110 65.515625 114 64.515625 118 c 0
 63.515625 122 63.515625 127 62.515625 131 c 0
 61.515625 135 61.515625 140 60.515625 144 c 0
 59.515625 149 58.515625 154 58.515625 159 c 0
 58.515625 164 57.515625 169 57.515625 174 c 0
 57.515625 179 57.515625 183 57.515625 188 c 0
 57.515625 193 57.515625 197 57.515625 202 c 0
 57.515625 207 57.515625 213 57.515625 218 c 0
 57.515625 224 58.515625 230 58.515625 236 c 0
 58.515625 240 57.515625 245 57.515625 249 c 1
 58.515625 249 61.515625 249 62.515625 249 c 0
 67.515625 249 70.515625 249 75.515625 249 c 0
 79.515625 249 84.515625 250 88.515625 250 c 0
 92.515625 250 95.515625 249 99.515625 250 c 0
 109.515625 250 111.515625 263 105.515625 268 c 1
EndSplineSet
EndChar

StartChar: U
Encoding: 22 85 22
Width: 100
VWidth: 299
Flags: HW
LayerCount: 2
Fore
SplineSet
26.4443359375 254 m 1
 27.4443359375 247 27.4443359375 240 27.4443359375 233 c 0
 27.4443359375 226 26.4443359375 221 26.4443359375 214 c 0
 26.4443359375 208 25.4443359375 201 24.4443359375 195 c 0
 24.4443359375 190 24.4443359375 184 24.4443359375 179 c 0
 24.4443359375 174 24.4443359375 168 24.4443359375 163 c 0
 24.4443359375 158 24.4443359375 154 24.4443359375 149 c 0
 24.4443359375 145 25.4443359375 141 26.4443359375 137 c 0
 27.4443359375 133 27.4443359375 128 28.4443359375 124 c 0
 29.4443359375 119 30.4443359375 114 31.4443359375 110 c 0
 32.4443359375 106 35.4443359375 105 38.4443359375 102 c 0
 41.4443359375 99 44.4443359375 97 48.4443359375 96 c 0
 51.4443359375 96 54.4443359375 96 57.4443359375 97 c 1
 49.4443359375 95 53.4443359375 96 55.4443359375 97 c 0
 57.4443359375 98 58.4443359375 100 59.4443359375 101 c 0
 62.4443359375 104 64.4443359375 107 66.4443359375 111 c 0
 68.4443359375 115 69.4443359375 119 70.4443359375 123 c 0
 71.4443359375 127 72.4443359375 132 72.4443359375 136 c 0
 72.4443359375 141 73.4443359375 146 73.4443359375 151 c 0
 74.4443359375 156 75.4443359375 162 75.4443359375 167 c 0
 75.4443359375 172 76.4443359375 177 76.4443359375 182 c 0
 76.4443359375 187 76.4443359375 193 76.4443359375 198 c 0
 76.4443359375 203 76.4443359375 208 76.4443359375 213 c 0
 76.4443359375 217 76.4443359375 222 76.4443359375 226 c 0
 76.4443359375 231 76.4443359375 236 76.4443359375 241 c 0
 76.4443359375 246 76.4443359375 252 76.4443359375 257 c 0
 76.4443359375 258 76.4443359375 258 76.4443359375 259 c 0
 77.4443359375 271 96.4443359375 270 95.4443359375 258 c 1
 95.4443359375 257 l 0
 95.4443359375 252 96.4443359375 248 95.4443359375 243 c 0
 95.4443359375 238 96.4443359375 234 96.4443359375 229 c 0
 96.4443359375 224 96.4443359375 219 96.4443359375 214 c 0
 96.4443359375 209 96.4443359375 203 96.4443359375 198 c 0
 96.4443359375 193 95.4443359375 188 95.4443359375 183 c 0
 95.4443359375 178 95.4443359375 173 94.4443359375 168 c 0
 94.4443359375 162 93.4443359375 157 92.4443359375 151 c 0
 91.4443359375 146 91.4443359375 140 91.4443359375 135 c 0
 90.4443359375 130 90.4443359375 126 89.4443359375 121 c 0
 88.4443359375 116 87.4443359375 111 85.4443359375 106 c 0
 83.4443359375 100 80.4443359375 95 76.4443359375 91 c 0
 70.4443359375 85 65.4443359375 80 56.4443359375 78 c 0
 50.4443359375 77 45.4443359375 77 39.4443359375 79 c 0
 33.4443359375 81 28.4443359375 84 24.4443359375 89 c 0
 20.4443359375 93 15.4443359375 98 13.4443359375 104 c 0
 11.4443359375 109 10.4443359375 114 9.4443359375 120 c 0
 9.4443359375 124 8.4443359375 129 7.4443359375 133 c 0
 6.4443359375 138 5.4443359375 142 5.4443359375 147 c 0
 5.4443359375 152 4.4443359375 158 4.4443359375 163 c 0
 4.4443359375 168 4.4443359375 173 4.4443359375 178 c 0
 4.4443359375 184 3.4443359375 189 4.4443359375 195 c 0
 4.4443359375 201 5.4443359375 207 6.4443359375 213 c 0
 6.4443359375 219 6.4443359375 226 6.4443359375 232 c 0
 6.4443359375 239 6.4443359375 246 7.4443359375 253 c 1
 6.4443359375 265 25.4443359375 266 26.4443359375 254 c 1
EndSplineSet
EndChar

StartChar: V
Encoding: 23 86 23
Width: 104
VWidth: 299
Flags: HW
LayerCount: 2
Fore
SplineSet
22.3359375 260 m 1
 25.3359375 253 28.3359375 246 30.3359375 239 c 0
 32.3359375 232 33.3359375 227 35.3359375 220 c 0
 37.3359375 213 39.3359375 206 40.3359375 199 c 0
 41.3359375 193 43.3359375 187 44.3359375 181 c 0
 45.3359375 176 46.3359375 171 46.3359375 166 c 0
 46.3359375 161 46.3359375 158 47.3359375 153 c 0
 48.3359375 147 49.3359375 140 50.3359375 134 c 0
 51.3359375 128 53.3359375 122 54.3359375 116 c 0
 55.3359375 111 55.3359375 107 56.3359375 102 c 0
 57.3359375 98 59.3359375 95 60.3359375 91 c 0
 62.3359375 87 59.3359375 94 56.3359375 93 c 0
 53.3359375 92 51.3359375 90 49.3359375 89 c 1
 50.3359375 92 50.3359375 95 51.3359375 98 c 0
 52.3359375 103 53.3359375 108 54.3359375 113 c 0
 55.3359375 119 56.3359375 124 57.3359375 130 c 0
 58.3359375 136 60.3359375 143 61.3359375 149 c 0
 62.3359375 154 63.3359375 159 64.3359375 164 c 0
 65.3359375 169 66.3359375 174 67.3359375 179 c 0
 68.3359375 184 69.3359375 189 70.3359375 194 c 0
 71.3359375 199 71.3359375 204 72.3359375 209 c 0
 73.3359375 214 73.3359375 218 74.3359375 223 c 0
 75.3359375 228 75.3359375 232 76.3359375 237 c 0
 77.3359375 242 78.3359375 247 79.3359375 252 c 0
 80.3359375 256 80.3359375 260 81.3359375 264 c 0
 81.3359375 265 82.3359375 265 82.3359375 266 c 0
 82.3359375 278 100.3359375 278 100.3359375 266 c 1
 100.3359375 265 l 0
 100.3359375 260 99.3359375 255 98.3359375 250 c 0
 97.3359375 245 97.3359375 241 96.3359375 236 c 0
 95.3359375 231 95.3359375 227 94.3359375 222 c 0
 93.3359375 217 93.3359375 212 92.3359375 207 c 0
 91.3359375 202 90.3359375 198 89.3359375 193 c 0
 88.3359375 188 87.3359375 181 86.3359375 176 c 0
 85.3359375 171 84.3359375 167 84.3359375 162 c 0
 83.3359375 157 82.3359375 151 81.3359375 146 c 0
 79.3359375 140 79.3359375 134 77.3359375 128 c 0
 76.3359375 123 75.3359375 117 74.3359375 112 c 0
 73.3359375 106 71.3359375 101 70.3359375 95 c 0
 69.3359375 89 68.3359375 84 64.3359375 79 c 1
 61.3359375 77 59.3359375 75 56.3359375 74 c 0
 50.3359375 72 43.3359375 80 41.3359375 85 c 0
 40.3359375 90 38.3359375 94 37.3359375 99 c 0
 36.3359375 104 35.3359375 107 34.3359375 112 c 0
 33.3359375 118 31.3359375 125 30.3359375 131 c 0
 29.3359375 137 29.3359375 143 28.3359375 149 c 0
 27.3359375 154 27.3359375 159 27.3359375 164 c 0
 27.3359375 169 26.3359375 173 25.3359375 177 c 0
 24.3359375 183 22.3359375 188 21.3359375 194 c 0
 19.3359375 201 17.3359375 207 16.3359375 214 c 0
 15.3359375 220 13.3359375 227 11.3359375 233 c 0
 8.3359375 240 6.3359375 247 4.3359375 254 c 0
 1.3359375 266 19.3359375 272 22.3359375 260 c 1
EndSplineSet
EndChar

StartChar: W
Encoding: 24 87 24
Width: 106
VWidth: 299
Flags: HW
LayerCount: 2
Fore
SplineSet
23.3203125 248 m 1
 25.3203125 241 27.3203125 233 28.3203125 225 c 0
 29.3203125 218 30.3203125 211 31.3203125 204 c 0
 32.3203125 199 32.3203125 195 33.3203125 190 c 0
 34.3203125 185 35.3203125 180 35.3203125 175 c 0
 35.3203125 171 35.3203125 166 36.3203125 162 c 0
 37.3203125 157 38.3203125 151 38.3203125 146 c 0
 38.3203125 141 38.3203125 138 39.3203125 133 c 0
 40.3203125 128 41.3203125 123 41.3203125 118 c 0
 41.3203125 114 41.3203125 110 42.3203125 106 c 0
 43.3203125 101 45.3203125 97 46.3203125 92 c 0
 48.3203125 83 48.3203125 86 43.3203125 90 c 1
 40.3203125 89 37.3203125 89 34.3203125 88 c 0
 33.3203125 88 33.3203125 87 32.3203125 86 c 0
 32.3203125 86 32.3203125 86 32.3203125 87 c 0
 32.3203125 89 32.3203125 90 33.3203125 92 c 0
 34.3203125 97 36.3203125 102 37.3203125 107 c 0
 38.3203125 112 39.3203125 116 40.3203125 121 c 0
 41.3203125 126 43.3203125 132 46.3203125 137 c 0
 50.3203125 144 58.3203125 148 65.3203125 142 c 0
 66.3203125 141 67.3203125 140 68.3203125 139 c 0
 70.3203125 135 72.3203125 131 73.3203125 127 c 0
 75.3203125 123 74.3203125 119 76.3203125 115 c 0
 77.3203125 111 79.3203125 106 81.3203125 102 c 0
 83.3203125 97 85.3203125 93 88.3203125 89 c 0
 89.3203125 88 l 0
 87.3203125 91 83.3203125 89 80.3203125 88 c 0
 79.3203125 88 78.3203125 87 78.3203125 86 c 0
 78.3203125 84 78.3203125 92 78.3203125 92 c 0
 78.3203125 97 78.3203125 100 78.3203125 105 c 0
 78.3203125 110 78.3203125 116 78.3203125 121 c 0
 78.3203125 126 78.3203125 132 78.3203125 137 c 0
 78.3203125 142 78.3203125 147 78.3203125 152 c 0
 78.3203125 157 78.3203125 161 78.3203125 166 c 0
 78.3203125 171 78.3203125 177 78.3203125 182 c 0
 78.3203125 188 79.3203125 193 79.3203125 199 c 0
 80.3203125 204 81.3203125 209 81.3203125 214 c 0
 81.3203125 219 82.3203125 222 82.3203125 227 c 0
 82.3203125 232 82.3203125 237 82.3203125 242 c 0
 82.3203125 246 82.3203125 250 82.3203125 254 c 0
 82.3203125 266 102.3203125 266 102.3203125 254 c 1
 102.3203125 250 101.3203125 246 101.3203125 242 c 0
 100.3203125 237 101.3203125 234 101.3203125 229 c 0
 101.3203125 224 100.3203125 218 100.3203125 213 c 0
 99.3203125 208 100.3203125 204 99.3203125 199 c 0
 99.3203125 194 98.3203125 188 98.3203125 183 c 0
 98.3203125 178 98.3203125 172 98.3203125 167 c 0
 98.3203125 162 98.3203125 158 98.3203125 153 c 0
 98.3203125 148 98.3203125 143 98.3203125 138 c 0
 98.3203125 133 98.3203125 127 98.3203125 122 c 0
 98.3203125 117 97.3203125 112 97.3203125 107 c 0
 97.3203125 102 98.3203125 98 98.3203125 93 c 0
 98.3203125 88 97.3203125 83 95.3203125 78 c 0
 94.3203125 77 94.3203125 75 93.3203125 74 c 0
 84.3203125 69 77.3203125 72 71.3203125 79 c 0
 68.3203125 84 65.3203125 89 63.3203125 95 c 0
 61.3203125 99 59.3203125 104 58.3203125 108 c 0
 56.3203125 112 56.3203125 117 55.3203125 121 c 0
 54.3203125 124 52.3203125 127 51.3203125 130 c 1
 55.3203125 126 62.3203125 126 65.3203125 131 c 0
 65.3203125 131 62.3203125 131 64.3203125 131 c 1
 62.3203125 127 60.3203125 123 59.3203125 119 c 0
 58.3203125 114 57.3203125 109 56.3203125 104 c 0
 55.3203125 99 54.3203125 94 52.3203125 89 c 0
 51.3203125 86 49.3203125 77 47.3203125 76 c 0
 44.3203125 74 40.3203125 74 36.3203125 73 c 1
 29.3203125 77 29.3203125 80 27.3203125 87 c 0
 26.3203125 92 24.3203125 96 23.3203125 101 c 0
 22.3203125 106 21.3203125 111 21.3203125 116 c 0
 21.3203125 120 21.3203125 125 20.3203125 129 c 0
 19.3203125 134 18.3203125 139 18.3203125 144 c 0
 18.3203125 149 17.3203125 153 17.3203125 158 c 0
 16.3203125 163 16.3203125 168 16.3203125 173 c 0
 16.3203125 177 15.3203125 181 14.3203125 185 c 0
 13.3203125 190 12.3203125 195 11.3203125 200 c 0
 10.3203125 207 9.3203125 214 8.3203125 221 c 0
 7.3203125 229 4.3203125 236 4.3203125 244 c 1
 1.3203125 256 20.3203125 260 23.3203125 248 c 1
EndSplineSet
EndChar

StartChar: X
Encoding: 25 88 25
Width: 124
VWidth: 299
Flags: HW
LayerCount: 2
Fore
SplineSet
91.91015625 274 m 1
 87.91015625 274 84.91015625 272 83.91015625 267 c 0
 83.91015625 266 82.91015625 267 82.91015625 266 c 0
 80.91015625 261 77.91015625 256 75.91015625 251 c 0
 73.91015625 246 70.91015625 241 68.91015625 236 c 0
 66.91015625 231 65.91015625 226 63.91015625 221 c 0
 61.91015625 216 59.91015625 212 58.91015625 207 c 0
 57.91015625 204 55.91015625 201 54.91015625 198 c 1
 52.91015625 202 50.91015625 205 48.91015625 209 c 0
 45.91015625 214 43.91015625 220 41.91015625 226 c 0
 38.91015625 232 36.91015625 239 33.91015625 245 c 0
 30.91015625 252 25.91015625 259 21.91015625 265 c 1
 16.91015625 276 -0.08984375 268 4.91015625 257 c 0
 7.91015625 250 11.91015625 243 14.91015625 236 c 0
 17.91015625 230 20.91015625 223 23.91015625 217 c 0
 25.91015625 212 27.91015625 206 30.91015625 201 c 0
 33.91015625 196 36.91015625 191 38.91015625 186 c 0
 40.91015625 182 42.91015625 177 44.91015625 173 c 1
 43.91015625 169 41.91015625 166 40.91015625 162 c 0
 39.91015625 157 37.91015625 152 36.91015625 147 c 0
 34.91015625 142 34.91015625 136 32.91015625 131 c 0
 31.91015625 126 29.91015625 121 28.91015625 116 c 0
 27.91015625 111 24.91015625 106 22.91015625 101 c 0
 19.91015625 95 16.91015625 90 14.91015625 84 c 1
 10.91015625 72 28.91015625 66 32.91015625 78 c 1
 36.91015625 84 39.91015625 90 42.91015625 96 c 0
 45.91015625 102 45.91015625 107 47.91015625 113 c 0
 48.91015625 118 50.91015625 123 51.91015625 128 c 0
 53.91015625 133 53.91015625 138 55.91015625 143 c 0
 55.91015625 145 57.91015625 146 57.91015625 148 c 1
 59.91015625 145 60.91015625 141 62.91015625 138 c 0
 65.91015625 132 69.91015625 126 73.91015625 121 c 0
 76.91015625 117 78.91015625 112 81.91015625 108 c 0
 84.91015625 103 88.91015625 99 91.91015625 94 c 0
 94.91015625 90 97.91015625 85 100.91015625 81 c 0
 101.91015625 80 l 0
 101.91015625 81 l 1
 106.91015625 71 123.91015625 79 118.91015625 89 c 0
 117.91015625 91 117.91015625 90 116.91015625 92 c 0
 113.91015625 96 110.91015625 101 107.91015625 105 c 0
 104.91015625 109 101.91015625 113 98.91015625 118 c 0
 95.91015625 123 93.91015625 127 90.91015625 132 c 0
 86.91015625 137 83.91015625 142 80.91015625 147 c 0
 77.91015625 152 75.91015625 157 72.91015625 162 c 0
 70.91015625 166 68.91015625 171 66.91015625 175 c 1
 68.91015625 180 69.91015625 184 71.91015625 189 c 0
 72.91015625 194 75.91015625 198 77.91015625 203 c 0
 79.91015625 208 80.91015625 212 82.91015625 217 c 0
 84.91015625 222 86.91015625 226 88.91015625 231 c 0
 91.91015625 236 92.91015625 241 94.91015625 246 c 0
 97.91015625 251 99.91015625 256 101.91015625 261 c 0
 101.91015625 262 101.91015625 262 101.91015625 263 c 0
 103.91015625 270 97.91015625 274 91.91015625 274 c 1
EndSplineSet
EndChar

StartChar: Y
Encoding: 26 89 26
Width: 113
VWidth: 299
Flags: HW
LayerCount: 2
Fore
SplineSet
104.262695312 266 m 1
 99.2626953125 269 92.2626953125 267 90.2626953125 260 c 0
 87.2626953125 256 86.2626953125 252 84.2626953125 248 c 0
 81.2626953125 243 78.2626953125 239 76.2626953125 234 c 0
 74.2626953125 229 71.2626953125 225 68.2626953125 220 c 0
 65.2626953125 215 63.2626953125 211 61.2626953125 206 c 0
 60.2626953125 204 59.2626953125 202 58.2626953125 201 c 1
 57.2626953125 203 56.2626953125 205 54.2626953125 207 c 0
 51.2626953125 211 47.2626953125 215 44.2626953125 220 c 0
 40.2626953125 224 37.2626953125 230 34.2626953125 235 c 0
 30.2626953125 241 27.2626953125 247 22.2626953125 252 c 1
 16.2626953125 263 -0.7373046875 254 5.2626953125 243 c 0
 8.2626953125 237 12.2626953125 231 16.2626953125 225 c 0
 20.2626953125 219 24.2626953125 213 28.2626953125 208 c 0
 31.2626953125 204 35.2626953125 200 38.2626953125 196 c 0
 41.2626953125 192 43.2626953125 188 47.2626953125 184 c 0
 48.2626953125 184 l 0
 47.2626953125 178 47.2626953125 173 47.2626953125 167 c 0
 47.2626953125 162 47.2626953125 155 47.2626953125 150 c 0
 47.2626953125 145 47.2626953125 141 47.2626953125 136 c 0
 47.2626953125 132 46.2626953125 128 46.2626953125 124 c 0
 46.2626953125 119 46.2626953125 113 46.2626953125 108 c 0
 46.2626953125 103 46.2626953125 97 46.2626953125 92 c 0
 46.2626953125 87 46.2626953125 83 46.2626953125 78 c 0
 46.2626953125 75 46.2626953125 72 46.2626953125 69 c 0
 47.2626953125 57 66.2626953125 58 65.2626953125 70 c 0
 66.2626953125 73 65.2626953125 78 65.2626953125 81 c 0
 65.2626953125 85 65.2626953125 90 65.2626953125 94 c 0
 65.2626953125 99 65.2626953125 104 65.2626953125 109 c 0
 65.2626953125 114 66.2626953125 119 66.2626953125 124 c 0
 66.2626953125 129 66.2626953125 133 66.2626953125 138 c 0
 66.2626953125 142 66.2626953125 147 66.2626953125 151 c 0
 66.2626953125 157 67.2626953125 162 67.2626953125 168 c 0
 67.2626953125 173 67.2626953125 178 67.2626953125 183 c 1
 69.2626953125 184 71.2626953125 185 72.2626953125 187 c 0
 75.2626953125 191 78.2626953125 195 80.2626953125 200 c 0
 82.2626953125 204 84.2626953125 209 87.2626953125 213 c 0
 90.2626953125 218 93.2626953125 223 95.2626953125 228 c 0
 97.2626953125 233 100.262695312 237 102.262695312 242 c 0
 103.262695312 246 107.262695312 251 108.262695312 255 c 0
 108.262695312 256 108.262695312 256 108.262695312 257 c 0
 109.262695312 261 107.262695312 264 104.262695312 266 c 1
61.2626953125 199 m 1
 61.2626953125 199 62.2626953125 198 62.2626953125 197 c 1
 61.2626953125 198 61.2626953125 198 60.2626953125 199 c 1
 61.2626953125 199 l 1
EndSplineSet
EndChar

StartChar: Z
Encoding: 27 90 27
Width: 113
VWidth: 299
Flags: HW
LayerCount: 2
Fore
SplineSet
94.5361328125 269 m 1
 93.5361328125 270 93.5361328125 271 92.5361328125 271 c 0
 87.5361328125 272 82.5361328125 272 77.5361328125 271 c 0
 73.5361328125 270 67.5361328125 269 63.5361328125 269 c 0
 58.5361328125 268 54.5361328125 269 49.5361328125 269 c 0
 44.5361328125 268 39.5361328125 270 34.5361328125 269 c 0
 28.5361328125 269 22.5361328125 269 16.5361328125 269 c 1
 5.5361328125 274 -1.4638671875 257 9.5361328125 252 c 0
 16.5361328125 250 23.5361328125 250 30.5361328125 250 c 0
 35.5361328125 250 41.5361328125 250 46.5361328125 250 c 0
 51.5361328125 250 55.5361328125 250 60.5361328125 250 c 0
 65.5361328125 250 69.5361328125 251 74.5361328125 251 c 0
 75.5361328125 251 77.5361328125 252 80.5361328125 252 c 1
 79.5361328125 249 78.5361328125 247 77.5361328125 244 c 0
 75.5361328125 239 73.5361328125 234 71.5361328125 229 c 0
 69.5361328125 224 67.5361328125 220 65.5361328125 215 c 0
 63.5361328125 210 61.5361328125 205 59.5361328125 200 c 0
 56.5361328125 195 54.5361328125 189 52.5361328125 184 c 0
 50.5361328125 180 48.5361328125 176 46.5361328125 172 c 1
 40.5361328125 171 36.5361328125 170 30.5361328125 169 c 1
 18.5361328125 170 16.5361328125 151 28.5361328125 150 c 0
 32.5361328125 150 35.5361328125 150 39.5361328125 151 c 1
 37.5361328125 147 37.5361328125 142 35.5361328125 138 c 0
 33.5361328125 133 31.5361328125 129 30.5361328125 124 c 0
 28.5361328125 120 27.5361328125 114 26.5361328125 110 c 0
 24.5361328125 106 22.5361328125 102 20.5361328125 98 c 0
 17.5361328125 93 15.5361328125 89 13.5361328125 84 c 0
 11.5361328125 76 15.5361328125 69 22.5361328125 66 c 0
 27.5361328125 64 31.5361328125 65 36.5361328125 65 c 0
 40.5361328125 65 45.5361328125 66 49.5361328125 67 c 0
 53.5361328125 68 57.5361328125 69 61.5361328125 69 c 0
 66.5361328125 69 71.5361328125 69 76.5361328125 69 c 0
 80.5361328125 69 85.5361328125 69 89.5361328125 69 c 0
 92.5361328125 69 96.5361328125 69 99.5361328125 69 c 0
 111.536132812 68 112.536132812 87 100.536132812 88 c 1
 104.536132812 87 93.5361328125 88 93.5361328125 88 c 0
 88.5361328125 88 84.5361328125 88 79.5361328125 88 c 0
 74.5361328125 87 69.5361328125 88 64.5361328125 88 c 0
 59.5361328125 87 55.5361328125 87 50.5361328125 86 c 0
 46.5361328125 85 42.5361328125 85 38.5361328125 84 c 0
 37.5361328125 84 35.5361328125 84 34.5361328125 84 c 1
 35.5361328125 87 36.5361328125 89 38.5361328125 91 c 0
 41.5361328125 96 43.5361328125 101 45.5361328125 107 c 0
 46.5361328125 112 48.5361328125 116 49.5361328125 121 c 0
 51.5361328125 125 52.5361328125 130 54.5361328125 134 c 0
 56.5361328125 139 57.5361328125 144 59.5361328125 149 c 0
 59.5361328125 151 60.5361328125 152 61.5361328125 153 c 0
 62.5361328125 153 61.5361328125 153 62.5361328125 153 c 0
 66.5361328125 153 64.5361328125 154 68.5361328125 154 c 0
 80.5361328125 153 82.5361328125 172 70.5361328125 173 c 0
 69.5361328125 173 68.5361328125 173 68.5361328125 173 c 1
 69.5361328125 175 70.5361328125 177 71.5361328125 179 c 0
 73.5361328125 184 76.5361328125 190 78.5361328125 195 c 0
 80.5361328125 200 82.5361328125 205 84.5361328125 210 c 0
 86.5361328125 215 88.5361328125 220 90.5361328125 225 c 0
 92.5361328125 230 95.5361328125 235 96.5361328125 240 c 0
 97.5361328125 244 99.5361328125 248 100.536132812 253 c 0
 101.536132812 260 99.5361328125 265 94.5361328125 269 c 1
EndSplineSet
EndChar

StartChar: Aacute
Encoding: 29 193 29
Width: 117
VWidth: 299
Flags: HW
LayerCount: 2
Fore
SplineSet
84 298 m 0
 81 298 79 297 77 294 c 0
 74 291 71 288 68 285 c 0
 64 280 60 275 56 270 c 0
 50 260 66 250 72 260 c 1
 77 265 82 270 86 276 c 0
 88 279 91 280 93 283 c 0
 98 290 91 298 84 298 c 0
60 236 m 1
 56 236 52 235 48 232 c 0
 43 228 40 225 36 220 c 0
 32 215 30 209 27 204 c 0
 25 199 23 195 21 190 c 0
 19 185 17 179 16 174 c 0
 15 168 13 163 12 157 c 0
 11 152 11 148 10 143 c 0
 9 138 9 135 9 130 c 0
 8 125 8 120 8 115 c 0
 8 110 8 104 8 99 c 0
 8 94 7 88 6 83 c 0
 5 76 4 70 4 63 c 0
 5 51 24 52 23 64 c 1
 24 70 26 77 26 83 c 0
 27 89 27 94 27 100 c 0
 28 105 27 111 27 116 c 0
 27 119 28 122 28 125 c 1
 33 126 37 126 42 127 c 0
 48 128 54 129 60 130 c 0
 65 130 70 130 75 131 c 0
 78 131 82 133 85 133 c 1
 86 130 87 127 88 124 c 0
 89 120 89 116 90 112 c 0
 91 108 91 103 91 99 c 0
 91 94 92 91 92 86 c 0
 92 81 93 76 94 72 c 1
 91 62 107 56 112 66 c 0
 113 70 114 72 113 76 c 0
 112 80 111 84 111 88 c 0
 111 93 110 97 110 102 c 0
 110 106 110 111 109 115 c 0
 108 119 107 124 106 128 c 0
 105 131 106 133 105 136 c 1
 110 140 109 151 100 152 c 0
 100 153 99 154 99 155 c 0
 98 160 96 165 95 169 c 0
 94 173 94 177 93 181 c 0
 92 185 92 189 91 193 c 0
 90 197 89 202 88 206 c 0
 87 211 86 215 84 219 c 0
 82 224 78 229 73 232 c 1
 69 234 64 236 60 236 c 1
62 219 m 1
 63 219 63 219 63 219 c 2
 63 219 62 218 60 217 c 1
 61 218 61 219 62 219 c 1
61 217 m 2
 62 217 l 0
 63 217 63 216 63 216 c 1
 64 215 65 214 66 212 c 0
 67 209 68 204 69 201 c 0
 70 197 71 193 72 189 c 0
 73 185 73 181 74 177 c 0
 75 173 75 168 76 164 c 0
 77 160 79 155 80 151 c 1
 79 151 79 151 78 151 c 0
 73 151 69 149 64 149 c 0
 58 149 51 149 45 148 c 0
 40 148 35 146 30 145 c 1
 31 149 31 152 32 156 c 0
 33 161 33 166 35 171 c 0
 36 176 38 180 40 184 c 0
 42 189 43 193 45 198 c 0
 47 202 50 207 53 211 c 0
 55 213 57 215 59 217 c 0
 61 217 l 2
95 72 m 2
 95 71 l 0
 95 71 95 71 95 72 c 2
EndSplineSet
EndChar

StartChar: Eacute
Encoding: 30 201 30
Width: 91
VWidth: 299
Flags: HW
LayerCount: 2
Fore
SplineSet
68 297 m 1
 65 297 62 295 60 291 c 0
 59 290 57 289 56 288 c 0
 51 283 46 277 43 270 c 1
 38 259 55 251 60 262 c 1
 64 267 69 273 73 278 c 0
 75 280 76 282 77 285 c 0
 80 292 74 297 68 297 c 1
30 248 m 1
 29 248 28 248 27 248 c 0
 17 248 13 245 8 237 c 0
 6 232 6 227 6 222 c 0
 5 217 6 213 6 208 c 0
 7 203 7 199 7 194 c 0
 7 189 6 184 6 179 c 0
 5 173 6 168 6 162 c 0
 6 157 5 150 5 145 c 0
 5 143 5 141 5 139 c 0
 4 137 4 134 5 132 c 0
 5 131 l 0
 5 126 5 121 5 116 c 0
 5 111 4 104 4 99 c 0
 4 93 4 88 4 82 c 0
 4 77 4 74 4 69 c 0
 4 62 7 56 12 52 c 0
 16 49 22 48 27 47 c 0
 32 46 37 46 42 46 c 0
 47 46 53 47 58 47 c 0
 63 47 68 48 73 49 c 0
 76 49 74 48 77 49 c 0
 89 48 90 67 78 68 c 0
 76 68 77 68 74 68 c 0
 70 67 65 66 61 66 c 0
 56 65 51 66 46 65 c 0
 42 65 38 64 34 65 c 0
 31 66 28 66 25 66 c 0
 25 65 22 69 23 70 c 0
 23 75 23 79 23 84 c 0
 23 89 24 95 24 100 c 0
 24 106 24 111 24 117 c 0
 24 120 25 123 25 126 c 1
 27 126 29 126 31 126 c 0
 37 126 42 127 48 128 c 0
 50 128 54 129 56 129 c 0
 68 128 69 147 57 148 c 0
 55 147 53 148 51 147 c 0
 46 147 41 146 36 146 c 0
 32 146 29 146 25 146 c 1
 25 151 26 157 26 162 c 0
 26 168 26 173 26 179 c 0
 26 184 26 191 26 196 c 0
 26 201 26 206 25 211 c 0
 25 215 25 219 25 223 c 0
 25 225 24 227 25 229 c 1
 28 229 32 230 35 229 c 0
 40 228 46 227 51 226 c 0
 57 225 64 224 70 224 c 1
 81 220 88 235 79 241 c 1
 78 241 78 242 77 242 c 0
 71 244 64 244 58 245 c 0
 53 246 47 246 42 247 c 0
 38 248 34 248 30 248 c 1
26 231 m 2
 26 230 l 0
 25 230 l 1
 26 231 l 2
24 229 m 1
 19 227 21 229 23 229 c 0
 24 229 l 1
EndSplineSet
EndChar

StartChar: Iacute
Encoding: 31 205 31
Width: 77
VWidth: 299
Flags: HW
LayerCount: 2
Fore
SplineSet
58.8798828125 298 m 1
 55.8798828125 298 52.8798828125 297 50.8798828125 294 c 0
 48.8798828125 292 47.8798828125 290 45.8798828125 288 c 0
 41.8798828125 283 36.8798828125 277 32.8798828125 272 c 1
 26.8798828125 262 43.8798828125 252 49.8798828125 262 c 1
 54.8798828125 267 59.8798828125 272 63.8798828125 278 c 0
 65.8798828125 280 66.8798828125 283 67.8798828125 285 c 0
 71.8798828125 292 64.8798828125 298 58.8798828125 298 c 1
36.8798828125 250 m 1
 33.8798828125 250 31.8798828125 250 29.8798828125 248 c 1
 25.8798828125 248 19.8798828125 248 15.8798828125 248 c 1
 3.8798828125 251 -1.1201171875 232 10.8798828125 229 c 0
 15.8798828125 228 20.8798828125 228 26.8798828125 228 c 1
 26.8798828125 225 27.8798828125 223 27.8798828125 220 c 0
 27.8798828125 214 27.8798828125 208 27.8798828125 202 c 0
 27.8798828125 196 27.8798828125 191 27.8798828125 185 c 0
 27.8798828125 180 26.8798828125 175 26.8798828125 170 c 0
 26.8798828125 165 26.8798828125 160 26.8798828125 155 c 0
 26.8798828125 150 26.8798828125 144 26.8798828125 139 c 0
 26.8798828125 134 26.8798828125 129 26.8798828125 124 c 0
 26.8798828125 119 27.8798828125 115 28.8798828125 110 c 0
 29.8798828125 106 29.8798828125 102 30.8798828125 98 c 0
 31.8798828125 94 32.8798828125 90 32.8798828125 86 c 0
 32.8798828125 83 32.8798828125 78 32.8798828125 75 c 1
 27.8798828125 75 23.8798828125 75 18.8798828125 75 c 1
 6.8798828125 78 2.8798828125 60 14.8798828125 57 c 0
 20.8798828125 56 27.8798828125 56 33.8798828125 56 c 0
 39.8798828125 56 45.8798828125 56 51.8798828125 56 c 0
 55.8798828125 56 57.8798828125 58 61.8798828125 58 c 0
 73.8798828125 56 77.8798828125 74 65.8798828125 76 c 0
 61.8798828125 76 57.8798828125 77 53.8798828125 76 c 0
 52.8798828125 76 52.8798828125 76 51.8798828125 76 c 1
 51.8798828125 80 52.8798828125 85 51.8798828125 89 c 0
 50.8798828125 93 50.8798828125 98 49.8798828125 102 c 0
 48.8798828125 106 48.8798828125 110 47.8798828125 114 c 0
 46.8798828125 118 46.8798828125 122 46.8798828125 126 c 0
 46.8798828125 131 46.8798828125 135 46.8798828125 140 c 0
 46.8798828125 145 46.8798828125 151 46.8798828125 156 c 0
 46.8798828125 161 46.8798828125 166 46.8798828125 171 c 0
 46.8798828125 176 46.8798828125 181 46.8798828125 186 c 0
 46.8798828125 192 47.8798828125 197 47.8798828125 203 c 0
 47.8798828125 209 47.8798828125 216 47.8798828125 222 c 0
 47.8798828125 224 47.8798828125 227 47.8798828125 229 c 0
 48.8798828125 229 49.8798828125 229 50.8798828125 229 c 0
 53.8798828125 229 55.8798828125 230 58.8798828125 230 c 0
 68.8798828125 228 72.8798828125 242 65.8798828125 247 c 1
 64.8798828125 248 63.8798828125 248 61.8798828125 248 c 0
 58.8798828125 248 55.8798828125 248 52.8798828125 248 c 0
 49.8798828125 248 46.8798828125 248 43.8798828125 248 c 0
 43.8798828125 248 42.8798828125 249 41.8798828125 249 c 0
 39.8798828125 250 38.8798828125 250 36.8798828125 250 c 1
EndSplineSet
EndChar

StartChar: Oacute
Encoding: 32 211 32
Width: 88
VWidth: 299
Flags: HW
LayerCount: 2
Fore
SplineSet
51.4443359375 301 m 1
 48.4443359375 301 45.4443359375 300 43.4443359375 296 c 0
 39.4443359375 292 35.4443359375 287 32.4443359375 282 c 1
 26.4443359375 271 43.4443359375 261 49.4443359375 272 c 1
 54.4443359375 276 57.4443359375 281 61.4443359375 286 c 0
 65.4443359375 294 58.4443359375 301 51.4443359375 301 c 1
40.4443359375 248 m 0
 32.4443359375 248 25.4443359375 246 19.4443359375 240 c 0
 15.4443359375 236 12.4443359375 230 10.4443359375 224 c 0
 8.4443359375 219 8.4443359375 214 7.4443359375 209 c 0
 6.4443359375 204 5.4443359375 199 4.4443359375 194 c 0
 3.4443359375 189 4.4443359375 183 4.4443359375 178 c 0
 4.4443359375 173 5.4443359375 166 5.4443359375 161 c 0
 6.4443359375 156 6.4443359375 152 6.4443359375 147 c 0
 7.4443359375 142 6.4443359375 138 6.4443359375 133 c 0
 6.4443359375 128 6.4443359375 124 6.4443359375 119 c 0
 6.4443359375 113 7.4443359375 107 9.4443359375 102 c 0
 10.4443359375 97 12.4443359375 93 14.4443359375 88 c 0
 17.4443359375 82 22.4443359375 78 28.4443359375 75 c 0
 33.4443359375 73 38.4443359375 71 43.4443359375 70 c 0
 52.4443359375 68 60.4443359375 69 67.4443359375 74 c 0
 72.4443359375 78 76.4443359375 82 79.4443359375 88 c 0
 82.4443359375 93 84.4443359375 99 84.4443359375 105 c 0
 84.4443359375 110 84.4443359375 115 84.4443359375 120 c 0
 84.4443359375 125 83.4443359375 129 83.4443359375 134 c 0
 83.4443359375 139 82.4443359375 145 81.4443359375 150 c 0
 81.4443359375 155 81.4443359375 159 81.4443359375 164 c 0
 81.4443359375 169 80.4443359375 174 80.4443359375 179 c 0
 80.4443359375 184 79.4443359375 189 79.4443359375 194 c 0
 79.4443359375 200 78.4443359375 206 77.4443359375 212 c 0
 76.4443359375 217 74.4443359375 223 72.4443359375 228 c 0
 70.4443359375 232 68.4443359375 234 65.4443359375 237 c 0
 64.4443359375 239 63.4443359375 241 61.4443359375 242 c 0
 55.4443359375 246 48.4443359375 247 41.4443359375 248 c 0
 40.4443359375 248 41.4443359375 248 40.4443359375 248 c 0
37.4443359375 230 m 0
 37.4443359375 230 36.4443359375 229 35.4443359375 229 c 1
 36.4443359375 229 37.4443359375 229 37.4443359375 229 c 1
 38.4443359375 229 40.4443359375 229 41.4443359375 229 c 0
 42.4443359375 228 43.4443359375 228 44.4443359375 227 c 0
 46.4443359375 226 46.4443359375 226 48.4443359375 226 c 0
 51.4443359375 226 53.4443359375 222 54.4443359375 220 c 0
 56.4443359375 216 57.4443359375 211 58.4443359375 207 c 0
 59.4443359375 202 60.4443359375 197 60.4443359375 192 c 0
 60.4443359375 187 61.4443359375 183 61.4443359375 178 c 0
 61.4443359375 173 61.4443359375 168 61.4443359375 163 c 0
 61.4443359375 158 61.4443359375 152 62.4443359375 147 c 0
 62.4443359375 142 63.4443359375 137 63.4443359375 132 c 0
 63.4443359375 127 64.4443359375 122 64.4443359375 117 c 0
 64.4443359375 113 64.4443359375 108 64.4443359375 104 c 0
 64.4443359375 101 63.4443359375 98 61.4443359375 95 c 0
 59.4443359375 92 56.4443359375 90 53.4443359375 88 c 0
 50.4443359375 87 54.4443359375 88 56.4443359375 88 c 0
 58.4443359375 88 47.4443359375 85 50.4443359375 88 c 1
 46.4443359375 89 42.4443359375 91 38.4443359375 92 c 0
 35.4443359375 93 33.4443359375 95 31.4443359375 97 c 0
 29.4443359375 100 29.4443359375 104 28.4443359375 108 c 0
 27.4443359375 112 27.4443359375 116 26.4443359375 120 c 0
 26.4443359375 125 26.4443359375 130 26.4443359375 135 c 0
 26.4443359375 140 26.4443359375 144 25.4443359375 149 c 0
 25.4443359375 154 25.4443359375 159 24.4443359375 164 c 0
 24.4443359375 169 24.4443359375 174 24.4443359375 179 c 0
 24.4443359375 184 23.4443359375 188 24.4443359375 193 c 0
 24.4443359375 198 25.4443359375 202 26.4443359375 207 c 0
 27.4443359375 211 27.4443359375 216 29.4443359375 220 c 0
 30.4443359375 223 32.4443359375 227 34.4443359375 229 c 1
 33.4443359375 229 32.4443359375 228 31.4443359375 228 c 0
 30.4443359375 228 33.4443359375 229 35.4443359375 229 c 0
 36.4443359375 229 37.4443359375 230 37.4443359375 230 c 0
35.4443359375 229 m 1
 34.4443359375 229 l 0
 35.4443359375 229 l 1
EndSplineSet
EndChar

StartChar: Uacute
Encoding: 33 218 33
Width: 98
VWidth: 299
Flags: HW
LayerCount: 2
Fore
SplineSet
76 299 m 1
 73 299 69 297 67 293 c 0
 65 292 64 291 63 289 c 0
 58 283 52 277 49 270 c 1
 44 259 62 251 67 262 c 1
 72 268 75 273 80 279 c 0
 82 281 84 283 85 286 c 0
 88 293 82 299 76 299 c 1
16 260 m 0
 11 260 7 256 7 250 c 1
 5 244 5 237 5 231 c 0
 4 226 5 221 4 216 c 0
 4 211 4 207 4 202 c 0
 4 197 4 193 4 188 c 0
 4 183 4 177 4 172 c 0
 5 167 5 162 5 157 c 0
 5 152 5 147 5 142 c 0
 5 137 6 133 6 128 c 0
 7 123 8 117 9 112 c 0
 11 107 14 103 16 98 c 0
 18 93 22 88 26 84 c 0
 31 79 36 76 42 74 c 0
 51 72 60 75 68 80 c 0
 74 84 77 90 81 96 c 0
 84 102 85 108 87 114 c 0
 88 119 89 125 89 130 c 0
 89 135 90 139 90 144 c 0
 90 149 90 153 90 158 c 0
 90 162 90 167 90 171 c 0
 90 176 91 180 91 185 c 0
 91 190 91 196 92 201 c 0
 92 207 93 212 93 218 c 0
 93 223 94 227 94 232 c 0
 93 236 93 241 93 245 c 0
 93 248 93 249 92 252 c 0
 89 264 70 260 73 248 c 0
 73 246 74 245 74 243 c 0
 74 239 75 234 75 230 c 0
 75 225 74 222 74 217 c 0
 74 212 73 207 73 202 c 0
 72 196 71 191 71 185 c 0
 71 180 70 175 70 170 c 0
 70 166 70 161 70 157 c 0
 70 152 70 148 70 143 c 0
 70 139 70 134 70 130 c 0
 70 126 69 122 68 118 c 0
 66 113 64 107 62 103 c 0
 60 99 57 96 53 94 c 0
 49 92 53 94 55 94 c 0
 56 94 54 94 54 94 c 0
 53 93 53 93 51 93 c 0
 50 92 l 0
 47 92 44 95 41 97 c 0
 38 100 35 102 33 106 c 0
 31 110 29 113 28 117 c 0
 27 121 26 126 25 130 c 0
 25 135 25 140 25 145 c 0
 25 150 24 154 24 159 c 0
 24 164 24 168 24 173 c 0
 24 178 24 184 24 189 c 0
 24 194 23 198 23 203 c 0
 23 207 24 212 24 216 c 0
 24 221 24 227 25 232 c 0
 25 238 26 245 26 251 c 1
 26 257 21 260 16 260 c 0
EndSplineSet
EndChar

StartChar: Udieresis
Encoding: 34 220 34
Width: 98
VWidth: 299
Flags: HW
LayerCount: 2
Fore
SplineSet
76 298 m 0
 73 298 71 297 69 294 c 0
 64 288 62 281 64 273 c 1
 69 262 80 260 89 268 c 0
 94 273 95 280 93 286 c 0
 91 291 88 294 84 295 c 1
 82 297 79 298 76 298 c 0
22 296 m 0
 21 296 20 296 19 296 c 0
 16 295 14 294 11 293 c 0
 6 289 4 283 4 276 c 0
 4 270 6 265 11 261 c 0
 16 257 22 257 28 258 c 0
 37 262 41 266 42 276 c 0
 42 277 41 278 41 279 c 0
 40 282 39 285 36 286 c 0
 36 287 35 288 35 289 c 0
 32 293 27 296 22 296 c 0
85 282 m 1
 85 281 86 281 86 280 c 1
 86 280 85 281 85 282 c 1
83 279 m 1
 83 278 l 1
 83 279 l 1
77 249 m 1
 71 249 66 246 67 239 c 0
 67 238 l 0
 67 233 66 229 66 224 c 0
 66 219 65 215 65 210 c 0
 65 205 65 200 65 195 c 0
 65 190 64 185 64 180 c 0
 64 175 64 169 64 164 c 0
 64 159 64 153 64 148 c 0
 64 143 64 137 64 132 c 0
 64 127 63 124 62 119 c 0
 61 115 59 110 56 106 c 0
 54 102 52 99 49 96 c 0
 48 95 47 95 46 94 c 0
 45 93 l 0
 47 93 47 94 48 94 c 1
 47 94 47 93 46 93 c 0
 43 92 40 94 37 95 c 0
 35 96 32 98 31 100 c 0
 29 104 29 107 28 111 c 0
 28 115 27 119 27 123 c 0
 27 128 27 133 27 138 c 0
 27 143 27 149 27 154 c 0
 27 160 26 165 26 171 c 0
 26 176 26 181 26 186 c 0
 26 191 26 197 26 202 c 0
 26 207 27 213 27 218 c 0
 28 225 28 232 28 239 c 1
 28 251 9 251 9 239 c 1
 7 232 8 225 7 218 c 0
 7 212 6 207 6 201 c 0
 6 196 7 190 7 185 c 0
 7 180 7 174 7 169 c 0
 7 163 7 158 7 152 c 0
 7 147 7 140 7 135 c 0
 7 131 8 126 8 122 c 0
 8 117 9 113 9 108 c 0
 10 103 11 98 13 93 c 0
 16 87 21 82 26 79 c 0
 31 76 36 75 42 74 c 0
 51 73 59 78 65 84 c 0
 69 88 72 94 75 99 c 0
 78 104 79 110 81 115 c 0
 83 121 84 127 84 133 c 0
 84 139 85 144 84 150 c 0
 84 155 83 160 83 165 c 0
 83 170 84 175 84 180 c 0
 84 185 84 191 84 196 c 0
 84 201 85 206 85 211 c 0
 85 215 86 220 86 224 c 0
 86 229 86 234 86 239 c 0
 86 240 86 241 86 242 c 0
 85 247 81 249 77 249 c 1
EndSplineSet
EndChar

StartChar: exclamdown
Encoding: 35 161 35
Width: 57
VWidth: 309
Flags: HW
LayerCount: 2
Fore
SplineSet
38.4443359375 305 m 1
 34.4443359375 308 29.4443359375 310 23.4443359375 310 c 0
 16.4443359375 309 11.4443359375 306 8.4443359375 301 c 0
 7.4443359375 299 5.4443359375 297 4.4443359375 295 c 0
 3.4443359375 292 4.4443359375 290 4.4443359375 287 c 0
 4.4443359375 283 4.4443359375 280 5.4443359375 277 c 0
 8.4443359375 271 13.4443359375 266 19.4443359375 264 c 0
 27.4443359375 262 35.4443359375 264 41.4443359375 270 c 0
 47.4443359375 275 48.4443359375 282 47.4443359375 289 c 0
 47.4443359375 292 45.4443359375 294 44.4443359375 296 c 0
 43.4443359375 298 42.4443359375 300 41.4443359375 302 c 0
 40.4443359375 303 39.4443359375 304 38.4443359375 305 c 1
25.4443359375 289 m 1
 25.4443359375 289 l 1
34.4443359375 252 m 1
 28.4443359375 256 19.4443359375 253 19.4443359375 244 c 1
 18.4443359375 238 17.4443359375 231 17.4443359375 225 c 0
 17.4443359375 219 17.4443359375 215 16.4443359375 209 c 0
 15.4443359375 203 15.4443359375 198 15.4443359375 192 c 0
 14.4443359375 186 13.4443359375 179 12.4443359375 173 c 0
 11.4443359375 167 12.4443359375 162 11.4443359375 156 c 0
 10.4443359375 151 10.4443359375 146 9.4443359375 141 c 0
 8.4443359375 135 8.4443359375 130 8.4443359375 124 c 0
 8.4443359375 119 7.4443359375 114 7.4443359375 109 c 0
 6.4443359375 104 7.4443359375 98 9.4443359375 93 c 0
 12.4443359375 87 17.4443359375 84 23.4443359375 81 c 0
 31.4443359375 78 40.4443359375 78 47.4443359375 84 c 0
 53.4443359375 89 52.4443359375 96 52.4443359375 103 c 0
 52.4443359375 108 51.4443359375 113 50.4443359375 118 c 0
 49.4443359375 122 48.4443359375 126 47.4443359375 130 c 0
 46.4443359375 134 46.4443359375 139 46.4443359375 143 c 0
 46.4443359375 148 45.4443359375 152 45.4443359375 157 c 0
 45.4443359375 162 44.4443359375 167 44.4443359375 172 c 0
 44.4443359375 177 44.4443359375 182 43.4443359375 187 c 0
 43.4443359375 192 42.4443359375 197 42.4443359375 202 c 0
 42.4443359375 207 42.4443359375 213 42.4443359375 218 c 0
 42.4443359375 223 41.4443359375 228 41.4443359375 233 c 0
 41.4443359375 236 42.4443359375 242 40.4443359375 244 c 0
 39.4443359375 244 39.4443359375 244 38.4443359375 244 c 1
 38.4443359375 245 l 0
 38.4443359375 248 36.4443359375 251 34.4443359375 252 c 1
33.4443359375 98 m 0
 32.4443359375 97 l 0
 32.4443359375 98 l 0
 33.4443359375 98 l 0
EndSplineSet
EndChar

StartChar: exclam
Encoding: 36 33 36
Width: 66
VWidth: 309
Flags: HW
LayerCount: 2
Fore
SplineSet
43.22265625 305 m 2
 29.22265625 318 1.22265625 304 4.22265625 285 c 1
 4.22265625 247 15.22265625 210 15.22265625 172 c 1
 17.22265625 160 20.22265625 147 18.22265625 135 c 1
 18.22265625 124 32.22265625 114 41.22265625 122 c 0
 53.22265625 131 52.22265625 147 53.22265625 161 c 1
 56.22265625 185 65.22265625 209 60.22265625 234 c 1
 59.22265625 257 60.22265625 283 46.22265625 302 c 0
 45.22265625 303 44.22265625 304 43.22265625 305 c 2
44.22265625 99 m 0
 30.22265625 108 9.22265625 91 15.22265625 75 c 1
 17.22265625 56 48.22265625 52 55.22265625 70 c 0
 60.22265625 80 54.22265625 94 44.22265625 99 c 0
EndSplineSet
EndChar

StartChar: zero
Encoding: 37 48 37
Width: 93
VWidth: 309
Flags: HW
LayerCount: 2
Fore
SplineSet
68 264 m 1
 67 265 67 265 66 265 c 0
 64 267 62 269 59 270 c 0
 52 274 44 274 37 273 c 0
 28 271 23 265 17 258 c 0
 13 253 11 247 9 241 c 0
 8 235 6 229 6 223 c 0
 5 218 4 213 4 208 c 0
 4 203 5 198 5 193 c 0
 5 188 5 183 5 178 c 0
 5 172 6 167 6 161 c 0
 6 155 7 150 8 144 c 0
 9 139 9 133 10 128 c 0
 11 124 13 119 14 115 c 0
 16 109 18 104 22 99 c 0
 26 94 31 90 37 87 c 0
 42 85 47 83 53 83 c 0
 62 83 70 87 76 92 c 0
 81 97 84 103 86 110 c 0
 88 116 89 121 89 127 c 0
 89 132 89 137 89 142 c 0
 89 147 89 152 89 157 c 0
 89 162 89 167 89 172 c 0
 88 176 89 180 89 185 c 0
 89 190 89 196 89 201 c 0
 89 206 89 211 89 216 c 0
 89 222 88 227 87 233 c 0
 86 239 85 245 82 250 c 0
 79 255 73 260 68 264 c 1
54 249 m 1
 55 249 55 249 56 248 c 0
 54 242 53 236 52 230 c 0
 51 224 49 219 47 213 c 0
 45 208 44 202 43 196 c 0
 42 191 41 186 40 181 c 0
 39 176 37 170 36 165 c 0
 34 160 33 154 32 148 c 0
 31 143 30 139 29 134 c 1
 28 138 27 143 27 147 c 0
 26 153 26 158 26 164 c 0
 25 170 25 175 25 181 c 0
 25 186 24 189 24 194 c 0
 24 199 24 203 24 208 c 0
 24 213 24 218 25 223 c 0
 26 228 27 233 28 238 c 0
 29 242 31 245 34 248 c 0
 36 250 36 252 38 253 c 0
 39 254 40 254 41 254 c 1
 40 254 39 253 38 253 c 1
 39 254 40 254 41 254 c 0
 42 252 44 251 47 250 c 0
 49 250 51 250 53 250 c 0
 54 249 l 1
41 254 m 1
 42 254 42 254 41 254 c 1
69 218 m 1
 69 217 70 215 70 214 c 0
 70 210 70 204 70 200 c 0
 70 195 70 190 70 185 c 0
 70 180 70 176 70 171 c 0
 70 166 70 161 70 156 c 0
 70 151 70 147 70 142 c 0
 70 137 69 132 69 127 c 0
 69 122 68 118 67 114 c 0
 66 110 63 107 60 105 c 0
 59 104 58 104 57 103 c 0
 56 102 l 0
 64 104 59 103 57 102 c 0
 54 101 50 102 47 103 c 0
 45 104 44 105 42 106 c 0
 43 107 44 108 44 109 c 0
 45 112 46 116 46 119 c 0
 47 123 47 128 48 132 c 0
 49 137 50 141 51 146 c 0
 52 152 55 157 56 163 c 0
 57 168 58 174 59 179 c 0
 60 184 62 189 63 194 c 0
 64 199 65 205 67 210 c 0
 68 213 68 215 69 218 c 1
EndSplineSet
EndChar

StartChar: nine
Encoding: 38 57 38
Width: 87
VWidth: 309
Flags: HW
LayerCount: 2
Fore
SplineSet
65.2548828125 247 m 1
 61.2548828125 249 58.2548828125 253 53.2548828125 254 c 0
 50.2548828125 255 46.2548828125 256 42.2548828125 255 c 1
 45.2548828125 255 33.2548828125 252 37.2548828125 253 c 0
 45.2548828125 255 40.2548828125 254 38.2548828125 253 c 0
 34.2548828125 251 31.2548828125 248 28.2548828125 245 c 0
 25.2548828125 242 24.2548828125 238 24.2548828125 234 c 0
 23.2548828125 230 24.2548828125 227 26.2548828125 224 c 0
 28.2548828125 222 30.2548828125 222 32.2548828125 222 c 0
 35.2548828125 222 39.2548828125 223 42.2548828125 223 c 1
 39.2548828125 222 49.2548828125 226 46.2548828125 225 c 0
 40.2548828125 224 43.2548828125 225 46.2548828125 226 c 0
 50.2548828125 228 53.2548828125 232 56.2548828125 235 c 0
 58.2548828125 238 60.2548828125 241 61.2548828125 245 c 0
 62.2548828125 247 62.2548828125 250 62.2548828125 252 c 1
 82.2548828125 249 80.2548828125 254 79.2548828125 242 c 0
 79.2548828125 237 78.2548828125 233 78.2548828125 228 c 0
 77.2548828125 222 77.2548828125 216 76.2548828125 210 c 0
 76.2548828125 204 75.2548828125 198 75.2548828125 192 c 0
 75.2548828125 187 74.2548828125 182 74.2548828125 176 c 0
 74.2548828125 171 73.2548828125 165 73.2548828125 160 c 0
 73.2548828125 155 73.2548828125 151 73.2548828125 146 c 0
 73.2548828125 141 73.2548828125 136 73.2548828125 131 c 0
 73.2548828125 126 74.2548828125 121 74.2548828125 116 c 0
 74.2548828125 111 73.2548828125 106 74.2548828125 101 c 0
 75.2548828125 98 75.2548828125 96 75.2548828125 93 c 0
 76.2548828125 81 58.2548828125 79 57.2548828125 91 c 1
 57.2548828125 87 54.2548828125 101 55.2548828125 98 c 1
 54.2548828125 103 54.2548828125 109 54.2548828125 114 c 0
 54.2548828125 119 54.2548828125 125 54.2548828125 130 c 0
 54.2548828125 135 53.2548828125 140 53.2548828125 145 c 0
 53.2548828125 150 53.2548828125 155 53.2548828125 160 c 0
 54.2548828125 165 54.2548828125 169 54.2548828125 174 c 0
 54.2548828125 180 55.2548828125 186 55.2548828125 192 c 0
 55.2548828125 198 55.2548828125 205 56.2548828125 211 c 0
 57.2548828125 216 57.2548828125 222 58.2548828125 227 c 0
 58.2548828125 232 59.2548828125 238 59.2548828125 243 c 0
 62.2548828125 258 55.2548828125 255 80.2548828125 255 c 1
 82.2548828125 251 80.2548828125 246 80.2548828125 242 c 0
 79.2548828125 236 76.2548828125 231 73.2548828125 226 c 0
 70.2548828125 220 65.2548828125 216 60.2548828125 212 c 0
 54.2548828125 208 47.2548828125 204 39.2548828125 204 c 0
 34.2548828125 203 29.2548828125 204 24.2548828125 205 c 0
 18.2548828125 207 13.2548828125 210 9.2548828125 215 c 0
 5.2548828125 221 3.2548828125 227 4.2548828125 234 c 0
 4.2548828125 241 6.2548828125 248 10.2548828125 254 c 0
 14.2548828125 259 19.2548828125 264 25.2548828125 267 c 0
 32.2548828125 270 39.2548828125 274 46.2548828125 274 c 0
 52.2548828125 274 58.2548828125 273 63.2548828125 271 c 0
 69.2548828125 268 75.2548828125 265 80.2548828125 260 c 0
 88.2548828125 251 73.2548828125 238 65.2548828125 247 c 1
EndSplineSet
EndChar

StartChar: eight
Encoding: 39 56 39
Width: 86
VWidth: 309
Flags: HW
LayerCount: 2
Fore
SplineSet
64 255 m 1
 58 255 50 255 44 255 c 1
 45 256 35 253 38 254 c 0
 44 255 41 255 38 253 c 0
 35 251 32 248 31 245 c 0
 30 242 30 239 31 236 c 0
 33 232 36 228 38 224 c 0
 41 220 43 215 46 211 c 0
 49 207 51 202 54 198 c 0
 56 194 60 190 63 186 c 0
 67 181 69 175 72 170 c 0
 74 165 76 159 78 154 c 0
 80 148 81 142 82 135 c 0
 82 129 81 121 80 115 c 0
 79 109 76 103 72 98 c 0
 68 94 64 90 59 88 c 0
 52 86 46 84 39 84 c 0
 33 83 27 86 22 89 c 0
 17 92 14 96 11 100 c 0
 8 105 6 111 5 116 c 0
 4 121 4 125 4 130 c 0
 4 135 5 139 6 144 c 0
 7 149 8 154 10 159 c 0
 12 165 15 170 18 175 c 0
 21 180 25 185 28 190 c 0
 31 195 33 199 36 204 c 0
 38 209 40 213 42 218 c 0
 44 223 45 226 47 231 c 0
 49 235 51 240 52 245 c 0
 53 248 54 250 52 253 c 0
 51 254 49 256 49 254 c 1
 47 254 47 253 45 253 c 0
 33 255 35 274 47 272 c 1
 49 272 52 272 54 272 c 0
 61 271 67 267 70 261 c 0
 73 255 74 249 72 242 c 0
 71 237 69 232 66 227 c 0
 64 222 63 217 61 213 c 0
 59 208 57 203 55 198 c 0
 53 192 49 187 46 181 c 0
 43 176 39 172 36 167 c 0
 33 163 31 159 29 155 c 0
 27 151 26 146 25 142 c 0
 24 138 24 134 24 130 c 0
 23 127 23 123 24 120 c 0
 24 117 25 113 27 111 c 0
 29 108 31 106 34 104 c 0
 37 102 39 102 42 102 c 0
 44 102 57 106 47 103 c 1
 48 103 48 104 49 104 c 0
 50 104 l 0
 52 104 53 106 55 107 c 0
 58 110 60 114 61 118 c 0
 62 123 62 126 62 131 c 0
 61 137 60 142 59 148 c 0
 58 153 56 158 54 162 c 0
 52 167 49 171 46 175 c 0
 43 179 41 184 38 188 c 0
 35 193 32 196 29 201 c 0
 27 205 24 210 21 214 c 0
 18 219 15 224 13 230 c 0
 12 236 11 242 12 248 c 0
 14 255 17 261 23 266 c 0
 30 272 39 275 48 275 c 0
 55 275 61 275 68 274 c 0
 80 271 76 252 64 255 c 1
EndSplineSet
EndChar

StartChar: seven
Encoding: 40 55 40
Width: 85
VWidth: 309
Flags: HW
LayerCount: 2
Fore
SplineSet
75.8798828125 266 m 2
 74.8798828125 267 72.8798828125 267 70.8798828125 268 c 0
 65.8798828125 269 60.8798828125 269 55.8798828125 269 c 0
 49.8798828125 269 43.8798828125 269 37.8798828125 269 c 0
 30.8798828125 269 22.8798828125 269 15.8798828125 269 c 1
 3.8798828125 272 -1.1201171875 254 10.8798828125 251 c 0
 17.8798828125 249 25.8798828125 249 32.8798828125 249 c 0
 38.8798828125 249 44.8798828125 250 50.8798828125 250 c 0
 54.8798828125 250 57.8798828125 250 61.8798828125 250 c 1
 60.8798828125 246 59.8798828125 243 58.8798828125 239 c 0
 56.8798828125 233 56.8798828125 228 55.8798828125 222 c 0
 53.8798828125 216 51.8798828125 209 50.8798828125 203 c 0
 49.8798828125 199 49.8798828125 195 48.8798828125 191 c 1
 45.8798828125 191 42.8798828125 190 39.8798828125 190 c 0
 27.8798828125 193 22.8798828125 175 34.8798828125 172 c 0
 37.8798828125 172 41.8798828125 171 44.8798828125 171 c 1
 44.8798828125 169 43.8798828125 168 43.8798828125 166 c 0
 43.8798828125 160 42.8798828125 155 41.8798828125 149 c 0
 41.8798828125 143 39.8798828125 138 39.8798828125 132 c 0
 38.8798828125 127 39.8798828125 122 38.8798828125 117 c 0
 38.8798828125 112 37.8798828125 106 37.8798828125 101 c 1
 37.8798828125 105 36.8798828125 90 36.8798828125 94 c 1
 34.8798828125 82 53.8798828125 79 55.8798828125 91 c 0
 56.8798828125 95 56.8798828125 98 56.8798828125 102 c 0
 56.8798828125 107 57.8798828125 111 57.8798828125 116 c 0
 58.8798828125 121 58.8798828125 127 59.8798828125 132 c 0
 60.8798828125 137 60.8798828125 144 61.8798828125 149 c 0
 62.8798828125 154 62.8798828125 160 63.8798828125 165 c 0
 63.8798828125 168 64.8798828125 170 64.8798828125 173 c 0
 65.8798828125 173 l 0
 77.8798828125 170 82.8798828125 188 70.8798828125 191 c 0
 69.8798828125 191 69.8798828125 191 68.8798828125 191 c 1
 69.8798828125 194 69.8798828125 198 70.8798828125 201 c 0
 71.8798828125 207 73.8798828125 213 74.8798828125 219 c 0
 75.8798828125 225 77.8798828125 230 78.8798828125 236 c 0
 79.8798828125 241 80.8798828125 247 80.8798828125 252 c 0
 80.8798828125 258 79.8798828125 263 75.8798828125 266 c 2
EndSplineSet
EndChar

StartChar: six
Encoding: 41 54 41
Width: 96
VWidth: 309
Flags: HW
LayerCount: 2
Fore
SplineSet
71.4443359375 236 m 1
 66.4443359375 232 60.4443359375 229 55.4443359375 225 c 0
 51.4443359375 222 46.4443359375 218 43.4443359375 214 c 0
 40.4443359375 210 37.4443359375 206 35.4443359375 201 c 0
 33.4443359375 196 32.4443359375 190 30.4443359375 185 c 0
 29.4443359375 180 27.4443359375 175 26.4443359375 170 c 0
 25.4443359375 165 25.4443359375 160 24.4443359375 155 c 0
 23.4443359375 150 24.4443359375 146 24.4443359375 141 c 0
 24.4443359375 136 24.4443359375 132 25.4443359375 128 c 0
 26.4443359375 123 27.4443359375 119 29.4443359375 115 c 0
 31.4443359375 112 34.4443359375 109 37.4443359375 107 c 0
 41.4443359375 105 44.4443359375 103 48.4443359375 102 c 0
 51.4443359375 102 54.4443359375 102 57.4443359375 103 c 1
 47.4443359375 99 60.4443359375 106 62.4443359375 107 c 0
 65.4443359375 109 67.4443359375 112 69.4443359375 115 c 0
 71.4443359375 119 72.4443359375 123 72.4443359375 127 c 0
 72.4443359375 131 71.4443359375 134 70.4443359375 138 c 0
 69.4443359375 142 66.4443359375 145 63.4443359375 147 c 0
 61.4443359375 149 58.4443359375 149 55.4443359375 149 c 1
 55.4443359375 148 51.4443359375 148 52.4443359375 148 c 0
 60.4443359375 151 55.4443359375 149 53.4443359375 148 c 0
 50.4443359375 146 47.4443359375 143 45.4443359375 140 c 0
 43.4443359375 137 42.4443359375 134 41.4443359375 130 c 0
 40.4443359375 126 40.4443359375 122 40.4443359375 118 c 0
 40.4443359375 115 40.4443359375 112 39.4443359375 109 c 0
 37.4443359375 98 19.4443359375 101 21.4443359375 112 c 1
 21.4443359375 111 l 0
 21.4443359375 113 21.4443359375 116 21.4443359375 118 c 0
 22.4443359375 123 21.4443359375 127 22.4443359375 132 c 0
 23.4443359375 137 24.4443359375 144 27.4443359375 148 c 0
 30.4443359375 153 34.4443359375 158 39.4443359375 161 c 0
 45.4443359375 165 53.4443359375 169 61.4443359375 168 c 0
 67.4443359375 167 72.4443359375 165 77.4443359375 161 c 0
 82.4443359375 157 86.4443359375 151 88.4443359375 145 c 0
 90.4443359375 139 92.4443359375 133 92.4443359375 127 c 0
 92.4443359375 121 91.4443359375 115 88.4443359375 109 c 0
 85.4443359375 103 81.4443359375 98 76.4443359375 94 c 0
 70.4443359375 90 64.4443359375 86 57.4443359375 84 c 0
 51.4443359375 83 46.4443359375 83 40.4443359375 85 c 0
 34.4443359375 87 29.4443359375 89 24.4443359375 92 c 0
 19.4443359375 96 14.4443359375 101 11.4443359375 107 c 0
 9.4443359375 112 6.4443359375 117 5.4443359375 123 c 0
 4.4443359375 129 4.4443359375 135 4.4443359375 141 c 0
 4.4443359375 146 3.4443359375 152 4.4443359375 157 c 0
 5.4443359375 162 6.4443359375 167 7.4443359375 172 c 0
 8.4443359375 178 10.4443359375 183 11.4443359375 189 c 0
 13.4443359375 195 15.4443359375 200 17.4443359375 206 c 0
 19.4443359375 212 21.4443359375 218 25.4443359375 223 c 0
 29.4443359375 229 34.4443359375 233 39.4443359375 238 c 0
 45.4443359375 242 51.4443359375 247 57.4443359375 250 c 1
 66.4443359375 259 80.4443359375 245 71.4443359375 236 c 1
EndSplineSet
EndChar

StartChar: five
Encoding: 42 53 42
Width: 98
VWidth: 309
Flags: HW
LayerCount: 2
Fore
SplineSet
84.1474609375 268 m 1
 77.1474609375 266 69.1474609375 265 62.1474609375 265 c 0
 55.1474609375 265 50.1474609375 266 43.1474609375 265 c 0
 41.1474609375 266 26.1474609375 261 36.1474609375 264 c 1
 33.1474609375 264 32.1474609375 261 31.1474609375 259 c 0
 29.1474609375 255 30.1474609375 250 29.1474609375 246 c 0
 29.1474609375 242 28.1474609375 238 28.1474609375 234 c 0
 29.1474609375 232 26.1474609375 237 25.1474609375 238 c 1
 26.1474609375 239 l 0
 25.1474609375 239 23.1474609375 238 22.1474609375 238 c 0
 21.1474609375 238 23.1474609375 239 24.1474609375 239 c 0
 26.1474609375 240 28.1474609375 240 30.1474609375 241 c 0
 36.1474609375 244 43.1474609375 246 49.1474609375 248 c 0
 56.1474609375 249 62.1474609375 247 68.1474609375 245 c 0
 74.1474609375 243 79.1474609375 239 83.1474609375 234 c 0
 87.1474609375 230 88.1474609375 225 90.1474609375 220 c 0
 92.1474609375 215 92.1474609375 209 93.1474609375 204 c 0
 93.1474609375 199 94.1474609375 194 94.1474609375 189 c 0
 94.1474609375 184 94.1474609375 180 94.1474609375 175 c 0
 94.1474609375 169 94.1474609375 164 93.1474609375 158 c 0
 93.1474609375 152 91.1474609375 146 90.1474609375 140 c 0
 89.1474609375 134 88.1474609375 129 86.1474609375 123 c 0
 84.1474609375 117 80.1474609375 111 77.1474609375 106 c 0
 74.1474609375 101 70.1474609375 98 65.1474609375 94 c 0
 60.1474609375 90 55.1474609375 87 49.1474609375 85 c 0
 48.1474609375 85 51.1474609375 86 52.1474609375 86 c 1
 45.1474609375 83 38.1474609375 82 30.1474609375 84 c 0
 23.1474609375 86 19.1474609375 90 14.1474609375 95 c 0
 10.1474609375 99 8.1474609375 105 6.1474609375 110 c 0
 5.1474609375 115 4.1474609375 119 4.1474609375 124 c 0
 4.1474609375 125 4.1474609375 125 4.1474609375 126 c 0
 2.1474609375 138 21.1474609375 141 23.1474609375 129 c 1
 23.1474609375 128 24.1474609375 128 24.1474609375 127 c 0
 24.1474609375 124 24.1474609375 119 25.1474609375 116 c 0
 26.1474609375 113 27.1474609375 110 29.1474609375 107 c 0
 31.1474609375 105 34.1474609375 103 37.1474609375 102 c 0
 39.1474609375 102 49.1474609375 104 40.1474609375 102 c 1
 42.1474609375 103 46.1474609375 103 48.1474609375 104 c 0
 49.1474609375 104 45.1474609375 103 44.1474609375 103 c 0
 40.1474609375 102 48.1474609375 104 49.1474609375 105 c 0
 50.1474609375 106 l 0
 53.1474609375 109 57.1474609375 111 59.1474609375 114 c 0
 62.1474609375 118 64.1474609375 122 66.1474609375 127 c 0
 68.1474609375 132 68.1474609375 137 70.1474609375 142 c 0
 71.1474609375 147 73.1474609375 153 73.1474609375 158 c 0
 73.1474609375 163 74.1474609375 169 74.1474609375 174 c 0
 74.1474609375 178 74.1474609375 183 74.1474609375 187 c 0
 74.1474609375 192 74.1474609375 197 74.1474609375 202 c 0
 74.1474609375 206 73.1474609375 210 72.1474609375 214 c 0
 71.1474609375 217 69.1474609375 219 67.1474609375 222 c 0
 65.1474609375 225 62.1474609375 227 59.1474609375 228 c 0
 56.1474609375 229 52.1474609375 229 49.1474609375 228 c 0
 48.1474609375 228 46.1474609375 228 47.1474609375 228 c 0
 48.1474609375 229 49.1474609375 229 50.1474609375 229 c 0
 55.1474609375 231 46.1474609375 227 45.1474609375 227 c 0
 44.1474609375 227 43.1474609375 226 42.1474609375 226 c 0
 36.1474609375 224 31.1474609375 219 24.1474609375 219 c 0
 16.1474609375 219 11.1474609375 224 9.1474609375 232 c 0
 8.1474609375 237 9.1474609375 243 9.1474609375 248 c 0
 10.1474609375 253 10.1474609375 258 12.1474609375 263 c 0
 14.1474609375 270 18.1474609375 276 24.1474609375 280 c 1
 31.1474609375 282 38.1474609375 285 46.1474609375 285 c 0
 53.1474609375 285 59.1474609375 285 66.1474609375 285 c 0
 72.1474609375 286 79.1474609375 287 85.1474609375 287 c 0
 97.1474609375 286 96.1474609375 267 84.1474609375 268 c 1
EndSplineSet
EndChar

StartChar: three
Encoding: 43 51 43
Width: 92
VWidth: 309
Flags: HW
LayerCount: 2
Fore
SplineSet
17.3359375 260 m 1
 23.3359375 261 30.3359375 262 36.3359375 262 c 0
 42.3359375 262 49.3359375 263 55.3359375 263 c 0
 60.3359375 264 66.3359375 264 71.3359375 263 c 0
 80.3359375 259 81.3359375 251 77.3359375 243 c 0
 75.3359375 238 72.3359375 235 68.3359375 231 c 0
 64.3359375 227 60.3359375 223 56.3359375 219 c 0
 52.3359375 215 49.3359375 211 45.3359375 207 c 0
 41.3359375 202 44.3359375 205 40.3359375 211 c 1
 36.3359375 214 40.3359375 213 43.3359375 213 c 0
 49.3359375 214 39.3359375 213 47.3359375 214 c 0
 54.3359375 214 59.3359375 212 65.3359375 209 c 0
 70.3359375 206 75.3359375 202 79.3359375 197 c 0
 82.3359375 192 85.3359375 187 86.3359375 182 c 0
 87.3359375 176 87.3359375 171 87.3359375 165 c 0
 87.3359375 160 88.3359375 155 88.3359375 150 c 0
 88.3359375 145 88.3359375 141 88.3359375 136 c 0
 87.3359375 130 85.3359375 124 83.3359375 119 c 0
 81.3359375 113 78.3359375 109 74.3359375 104 c 0
 70.3359375 99 66.3359375 95 61.3359375 92 c 0
 51.3359375 86 49.3359375 86 41.3359375 84 c 1
 33.3359375 83 28.3359375 85 22.3359375 90 c 0
 17.3359375 94 13.3359375 100 10.3359375 106 c 0
 8.3359375 111 6.3359375 116 5.3359375 121 c 0
 4.3359375 123 4.3359375 125 4.3359375 127 c 0
 1.3359375 139 19.3359375 144 22.3359375 132 c 1
 23.3359375 130 23.3359375 128 24.3359375 126 c 0
 25.3359375 122 26.3359375 118 28.3359375 114 c 0
 30.3359375 110 32.3359375 107 35.3359375 104 c 0
 37.3359375 102 39.3359375 102 41.3359375 103 c 1
 40.3359375 103 37.3359375 102 38.3359375 102 c 0
 40.3359375 103 43.3359375 103 45.3359375 104 c 0
 46.3359375 104 42.3359375 103 41.3359375 103 c 0
 39.3359375 102 49.3359375 106 47.3359375 106 c 1
 51.3359375 108 54.3359375 110 57.3359375 113 c 0
 60.3359375 116 62.3359375 119 64.3359375 123 c 0
 66.3359375 127 67.3359375 132 68.3359375 136 c 0
 68.3359375 140 69.3359375 144 69.3359375 148 c 0
 69.3359375 153 68.3359375 159 68.3359375 164 c 0
 68.3359375 168 68.3359375 173 67.3359375 177 c 0
 66.3359375 180 65.3359375 184 63.3359375 186 c 0
 61.3359375 189 58.3359375 191 55.3359375 193 c 0
 52.3359375 194 48.3359375 196 44.3359375 195 c 0
 39.3359375 194 34.3359375 193 29.3359375 196 c 0
 28.3359375 197 27.3359375 198 26.3359375 199 c 0
 23.3359375 205 25.3359375 211 28.3359375 216 c 0
 32.3359375 221 36.3359375 226 40.3359375 230 c 0
 44.3359375 234 48.3359375 238 51.3359375 242 c 0
 54.3359375 245 58.3359375 247 60.3359375 250 c 0
 62.3359375 252 60.3359375 251 61.3359375 249 c 0
 62.3359375 246 63.3359375 246 65.3359375 244 c 1
 61.3359375 243 56.3359375 244 52.3359375 243 c 0
 46.3359375 242 38.3359375 242 32.3359375 242 c 0
 25.3359375 242 20.3359375 241 13.3359375 242 c 0
 1.3359375 245 5.3359375 263 17.3359375 260 c 1
EndSplineSet
EndChar

StartChar: four
Encoding: 44 52 44
Width: 90
VWidth: 309
Flags: HW
LayerCount: 2
Fore
SplineSet
21 279 m 1
 16 279 11 275 11 269 c 1
 10 262 10 256 9 249 c 0
 8 242 7 236 6 229 c 0
 6 223 5 218 4 212 c 0
 4 203 7 198 15 194 c 0
 22 192 29 193 36 194 c 0
 40 194 45 195 49 196 c 1
 49 192 49 190 49 186 c 0
 49 182 50 176 50 172 c 0
 50 168 50 163 50 159 c 0
 50 155 51 150 51 146 c 0
 51 141 51 137 51 132 c 0
 51 127 50 123 50 118 c 0
 50 113 50 108 51 103 c 0
 51 99 53 96 53 92 c 0
 54 80 73 81 72 93 c 0
 72 98 70 102 70 107 c 0
 69 111 70 116 70 120 c 0
 70 124 70 129 70 133 c 0
 70 137 70 142 70 146 c 0
 70 151 70 156 70 161 c 0
 70 165 69 170 69 174 c 0
 69 178 69 182 69 186 c 0
 69 191 69 195 69 200 c 0
 70 200 70 201 71 201 c 0
 73 201 74 202 76 202 c 0
 88 201 89 219 77 220 c 0
 76 220 73 220 72 220 c 0
 71 220 71 220 70 220 c 1
 70 226 70 232 70 238 c 0
 70 250 51 249 51 237 c 1
 50 231 49 225 49 218 c 0
 49 217 49 217 49 216 c 0
 45 215 42 215 38 214 c 0
 33 213 29 213 24 212 c 1
 25 217 25 222 26 227 c 0
 27 234 28 241 29 248 c 0
 30 255 30 263 30 270 c 1
 30 276 26 279 21 279 c 1
EndSplineSet
EndChar

StartChar: one
Encoding: 45 49 45
Width: 84
VWidth: 309
Flags: HW
LayerCount: 2
Fore
SplineSet
48.2802734375 274 m 2
 41.2802734375 274 37.2802734375 268 34.2802734375 263 c 0
 30.2802734375 258 26.2802734375 254 22.2802734375 250 c 0
 17.2802734375 246 11.2802734375 242 6.2802734375 237 c 1
 -1.7197265625 227 13.2802734375 215 21.2802734375 225 c 1
 27.2802734375 228 32.2802734375 232 37.2802734375 237 c 1
 37.2802734375 231 37.2802734375 226 37.2802734375 220 c 0
 37.2802734375 214 38.2802734375 208 38.2802734375 202 c 0
 38.2802734375 196 38.2802734375 191 38.2802734375 185 c 0
 38.2802734375 179 37.2802734375 174 37.2802734375 168 c 0
 37.2802734375 162 37.2802734375 157 37.2802734375 151 c 0
 37.2802734375 145 36.2802734375 140 36.2802734375 134 c 0
 36.2802734375 129 37.2802734375 124 37.2802734375 119 c 0
 37.2802734375 114 38.2802734375 109 38.2802734375 104 c 0
 31.2802734375 104 25.2802734375 104 18.2802734375 103 c 1
 6.2802734375 106 1.2802734375 87 13.2802734375 84 c 0
 21.2802734375 83 29.2802734375 83 37.2802734375 84 c 0
 43.2802734375 84 49.2802734375 85 55.2802734375 86 c 0
 57.2802734375 86 67.2802734375 85 67.2802734375 85 c 0
 67.2802734375 86 l 0
 78.2802734375 81 85.2802734375 97 74.2802734375 102 c 0
 74.2802734375 103 l 0
 69.2802734375 105 64.2802734375 105 59.2802734375 105 c 0
 58.2802734375 105 58.2802734375 105 57.2802734375 105 c 0
 57.2802734375 106 57.2802734375 106 57.2802734375 107 c 0
 57.2802734375 112 56.2802734375 115 56.2802734375 120 c 0
 56.2802734375 125 56.2802734375 130 56.2802734375 135 c 0
 56.2802734375 140 57.2802734375 146 57.2802734375 151 c 0
 57.2802734375 157 57.2802734375 163 57.2802734375 169 c 0
 57.2802734375 175 58.2802734375 180 58.2802734375 186 c 0
 58.2802734375 192 57.2802734375 198 57.2802734375 204 c 0
 57.2802734375 210 57.2802734375 215 57.2802734375 221 c 0
 57.2802734375 227 57.2802734375 232 57.2802734375 238 c 0
 57.2802734375 243 58.2802734375 249 59.2802734375 254 c 0
 59.2802734375 259 59.2802734375 265 57.2802734375 269 c 0
 55.2802734375 271 53.2802734375 274 50.2802734375 274 c 0
 49.2802734375 274 49.2802734375 274 48.2802734375 274 c 2
55.2802734375 260 m 1
 55.2802734375 259 55.2802734375 259 54.2802734375 258 c 1
 54.2802734375 258 54.2802734375 257 55.2802734375 259 c 0
 55.2802734375 260 l 1
EndSplineSet
EndChar

StartChar: two
Encoding: 46 50 46
Width: 93
VWidth: 309
Flags: HW
LayerCount: 2
Fore
SplineSet
4.265625 235 m 1
 3.265625 242 5.265625 249 7.265625 256 c 0
 8.265625 263 11.265625 268 15.265625 274 c 0
 18.265625 279 22.265625 284 27.265625 288 c 0
 34.265625 293 42.265625 297 51.265625 297 c 0
 57.265625 298 63.265625 296 69.265625 294 c 0
 75.265625 291 79.265625 286 82.265625 280 c 0
 84.265625 275 85.265625 269 85.265625 263 c 0
 85.265625 258 85.265625 254 84.265625 249 c 0
 83.265625 243 83.265625 237 81.265625 232 c 0
 80.265625 227 78.265625 221 77.265625 216 c 0
 75.265625 211 74.265625 205 72.265625 200 c 0
 70.265625 195 67.265625 190 65.265625 185 c 0
 63.265625 180 62.265625 175 60.265625 170 c 0
 58.265625 165 56.265625 160 54.265625 155 c 0
 52.265625 150 51.265625 144 49.265625 139 c 0
 48.265625 134 46.265625 130 44.265625 125 c 0
 42.265625 120 40.265625 115 38.265625 110 c 0
 36.265625 106 34.265625 102 33.265625 98 c 0
 32.265625 97 l 0
 32.265625 96 l 0
 31.265625 98 34.265625 95 32.265625 99 c 0
 31.265625 102 31.265625 100 31.265625 101 c 0
 30.265625 102 l 0
 37.265625 103 l 0
 41.265625 104 45.265625 104 49.265625 104 c 0
 53.265625 105 58.265625 106 62.265625 106 c 0
 67.265625 106 70.265625 106 75.265625 106 c 0
 77.265625 106 79.265625 106 80.265625 107 c 0
 92.265625 106 91.265625 86 79.265625 87 c 1
 76.265625 87 73.265625 87 70.265625 87 c 0
 66.265625 87 62.265625 87 58.265625 87 c 0
 54.265625 87 50.265625 86 46.265625 85 c 0
 42.265625 84 38.265625 84 34.265625 84 c 0
 29.265625 84 24.265625 83 20.265625 85 c 0
 14.265625 89 12.265625 95 14.265625 102 c 0
 16.265625 107 17.265625 112 19.265625 117 c 0
 21.265625 121 24.265625 125 25.265625 130 c 0
 27.265625 134 28.265625 139 29.265625 144 c 0
 31.265625 149 33.265625 154 35.265625 159 c 0
 37.265625 164 38.265625 169 40.265625 174 c 0
 42.265625 179 44.265625 185 46.265625 190 c 0
 48.265625 195 51.265625 200 53.265625 205 c 0
 55.265625 210 55.265625 215 57.265625 220 c 0
 59.265625 225 60.265625 231 61.265625 236 c 0
 63.265625 241 64.265625 245 65.265625 250 c 0
 66.265625 254 66.265625 258 66.265625 262 c 0
 66.265625 266 64.265625 269 64.265625 272 c 0
 63.265625 274 62.265625 276 60.265625 277 c 0
 56.265625 278 52.265625 278 48.265625 277 c 0
 44.265625 276 48.265625 277 50.265625 278 c 0
 53.265625 280 40.265625 275 43.265625 275 c 1
 39.265625 272 35.265625 270 32.265625 266 c 0
 29.265625 262 28.265625 258 27.265625 253 c 0
 26.265625 247 24.265625 241 23.265625 235 c 1
 23.265625 223 4.265625 223 4.265625 235 c 1
EndSplineSet
EndChar

StartChar: udieresis
Encoding: 47 252 47
Width: 79
VWidth: 309
Flags: HW
LayerCount: 2
Fore
SplineSet
19.5224609375 211 m 0
 18.5224609375 211 17.5224609375 211 16.5224609375 211 c 0
 13.5224609375 209 11.5224609375 208 8.5224609375 206 c 0
 3.5224609375 202 3.5224609375 193 4.5224609375 188 c 0
 5.5224609375 186 6.5224609375 183 8.5224609375 182 c 0
 8.5224609375 181 9.5224609375 181 9.5224609375 180 c 0
 15.5224609375 171 26.5224609375 172 33.5224609375 180 c 0
 37.5224609375 186 37.5224609375 193 35.5224609375 200 c 0
 32.5224609375 208 27.5224609375 211 19.5224609375 211 c 0
56.5224609375 210 m 0
 52.5224609375 210 48.5224609375 207 47.5224609375 203 c 0
 43.5224609375 196 44.5224609375 190 47.5224609375 183 c 1
 53.5224609375 174 64.5224609375 175 71.5224609375 183 c 0
 75.5224609375 188 75.5224609375 194 74.5224609375 200 c 0
 71.5224609375 207 65.5224609375 211 59.5224609375 209 c 0
 58.5224609375 209 57.5224609375 210 56.5224609375 210 c 0
23.5224609375 167 m 1
 19.5224609375 167 16.5224609375 165 15.5224609375 161 c 1
 10.5224609375 155 9.5224609375 147 8.5224609375 140 c 0
 7.5224609375 132 10.5224609375 126 14.5224609375 120 c 0
 18.5224609375 114 24.5224609375 110 31.5224609375 108 c 0
 42.5224609375 105 46.5224609375 106 56.5224609375 111 c 0
 62.5224609375 115 66.5224609375 121 68.5224609375 128 c 0
 70.5224609375 135 71.5224609375 142 70.5224609375 149 c 0
 69.5224609375 153 69.5224609375 156 67.5224609375 160 c 0
 63.5224609375 172 44.5224609375 166 48.5224609375 154 c 0
 49.5224609375 151 50.5224609375 148 51.5224609375 145 c 0
 52.5224609375 141 50.5224609375 137 49.5224609375 133 c 0
 48.5224609375 130 46.5224609375 126 43.5224609375 125 c 1
 52.5224609375 128 43.5224609375 124 40.5224609375 125 c 0
 36.5224609375 126 33.5224609375 127 30.5224609375 130 c 0
 28.5224609375 133 26.5224609375 136 27.5224609375 139 c 0
 28.5224609375 145 31.5224609375 150 33.5224609375 155 c 1
 35.5224609375 162 29.5224609375 167 23.5224609375 167 c 1
EndSplineSet
EndChar

StartChar: uacute
Encoding: 48 250 48
Width: 74
VWidth: 309
Flags: HW
LayerCount: 2
Fore
SplineSet
59.75 221 m 2
 56.75 221 53.75 220 51.75 217 c 0
 48.75 215 46.75 213 44.75 210 c 0
 39.75 205 34.75 200 30.75 195 c 1
 24.75 185 40.75 175 46.75 185 c 1
 52.75 189 57.75 195 62.75 200 c 0
 64.75 202 65.75 204 67.75 207 c 0
 71.75 214 65.75 221 59.75 221 c 2
18.75 161 m 0
 14.75 161 11.75 159 10.75 155 c 0
 7.75 149 5.75 143 4.75 136 c 0
 3.75 130 3.75 124 4.75 118 c 0
 6.75 111 10.75 106 15.75 102 c 0
 20.75 98 26.75 97 32.75 96 c 0
 40.75 95 48.75 98 55.75 103 c 0
 60.75 107 64.75 112 66.75 118 c 0
 68.75 123 69.75 129 69.75 135 c 0
 69.75 140 69.75 145 68.75 150 c 0
 68.75 151 67.75 152 67.75 153 c 0
 64.75 165 45.75 160 48.75 148 c 0
 48.75 147 49.75 147 49.75 146 c 0
 50.75 142 49.75 139 49.75 135 c 0
 49.75 131 48.75 126 47.75 123 c 0
 45.75 120 43.75 118 40.75 116 c 0
 39.75 116 39.75 115 39.75 115 c 1
 40.75 115 41.75 116 42.75 116 c 0
 44.75 116 36.75 114 37.75 115 c 1
 34.75 114 31.75 115 29.75 116 c 0
 26.75 118 24.75 120 23.75 123 c 0
 22.75 127 23.75 130 24.75 134 c 0
 25.75 139 27.75 144 28.75 149 c 0
 30.75 156 24.75 161 18.75 161 c 0
39.75 115 m 1
 37.75 115 38.75 115 39.75 115 c 1
EndSplineSet
EndChar

StartChar: oacute
Encoding: 49 243 49
Width: 78
VWidth: 309
Flags: HW
LayerCount: 2
Fore
SplineSet
59 227 m 0
 56 227 53 226 51 223 c 0
 48 221 50 222 47 220 c 0
 42 215 37 211 32 206 c 0
 25 196 40 184 47 194 c 1
 53 198 59 203 64 208 c 0
 66 211 65 210 67 212 c 0
 72 219 66 227 59 227 c 0
43 159 m 0
 41 159 40 159 38 159 c 0
 36 159 35 158 33 158 c 0
 22 156 16 152 10 144 c 0
 5 138 4 130 4 123 c 0
 4 116 7 111 10 105 c 0
 14 99 19 96 25 93 c 0
 31 91 38 90 44 90 c 0
 53 91 61 95 67 102 c 0
 71 107 73 112 74 118 c 0
 75 123 73 129 72 134 c 0
 70 139 68 145 65 149 c 0
 61 154 55 157 49 159 c 0
 47 160 45 159 43 159 c 0
39 140 m 0
 41 140 43 139 45 139 c 1
 46 138 48 137 49 137 c 0
 51 134 53 132 54 129 c 0
 55 126 56 123 55 120 c 0
 54 117 52 114 50 112 c 0
 48 111 44 110 46 110 c 0
 47 110 48 110 48 110 c 1
 47 110 l 0
 43 109 39 109 35 110 c 0
 32 111 29 112 26 115 c 0
 24 117 23 121 23 124 c 0
 23 128 24 131 27 134 c 0
 28 135 29 136 30 137 c 0
 31 138 l 0
 33 138 36 138 38 140 c 0
 39 140 l 0
33 139 m 0
 32 138 l 1
 33 138 33 139 33 139 c 0
30 138 m 0
 30 138 l 0
EndSplineSet
EndChar

StartChar: iacute
Encoding: 50 237 50
Width: 50
VWidth: 309
Flags: HW
LayerCount: 2
Fore
SplineSet
36 223 m 0
 34 223 31 222 29 220 c 0
 26 218 23 216 21 213 c 0
 16 208 11 204 7 198 c 0
 1 188 18 178 24 188 c 1
 29 192 34 198 39 203 c 0
 41 205 43 207 44 209 c 0
 49 216 43 223 36 223 c 0
14 156 m 0
 9 156 4 153 4 147 c 0
 4 140 4 133 5 126 c 0
 6 120 6 113 7 107 c 0
 7 107 8 103 8 104 c 1
 6 92 24 89 26 101 c 0
 27 104 27 107 27 110 c 0
 26 116 26 124 25 130 c 0
 24 136 24 142 23 148 c 0
 23 154 19 156 14 156 c 0
EndSplineSet
EndChar

StartChar: eacute
Encoding: 51 233 51
Width: 82
VWidth: 309
Flags: HW
LayerCount: 2
Fore
SplineSet
53.265625 229 m 0
 51.265625 229 48.265625 228 46.265625 226 c 0
 42.265625 223 37.265625 220 33.265625 216 c 0
 26.265625 206 41.265625 194 48.265625 204 c 1
 52.265625 207 57.265625 210 61.265625 213 c 0
 67.265625 220 60.265625 229 53.265625 229 c 0
41.265625 170 m 0
 35.265625 170 28.265625 168 23.265625 164 c 0
 18.265625 160 13.265625 156 10.265625 150 c 0
 7.265625 145 5.265625 139 4.265625 133 c 0
 3.265625 127 5.265625 122 7.265625 116 c 0
 10.265625 110 12.265625 105 17.265625 100 c 0
 22.265625 95 28.265625 93 34.265625 91 c 0
 39.265625 89 45.265625 88 50.265625 88 c 0
 56.265625 88 61.265625 90 66.265625 92 c 0
 68.265625 93 68.265625 93 70.265625 94 c 0
 77.265625 98 78.265625 102 77.265625 110 c 1
 74.265625 119 62.265625 117 60.265625 110 c 0
 60.265625 110 59.265625 109 58.265625 109 c 0
 57.265625 108 55.265625 108 54.265625 108 c 0
 53.265625 108 53.265625 107 54.265625 107 c 1
 50.265625 106 46.265625 107 42.265625 108 c 0
 38.265625 109 35.265625 110 32.265625 113 c 0
 30.265625 115 28.265625 118 27.265625 120 c 1
 33.265625 121 39.265625 122 45.265625 123 c 0
 55.265625 125 61.265625 129 66.265625 138 c 0
 69.265625 145 67.265625 152 64.265625 158 c 0
 60.265625 164 54.265625 167 47.265625 169 c 0
 45.265625 170 43.265625 170 41.265625 170 c 0
39.265625 152 m 2
 39.265625 151 l 1
 42.265625 150 45.265625 151 47.265625 149 c 0
 48.265625 148 48.265625 146 48.265625 145 c 0
 47.265625 144 48.265625 144 47.265625 144 c 1
 49.265625 145 50.265625 144 46.265625 143 c 0
 45.265625 143 l 0
 39.265625 142 33.265625 140 27.265625 138 c 1
 26.265625 138 l 1
 27.265625 139 27.265625 141 28.265625 142 c 0
 31.265625 145 33.265625 148 37.265625 150 c 0
 41.265625 152 37.265625 150 35.265625 150 c 0
 33.265625 150 38.265625 152 39.265625 152 c 2
45.265625 143 m 1
 46.265625 143 l 0
 47.265625 144 l 1
 46.265625 144 45.265625 143 45.265625 143 c 1
EndSplineSet
EndChar

StartChar: aacute
Encoding: 52 225 52
Width: 97
VWidth: 309
Flags: HW
LayerCount: 2
Fore
SplineSet
64.392578125 227 m 2
 61.392578125 227 58.392578125 226 56.392578125 222 c 0
 55.392578125 222 l 0
 50.392578125 218 46.392578125 215 42.392578125 210 c 1
 35.392578125 200 50.392578125 188 57.392578125 198 c 1
 62.392578125 202 67.392578125 206 71.392578125 211 c 0
 72.392578125 212 72.392578125 213 73.392578125 214 c 0
 77.392578125 221 70.392578125 227 64.392578125 227 c 2
44.392578125 169 m 1
 38.392578125 169 31.392578125 168 25.392578125 164 c 0
 19.392578125 160 15.392578125 155 11.392578125 150 c 0
 8.392578125 145 5.392578125 139 4.392578125 133 c 0
 3.392578125 127 4.392578125 122 6.392578125 116 c 0
 9.392578125 109 14.392578125 105 20.392578125 101 c 0
 26.392578125 98 32.392578125 98 38.392578125 97 c 0
 47.392578125 96 54.392578125 101 60.392578125 107 c 0
 62.392578125 108 l 1
 64.392578125 103 67.392578125 99 71.392578125 95 c 0
 74.392578125 92 78.392578125 91 83.392578125 90 c 0
 94.392578125 89 96.392578125 107 85.392578125 109 c 1
 82.392578125 111 80.392578125 114 79.392578125 117 c 0
 78.392578125 121 78.392578125 124 77.392578125 128 c 0
 76.392578125 132 76.392578125 136 75.392578125 140 c 0
 74.392578125 143 74.392578125 146 73.392578125 148 c 1
 74.392578125 150 73.392578125 152 71.392578125 155 c 0
 66.392578125 162 59.392578125 166 52.392578125 168 c 0
 49.392578125 169 47.392578125 169 44.392578125 169 c 1
41.392578125 150 m 0
 42.392578125 150 43.392578125 150 44.392578125 150 c 0
 47.392578125 149 49.392578125 148 52.392578125 146 c 1
 51.392578125 143 51.392578125 141 51.392578125 138 c 0
 51.392578125 134 51.392578125 131 50.392578125 127 c 0
 49.392578125 124 47.392578125 120 44.392578125 118 c 0
 43.392578125 117 42.392578125 117 41.392578125 116 c 0
 40.392578125 115 l 0
 37.392578125 115 34.392578125 117 31.392578125 118 c 0
 28.392578125 119 26.392578125 121 24.392578125 123 c 0
 23.392578125 126 24.392578125 128 24.392578125 131 c 0
 25.392578125 134 27.392578125 137 29.392578125 140 c 0
 32.392578125 143 35.392578125 147 39.392578125 149 c 0
 43.392578125 150 38.392578125 149 36.392578125 149 c 0
 35.392578125 149 37.392578125 150 38.392578125 150 c 0
 39.392578125 150 40.392578125 150 41.392578125 150 c 0
45.392578125 116 m 0
 45.392578125 116 43.392578125 116 42.392578125 115 c 0
 41.392578125 115 42.392578125 115 41.392578125 115 c 1
 44.392578125 116 45.392578125 116 45.392578125 116 c 0
86.392578125 108 m 1
 87.392578125 108 87.392578125 107 86.392578125 108 c 1
EndSplineSet
EndChar

StartChar: g
Encoding: 53 103 53
Width: 86
VWidth: 309
Flags: HW
HStem: 108 21<38.9553 47.8471>
VStem: 61 20<33.0312 128.906>
LayerCount: 2
Fore
SplineSet
58 152 m 1
 54 155 50 158 45 159 c 0
 42 160 39 160 36 158 c 1
 45 162 37 157 35 156 c 0
 33 155 32 155 31 154 c 0
 28 152 26 148 25 145 c 0
 23 142 24 138 24 135 c 0
 25 132 27 130 29 128 c 0
 32 126 35 127 38 128 c 0
 40 129 46 129 39 128 c 0
 38 128 40 129 41 129 c 0
 43 130 43 131 44 132 c 0
 47 135 50 137 52 141 c 0
 54 145 54 149 55 153 c 0
 56 154 55 165 56 161 c 1
 79 163 73 165 74 154 c 0
 74 150 75 145 76 141 c 0
 77 135 78 129 79 123 c 0
 80 116 81 109 81 102 c 0
 82 96 82 90 82 84 c 0
 82 78 82 71 81 65 c 0
 81 59 81 54 80 48 c 0
 79 42 78 36 76 30 c 0
 71 20 67 19 57 16 c 1
 50 17 44 20 39 23 c 0
 34 26 30 31 26 35 c 0
 22 40 21 46 19 51 c 0
 15 63 33 70 37 58 c 1
 38 54 39 50 42 47 c 0
 45 44 48 41 52 39 c 0
 53 38 55 37 56 36 c 0
 57 36 57 35 58 35 c 0
 59 35 l 0
 58 35 l 0
 56 34 54 34 53 33 c 0
 52 33 54 33 55 33 c 0
 56 33 55 32 56 33 c 0
 57 35 l 0
 59 39 59 43 60 48 c 0
 61 54 61 60 61 66 c 0
 62 72 62 77 62 83 c 0
 62 89 62 94 61 100 c 0
 61 106 60 113 59 119 c 0
 58 125 57 132 57 138 c 0
 57 142 55 148 55 152 c 0
 55 156 53 189 74 166 c 1
 75 161 75 156 74 151 c 0
 73 146 73 141 71 136 c 0
 69 130 65 124 60 120 c 0
 53 114 45 108 35 108 c 0
 28 108 21 110 15 115 c 0
 10 120 6 125 5 132 c 0
 4 138 3 144 6 150 c 0
 8 156 11 160 15 165 c 0
 21 171 28 176 36 178 c 0
 42 179 48 179 54 177 c 0
 61 175 67 171 72 165 c 0
 80 156 66 143 58 152 c 1
EndSplineSet
EndChar

StartChar: b
Encoding: 54 98 54
Width: 87
VWidth: 309
Flags: HW
LayerCount: 2
Fore
SplineSet
22.3359375 271 m 1
 24.3359375 264 25.3359375 257 26.3359375 249 c 0
 27.3359375 242 27.3359375 235 27.3359375 228 c 0
 28.3359375 222 28.3359375 215 28.3359375 208 c 0
 28.3359375 201 29.3359375 194 29.3359375 187 c 0
 29.3359375 180 28.3359375 174 28.3359375 167 c 0
 28.3359375 161 28.3359375 157 28.3359375 151 c 0
 28.3359375 147 27.3359375 141 27.3359375 137 c 0
 27.3359375 132 26.3359375 128 26.3359375 123 c 0
 26.3359375 119 26.3359375 114 26.3359375 110 c 0
 26.3359375 109 26.3359375 109 26.3359375 108 c 0
 26.3359375 107 27.3359375 107 27.3359375 106 c 0
 27.3359375 105 27.3359375 103 27.3359375 104 c 0
 26.3359375 105 26.3359375 107 25.3359375 107 c 0
 20.3359375 107 14.3359375 106 9.3359375 105 c 1
 10.3359375 108 11.3359375 111 11.3359375 114 c 0
 11.3359375 119 12.3359375 123 13.3359375 127 c 0
 14.3359375 132 17.3359375 138 19.3359375 143 c 0
 21.3359375 148 25.3359375 153 29.3359375 157 c 0
 33.3359375 161 37.3359375 165 42.3359375 168 c 0
 49.3359375 173 57.3359375 174 65.3359375 171 c 0
 71.3359375 168 74.3359375 163 77.3359375 157 c 0
 79.3359375 153 80.3359375 148 81.3359375 144 c 0
 83.3359375 139 82.3359375 134 82.3359375 129 c 0
 82.3359375 123 81.3359375 118 79.3359375 112 c 0
 77.3359375 106 72.3359375 101 68.3359375 97 c 0
 63.3359375 92 57.3359375 89 50.3359375 86 c 1
 44.3359375 85 38.3359375 86 32.3359375 87 c 0
 26.3359375 89 23.3359375 94 19.3359375 99 c 0
 16.3359375 103 15.3359375 107 15.3359375 112 c 0
 15.3359375 124 34.3359375 125 34.3359375 113 c 1
 33.3359375 112 35.3359375 110 35.3359375 109 c 0
 36.3359375 107 38.3359375 105 40.3359375 105 c 0
 43.3359375 105 45.3359375 105 48.3359375 106 c 1
 38.3359375 102 51.3359375 107 52.3359375 109 c 0
 55.3359375 111 58.3359375 114 60.3359375 117 c 0
 62.3359375 121 63.3359375 124 63.3359375 128 c 0
 63.3359375 132 63.3359375 136 62.3359375 140 c 0
 61.3359375 143 60.3359375 147 59.3359375 150 c 0
 58.3359375 151 58.3359375 153 56.3359375 153 c 0
 53.3359375 153 52.3359375 152 58.3359375 155 c 0
 59.3359375 155 52.3359375 153 55.3359375 153 c 1
 51.3359375 152 49.3359375 149 46.3359375 147 c 0
 43.3359375 144 40.3359375 140 38.3359375 136 c 0
 36.3359375 132 34.3359375 128 33.3359375 124 c 0
 32.3359375 120 30.3359375 116 30.3359375 112 c 0
 29.3359375 108 29.3359375 104 28.3359375 100 c 1
 22.3359375 98 17.3359375 96 11.3359375 96 c 0
 9.3359375 96 7.3359375 107 7.3359375 108 c 0
 7.3359375 113 6.3359375 118 6.3359375 123 c 0
 7.3359375 127 7.3359375 132 7.3359375 136 c 0
 7.3359375 141 8.3359375 146 8.3359375 151 c 0
 9.3359375 156 9.3359375 161 9.3359375 166 c 0
 9.3359375 172 8.3359375 180 8.3359375 186 c 0
 8.3359375 193 8.3359375 199 8.3359375 206 c 0
 8.3359375 212 9.3359375 219 8.3359375 225 c 0
 7.3359375 232 6.3359375 239 5.3359375 246 c 0
 4.3359375 253 4.3359375 260 4.3359375 267 c 1
 1.3359375 279 19.3359375 283 22.3359375 271 c 1
EndSplineSet
EndChar

StartChar: h
Encoding: 55 104 55
Width: 79
VWidth: 309
Flags: HW
LayerCount: 2
Fore
SplineSet
23.4140625 280 m 1
 24.4140625 273 24.4140625 265 25.4140625 258 c 0
 26.4140625 250 27.4140625 244 27.4140625 236 c 0
 27.4140625 229 27.4140625 222 28.4140625 215 c 0
 28.4140625 208 29.4140625 201 29.4140625 194 c 0
 29.4140625 188 30.4140625 181 30.4140625 175 c 0
 30.4140625 169 30.4140625 162 30.4140625 156 c 0
 30.4140625 150 31.4140625 144 31.4140625 138 c 0
 31.4140625 133 31.4140625 128 31.4140625 123 c 0
 31.4140625 118 31.4140625 113 31.4140625 108 c 0
 31.4140625 96 32.4140625 100 13.4140625 102 c 0
 13.4140625 105 13.4140625 108 13.4140625 111 c 0
 13.4140625 116 13.4140625 122 13.4140625 127 c 0
 13.4140625 133 13.4140625 139 14.4140625 144 c 0
 15.4140625 150 17.4140625 155 19.4140625 160 c 0
 21.4140625 165 22.4140625 170 25.4140625 175 c 0
 29.4140625 183 36.4140625 188 45.4140625 188 c 0
 52.4140625 188 58.4140625 185 63.4140625 180 c 0
 67.4140625 176 68.4140625 171 70.4140625 166 c 0
 72.4140625 161 72.4140625 155 73.4140625 149 c 0
 73.4140625 144 73.4140625 138 73.4140625 133 c 0
 73.4140625 127 73.4140625 122 73.4140625 116 c 0
 73.4140625 111 73.4140625 107 74.4140625 102 c 0
 75.4140625 100 74.4140625 98 74.4140625 96 c 0
 75.4140625 84 57.4140625 82 56.4140625 94 c 1
 56.4140625 96 55.4140625 97 55.4140625 99 c 0
 54.4140625 105 53.4140625 109 54.4140625 115 c 0
 54.4140625 120 54.4140625 126 54.4140625 131 c 0
 54.4140625 136 53.4140625 142 53.4140625 147 c 0
 53.4140625 152 53.4140625 156 52.4140625 160 c 0
 51.4140625 163 50.4140625 165 48.4140625 167 c 0
 47.4140625 168 44.4140625 169 42.4140625 169 c 1
 41.4140625 167 42.4140625 168 47.4140625 171 c 0
 46.4140625 172 l 0
 44.4140625 172 44.4140625 169 43.4140625 168 c 0
 40.4140625 164 40.4140625 159 38.4140625 155 c 0
 36.4140625 151 34.4140625 147 34.4140625 142 c 0
 33.4140625 137 33.4140625 132 33.4140625 127 c 0
 33.4140625 122 32.4140625 118 32.4140625 113 c 0
 32.4140625 108 32.4140625 103 31.4140625 98 c 1
 10.4140625 97 11.4140625 92 11.4140625 107 c 0
 11.4140625 112 11.4140625 116 11.4140625 121 c 0
 11.4140625 126 11.4140625 131 11.4140625 136 c 0
 11.4140625 142 11.4140625 148 11.4140625 154 c 0
 11.4140625 160 10.4140625 167 10.4140625 173 c 0
 10.4140625 180 9.4140625 186 9.4140625 193 c 0
 9.4140625 200 8.4140625 205 8.4140625 212 c 0
 7.4140625 219 6.4140625 227 6.4140625 234 c 0
 6.4140625 241 6.4140625 249 5.4140625 256 c 0
 4.4140625 263 3.4140625 271 4.4140625 278 c 1
 2.4140625 290 21.4140625 292 23.4140625 280 c 1
EndSplineSet
EndChar

StartChar: f
Encoding: 56 102 56
Width: 80
VWidth: 309
Flags: HW
HStem: 97 19<7.47002 13.5156> 106 16<36.7038 59.9384> 153 20G<48.0156 49.0156> 173 21G<49.0156 49.0156>
VStem: 17.5156 20<126 165.147> 55.5156 20<142.593 172.977>
LayerCount: 2
Fore
SplineSet
59.515625 189 m 1x6c
 56.515625 191 53.515625 192 49.515625 192 c 0
 46.515625 191 43.515625 190 40.515625 189 c 0
 34.515625 187 30.515625 181 27.515625 176 c 0
 24.515625 171 22.515625 165 21.515625 159 c 0
 20.515625 154 18.515625 148 18.515625 143 c 0
 17.515625 137 17.515625 132 17.515625 126 c 0
 17.515625 123 16.515625 119 16.515625 116 c 0
 15.515625 116 14.515625 116 13.515625 116 c 0
 1.515625 117 0.515625 98 12.515625 97 c 0
 13.515625 97 14.515625 97 15.515625 97 c 1xac
 15.515625 96 15.515625 95 15.515625 94 c 0
 15.515625 89 14.515625 83 14.515625 78 c 0
 14.515625 73 14.515625 67 14.515625 62 c 0
 14.515625 56 14.515625 50 14.515625 44 c 0
 14.515625 37 14.515625 30 16.515625 23 c 0
 19.515625 11 38.515625 15 35.515625 27 c 1
 35.515625 33 34.515625 40 34.515625 46 c 0
 34.515625 52 34.515625 58 34.515625 64 c 0
 34.515625 69 33.515625 74 33.515625 79 c 0
 33.515625 84 34.515625 89 34.515625 94 c 0
 34.515625 96 35.515625 98 35.515625 100 c 1
 40.515625 101 44.515625 101 49.515625 102 c 0
 54.515625 104 51.515625 103 59.515625 106 c 1
 68.515625 113 58.515625 127 49.515625 122 c 0
 45.515625 120 40.515625 120 36.515625 119 c 1
 36.515625 121 37.515625 124 37.515625 126 c 0
 38.515625 131 38.515625 138 38.515625 143 c 0
 39.515625 148 40.515625 152 41.515625 157 c 0
 42.515625 161 44.515625 166 46.515625 170 c 0
 47.515625 171 47.515625 172 48.515625 173 c 0
 49.515625 173 50.515625 171 51.515625 170 c 0
 53.515625 167 54.515625 165 55.515625 162 c 0
 55.515625 159 55.515625 155 55.515625 152 c 0
 55.515625 150 55.515625 151 54.515625 149 c 0
 53.515625 137 73.515625 134 74.515625 146 c 0
 75.515625 150 75.515625 148 75.515625 152 c 0
 75.515625 157 75.515625 162 74.515625 167 c 0
 73.515625 172 70.515625 178 67.515625 182 c 0
 65.515625 185 62.515625 187 59.515625 189 c 1x6c
51.515625 174 m 0
 52.515625 174 l 0
 51.515625 173 49.515625 173 48.515625 173 c 1
 49.515625 174 50.515625 174 51.515625 174 c 0
EndSplineSet
EndChar

StartChar: e
Encoding: 57 101 57
Width: 89
VWidth: 309
Flags: HW
HStem: 86 21<30.4934 64.958> 122 19<24.5828 60.5989>
VStem: 56.5989 19<141.156 155.082>
LayerCount: 2
Fore
SplineSet
31.59765625 141 m 1
 37.59765625 141 44.59765625 140 50.59765625 141 c 0
 53.59765625 141 57.59765625 141 60.59765625 142 c 0
 61.59765625 143 l 0
 59.59765625 143 58.59765625 142 56.59765625 141 c 1
 56.59765625 139 56.59765625 141 56.59765625 142 c 0
 56.59765625 145 55.59765625 148 54.59765625 151 c 0
 53.59765625 153 51.59765625 156 49.59765625 155 c 1
 46.59765625 156 43.59765625 155 40.59765625 154 c 0
 38.59765625 153 32.59765625 152 40.59765625 154 c 0
 41.59765625 154 39.59765625 153 38.59765625 153 c 0
 34.59765625 151 l 0
 30.59765625 149 27.59765625 146 25.59765625 142 c 0
 23.59765625 139 22.59765625 136 23.59765625 132 c 0
 23.59765625 128 25.59765625 123 27.59765625 119 c 0
 29.59765625 116 30.59765625 112 33.59765625 110 c 0
 36.59765625 107 40.59765625 106 44.59765625 105 c 0
 47.59765625 105 51.59765625 103 54.59765625 105 c 0
 56.59765625 105 58.59765625 107 60.59765625 107 c 0
 61.59765625 107 63.59765625 107 62.59765625 107 c 0
 58.59765625 106 51.59765625 104 65.59765625 109 c 1
 56.59765625 105 66.59765625 110 66.59765625 110 c 0
 66.59765625 108 l 1
 70.59765625 119 88.59765625 114 84.59765625 103 c 1
 81.59765625 95 74.59765625 92 66.59765625 90 c 1
 78.59765625 94 55.59765625 85 53.59765625 86 c 0
 47.59765625 86 41.59765625 86 35.59765625 88 c 0
 29.59765625 90 24.59765625 93 19.59765625 97 c 0
 15.59765625 101 12.59765625 106 9.59765625 111 c 0
 7.59765625 116 5.59765625 122 4.59765625 128 c 0
 3.59765625 135 3.59765625 142 6.59765625 149 c 0
 9.59765625 156 13.59765625 161 20.59765625 165 c 0
 27.59765625 169 33.59765625 172 41.59765625 173 c 0
 47.59765625 174 53.59765625 174 58.59765625 172 c 0
 65.59765625 169 69.59765625 165 72.59765625 158 c 0
 74.59765625 153 75.59765625 148 75.59765625 142 c 0
 74.59765625 136 74.59765625 130 69.59765625 126 c 0
 66.59765625 125 64.59765625 124 61.59765625 123 c 0
 57.59765625 121 52.59765625 123 47.59765625 122 c 0
 41.59765625 122 33.59765625 121 27.59765625 122 c 0
 15.59765625 125 19.59765625 144 31.59765625 141 c 1
EndSplineSet
EndChar

StartChar: d
Encoding: 58 100 58
Width: 84
VWidth: 309
Flags: HW
HStem: 86 19<31.0945 59.7808> 147 19<36.1868 52.9062>
VStem: 4 19<106.907 140.703> 57 20<160.719 250.662> 59 1<105.235 130.964> 79 1<95 97 107.235 125.905>
LayerCount: 2
Fore
SplineSet
73 246 m 1xf4
 75 239 76 233 76 226 c 0
 77 220 77 212 77 206 c 0xf4
 78 200 78 194 79 188 c 0
 79 182 80 176 80 170 c 0
 80 164 80 158 80 152 c 0
 80 147 79 140 79 135 c 0
 79 130 80 124 80 119 c 0
 80 114 80 109 80 104 c 0
 80 102 80 99 80 97 c 0
 80 96 80 94 79 95 c 0
 79 96 79 96 79 97 c 0
 57 94 61 91 60 105 c 0
 60 110 59 116 59 121 c 0
 59 126 59 129 58 134 c 0
 57 138 55 141 53 144 c 0
 51 145 49 147 47 147 c 0
 43 148 40 147 36 147 c 0
 34 146 29 145 37 147 c 0
 36 146 l 0
 35 145 34 145 33 144 c 0
 30 141 27 138 25 134 c 0
 23 131 23 128 23 124 c 0
 23 120 25 116 26 112 c 0
 27 109 28 108 31 106 c 0
 33 105 36 105 39 105 c 0
 44 105 48 105 53 106 c 0
 54 106 67 111 59 108 c 1xec
 69 116 81 101 71 93 c 1
 64 90 58 87 51 87 c 0
 45 86 40 85 34 86 c 0
 28 86 23 88 18 91 c 0
 13 95 10 100 8 106 c 0
 6 111 4 116 4 122 c 0
 4 128 4 134 6 139 c 0
 8 145 12 151 17 156 c 0
 23 162 30 166 39 166 c 0
 44 166 49 166 54 165 c 0
 60 163 66 160 70 155 c 0
 73 150 76 145 77 139 c 0xf4
 78 134 78 128 79 123 c 0
 79 118 80 112 80 107 c 0
 80 92 84 96 62 90 c 1
 61 94 59 99 60 103 c 0
 60 108 60 112 60 117 c 0
 59 123 60 129 60 135 c 0
 60 141 60 145 60 151 c 0
 60 157 60 162 60 168 c 0
 60 174 59 179 59 185 c 0xec
 58 191 57 198 57 204 c 0
 56 210 57 217 56 223 c 0
 56 229 54 236 54 242 c 1
 51 254 70 258 73 246 c 1xf4
EndSplineSet
EndChar

StartChar: a
Encoding: 59 97 59
Width: 86
VWidth: 309
Flags: HW
HStem: 135 20G<72.8918 74.3918> 150 18<41.3918 55.5699>
VStem: 57.3918 17<145.625 152.822> 60.3918 19<102.093 113.85>
LayerCount: 2
Fore
SplineSet
55.392578125 145 m 1x60
 50.392578125 147 46.392578125 150 41.392578125 150 c 1x60
 44.392578125 153 33.392578125 148 35.392578125 148 c 0
 37.392578125 149 41.392578125 151 38.392578125 149 c 0
 34.392578125 147 31.392578125 144 29.392578125 140 c 0
 26.392578125 136 25.392578125 132 24.392578125 127 c 0
 23.392578125 123 24.392578125 119 25.392578125 115 c 0
 26.392578125 112 27.392578125 111 30.392578125 110 c 0
 33.392578125 109 36.392578125 109 39.392578125 110 c 0
 40.392578125 110 l 0
 39.392578125 110 37.392578125 109 36.392578125 109 c 0
 36.392578125 109 37.392578125 109 39.392578125 111 c 0
 40.392578125 112 41.392578125 113 42.392578125 114 c 0
 46.392578125 117 48.392578125 121 50.392578125 125 c 0
 52.392578125 130 52.392578125 136 53.392578125 141 c 0
 54.392578125 146 54.392578125 150 55.392578125 155 c 0
 57.392578125 164 59.392578125 161 75.392578125 158 c 0
 76.392578125 158 76.392578125 152 76.392578125 151 c 0
 76.392578125 146 76.392578125 142 76.392578125 137 c 0
 76.392578125 132 77.392578125 126 77.392578125 121 c 0
 77.392578125 116 78.392578125 112 79.392578125 107 c 0
 79.392578125 105 79.392578125 104 80.392578125 102 c 0
 80.392578125 100 l 0
 79.392578125 102 l 0
 78.392578125 103 78.392578125 102 77.392578125 103 c 1
 87.392578125 98 79.392578125 82 69.392578125 87 c 1
 68.392578125 88 67.392578125 88 66.392578125 89 c 0
 62.392578125 93 60.392578125 97 60.392578125 103 c 0x90
 59.392578125 108 58.392578125 113 57.392578125 118 c 0
 56.392578125 124 57.392578125 130 57.392578125 136 c 0
 57.392578125 140 57.392578125 144 57.392578125 148 c 0
 56.392578125 160 71.392578125 145 74.392578125 155 c 1xa0
 74.392578125 150 74.392578125 145 73.392578125 140 c 0
 72.392578125 133 71.392578125 126 69.392578125 120 c 0
 66.392578125 114 63.392578125 108 58.392578125 103 c 0
 52.392578125 97 46.392578125 91 37.392578125 90 c 0
 31.392578125 90 25.392578125 91 19.392578125 94 c 0
 13.392578125 98 8.392578125 103 6.392578125 110 c 0
 4.392578125 116 3.392578125 122 4.392578125 128 c 0
 5.392578125 135 7.392578125 141 11.392578125 147 c 0
 14.392578125 153 18.392578125 158 23.392578125 162 c 0
 30.392578125 167 39.392578125 169 48.392578125 168 c 0
 55.392578125 167 62.392578125 165 68.392578125 160 c 0
 77.392578125 152 64.392578125 137 55.392578125 145 c 1x60
EndSplineSet
EndChar

StartChar: c
Encoding: 60 99 60
Width: 69
VWidth: 309
Flags: HW
HStem: 86 19<28.6333 53.2732> 132 39G<26.9145 36.4145> 150 16<32.7888 55.8703>
LayerCount: 2
Fore
SplineSet
43.4140625 150 m 1xa0
 38.4140625 151 34.4140625 152 29.4140625 151 c 0
 29.4140625 151 27.4140625 151 28.4140625 151 c 0
 29.4140625 151 31.4140625 152 32.4140625 152 c 0
 31.4140625 151 l 0
 29.4140625 150 28.4140625 149 27.4140625 148 c 0
 24.4140625 145 24.4140625 141 23.4140625 137 c 0
 22.4140625 132 23.4140625 128 24.4140625 123 c 0
 25.4140625 118 27.4140625 114 29.4140625 110 c 0
 30.4140625 108 33.4140625 106 35.4140625 105 c 0
 38.4140625 105 40.4140625 105 43.4140625 105 c 0
 46.4140625 106 50.4140625 105 53.4140625 107 c 1
 51.4140625 106 51.4140625 106 49.4140625 105 c 1
 58.4140625 113 71.4140625 99 62.4140625 91 c 1
 59.4140625 90 57.4140625 89 54.4140625 88 c 0
 49.4140625 87 44.4140625 86 39.4140625 86 c 0
 34.4140625 86 29.4140625 87 24.4140625 89 c 0
 19.4140625 92 14.4140625 97 11.4140625 102 c 0
 8.4140625 108 6.4140625 113 5.4140625 119 c 0
 4.4140625 125 3.4140625 132 4.4140625 138 c 0
 5.4140625 145 5.4140625 151 9.4140625 157 c 0
 15.4140625 165 21.4140625 170 32.4140625 171 c 0xc0
 40.4140625 171 47.4140625 170 54.4140625 166 c 0
 64.4140625 159 53.4140625 143 43.4140625 150 c 1xa0
EndSplineSet
EndChar

StartChar: k
Encoding: 61 107 61
Width: 88
VWidth: 309
Flags: HW
LayerCount: 2
Fore
SplineSet
75.3359375 194 m 1
 71.3359375 196 65.3359375 196 62.3359375 191 c 1
 57.3359375 187 52.3359375 181 47.3359375 176 c 0
 42.3359375 172 38.3359375 167 33.3359375 163 c 0
 31.3359375 161 28.3359375 159 26.3359375 157 c 1
 26.3359375 158 l 0
 25.3359375 166 24.3359375 174 22.3359375 181 c 0
 19.3359375 193 1.3359375 189 4.3359375 177 c 1
 4.3359375 170 4.3359375 162 5.3359375 155 c 0
 6.3359375 148 7.3359375 140 8.3359375 133 c 0
 9.3359375 126 9.3359375 121 10.3359375 114 c 0
 10.3359375 109 11.3359375 103 11.3359375 98 c 0
 12.3359375 95 12.3359375 92 12.3359375 92 c 1
 12.3359375 85 24.3359375 79 29.3359375 87 c 1
 30.3359375 92 32.3359375 95 31.3359375 100 c 0
 31.3359375 105 30.3359375 112 30.3359375 117 c 0
 30.3359375 122 29.3359375 128 28.3359375 133 c 1
 31.3359375 134 34.3359375 134 37.3359375 134 c 0
 41.3359375 135 46.3359375 136 50.3359375 136 c 0
 53.3359375 136 56.3359375 137 59.3359375 136 c 0
 60.3359375 136 61.3359375 134 61.3359375 133 c 0
 62.3359375 130 64.3359375 126 64.3359375 123 c 0
 64.3359375 119 65.3359375 113 65.3359375 109 c 0
 65.3359375 109 65.3359375 102 65.3359375 100 c 0
 63.3359375 91 77.3359375 85 82.3359375 94 c 0
 82.3359375 95 83.3359375 96 83.3359375 97 c 0
 84.3359375 102 84.3359375 107 84.3359375 112 c 0
 84.3359375 117 84.3359375 121 83.3359375 126 c 0
 82.3359375 131 81.3359375 136 79.3359375 140 c 0
 77.3359375 145 74.3359375 150 69.3359375 153 c 0
 64.3359375 155 58.3359375 156 53.3359375 155 c 1
 57.3359375 158 60.3359375 162 64.3359375 166 c 0
 69.3359375 171 74.3359375 175 78.3359375 181 c 0
 81.3359375 186 79.3359375 192 75.3359375 194 c 1
EndSplineSet
EndChar

StartChar: n
Encoding: 62 110 62
Width: 69
VWidth: 309
Flags: HW
LayerCount: 2
Fore
SplineSet
6.4443359375 93 m 1
 5.4443359375 100 5.4443359375 106 4.4443359375 113 c 0
 3.4443359375 120 4.4443359375 127 4.4443359375 134 c 0
 4.4443359375 141 6.4443359375 149 9.4443359375 156 c 0
 12.4443359375 162 16.4443359375 166 21.4443359375 170 c 0
 26.4443359375 174 30.4443359375 177 36.4443359375 178 c 0
 38.4443359375 178 41.4443359375 177 43.4443359375 177 c 0
 49.4443359375 175 53.4443359375 169 56.4443359375 164 c 0
 59.4443359375 159 61.4443359375 154 62.4443359375 148 c 0
 63.4443359375 142 64.4443359375 137 64.4443359375 131 c 0
 64.4443359375 126 64.4443359375 120 64.4443359375 115 c 0
 64.4443359375 110 64.4443359375 104 64.4443359375 99 c 0
 64.4443359375 97 63.4443359375 95 63.4443359375 93 c 0
 63.4443359375 81 44.4443359375 80 44.4443359375 92 c 1
 44.4443359375 94 44.4443359375 96 44.4443359375 98 c 0
 44.4443359375 103 45.4443359375 109 45.4443359375 114 c 0
 45.4443359375 119 45.4443359375 124 45.4443359375 129 c 0
 45.4443359375 134 44.4443359375 139 43.4443359375 144 c 0
 42.4443359375 148 41.4443359375 151 39.4443359375 155 c 0
 38.4443359375 156 37.4443359375 159 36.4443359375 159 c 1
 35.4443359375 157 35.4443359375 158 40.4443359375 160 c 0
 44.4443359375 162 31.4443359375 157 36.4443359375 158 c 1
 33.4443359375 155 30.4443359375 153 28.4443359375 149 c 0
 25.4443359375 144 24.4443359375 140 24.4443359375 135 c 0
 24.4443359375 129 23.4443359375 122 24.4443359375 116 c 0
 24.4443359375 109 26.4443359375 102 25.4443359375 95 c 1
 27.4443359375 83 8.4443359375 81 6.4443359375 93 c 1
EndSplineSet
EndChar

StartChar: m
Encoding: 63 109 63
Width: 101
VWidth: 309
Flags: HW
HStem: 167 19<66.0476 74.2042> 167 1<70.8223 71.9495>
VStem: 4 21<97 138.75 150 162.812> 35 19<129.86 152> 35 1<134.188 151.106> 74 20<84.5938 99.1586 110.051 167>
LayerCount: 2
Fore
SplineSet
4 96 m 1x74
 4 103 4 108 4 115 c 0
 4 121 5 128 5 134 c 0
 5 139 6 145 7 150 c 0
 8 155 8 160 9 165 c 0
 11 171 14 176 19 180 c 0
 27 186 35 185 43 180 c 0
 49 176 51 170 53 163 c 0
 54 158 54 152 54 147 c 0
 54 143 54 139 54 135 c 0
 54 125 53 127 35 130 c 0
 35 130 35 133 35 134 c 0x74
 35 138 36 142 36 146 c 0
 36 152 38 157 40 162 c 0
 42 168 46 173 50 177 c 0
 56 182 63 186 71 186 c 0
 78 185 84 181 88 176 c 0
 92 171 93 165 94 159 c 0
 95 154 96 149 96 144 c 0
 96 139 96 133 96 128 c 0
 96 122 95 116 94 110 c 0
 93 106 94 101 94 97 c 0
 94 94 93 92 92 90 c 0
 89 79 71 84 74 95 c 1
 74 100 73 106 74 111 c 0
 75 117 75 122 76 128 c 0
 76 133 76 138 76 143 c 0
 76 147 76 152 75 156 c 0
 75 159 74 162 72 165 c 0
 71 167 70 167 68 167 c 0xac
 65 166 71 168 72 168 c 0
 71 168 l 0
 69 167 67 167 66 166 c 0
 63 164 61 159 59 156 c 0
 57 153 55 150 55 146 c 0
 55 143 54 139 54 136 c 0x74
 54 129 50 135 36 132 c 0
 35 132 37 130 36 130 c 0x6c
 35 132 l 0
 34 137 35 142 35 147 c 0
 36 151 35 155 34 159 c 0
 34 161 34 163 32 165 c 0
 30 166 25 164 34 167 c 1
 33 167 l 0
 31 167 29 165 28 163 c 0
 27 159 27 154 26 150 c 0
 26 145 25 140 25 135 c 0
 25 129 25 122 25 116 c 0
 25 109 24 103 23 97 c 1
 24 85 5 84 4 96 c 1x74
EndSplineSet
EndChar

StartChar: l
Encoding: 64 108 64
Width: 46
VWidth: 309
Flags: HW
HStem: 84 18<28.3415 38.8938>
VStem: 5.27897 20<155.625 248.552> 7.27897 21<101 252.041>
LayerCount: 2
Fore
SplineSet
23.2802734375 248 m 1xc0
 24.2802734375 241 25.2802734375 234 25.2802734375 227 c 0xc0
 25.2802734375 220 26.2802734375 213 27.2802734375 206 c 0
 27.2802734375 199 27.2802734375 192 27.2802734375 185 c 0
 27.2802734375 177 28.2802734375 170 28.2802734375 162 c 0
 28.2802734375 154 28.2802734375 146 28.2802734375 138 c 0
 28.2802734375 131 28.2802734375 124 28.2802734375 117 c 0
 28.2802734375 112 28.2802734375 106 28.2802734375 101 c 0
 29.2802734375 99 28.2802734375 101 30.2802734375 102 c 0
 32.2802734375 102 32.2802734375 102 34.2802734375 102 c 0
 46.2802734375 100 44.2802734375 82 32.2802734375 84 c 1
 29.2802734375 84 26.2802734375 83 23.2802734375 84 c 0
 14.2802734375 86 11.2802734375 90 9.2802734375 99 c 0
 9.2802734375 104 9.2802734375 111 8.2802734375 116 c 0
 8.2802734375 123 7.2802734375 130 7.2802734375 137 c 0
 7.2802734375 145 7.2802734375 152 7.2802734375 160 c 0
 7.2802734375 168 7.2802734375 175 7.2802734375 183 c 0
 7.2802734375 190 7.2802734375 197 7.2802734375 204 c 0xa0
 6.2802734375 211 6.2802734375 218 5.2802734375 225 c 0
 5.2802734375 232 3.2802734375 239 4.2802734375 246 c 1
 2.2802734375 258 21.2802734375 260 23.2802734375 248 c 1xc0
EndSplineSet
EndChar

StartChar: i
Encoding: 65 105 65
Width: 40
VWidth: 309
Flags: HW
HStem: 183 36<9.08985 32.374>
VStem: 4.00027 32<186.307 214.719> 4.00027 20<85.5625 111 152 160.506>
LayerCount: 2
Fore
SplineSet
19 219 m 0xa0
 16 219 13 218 11 215 c 0
 6 209 4 203 4 195 c 0
 6 185 12 182 21 183 c 0
 24 184 27 185 29 186 c 0
 35 190 37 199 36 205 c 0xc0
 34 212 30 216 24 217 c 0
 22 218 21 219 19 219 c 0xa0
14 161 m 1
 9 161 5 158 5 152 c 1
 4 145 4 138 4 131 c 0
 4 124 5 118 5 111 c 0
 5 105 6 99 7 93 c 0
 7 92 l 0
 8 80 27 82 26 94 c 0
 26 95 26 95 26 96 c 0
 26 102 25 107 25 113 c 0
 25 120 24 126 24 133 c 0
 24 140 25 146 24 153 c 1xa0
 24 159 19 161 14 161 c 1
EndSplineSet
EndChar

StartChar: j
Encoding: 66 106 66
Width: 95
VWidth: 309
Flags: HW
LayerCount: 2
Fore
SplineSet
74.3203125 239 m 0
 65.3203125 239 62.3203125 232 61.3203125 224 c 1
 59.3203125 222 57.3203125 220 55.3203125 217 c 0
 51.3203125 208 55.3203125 201 63.3203125 196 c 1
 73.3203125 193 81.3203125 196 87.3203125 204 c 0
 91.3203125 210 91.3203125 216 90.3203125 223 c 0
 89.3203125 231 85.3203125 235 78.3203125 238 c 0
 76.3203125 238 75.3203125 239 74.3203125 239 c 0
72.3203125 209 m 1
 73.3203125 209 l 0
 74.3203125 209 l 1
 74.3203125 209 73.3203125 208 69.3203125 207 c 0
 68.3203125 207 70.3203125 208 72.3203125 209 c 1
68.3203125 188 m 1
 63.3203125 188 59.3203125 184 59.3203125 178 c 1
 58.3203125 172 57.3203125 165 57.3203125 159 c 0
 57.3203125 153 56.3203125 148 56.3203125 142 c 0
 56.3203125 136 56.3203125 131 56.3203125 125 c 0
 56.3203125 120 56.3203125 115 56.3203125 110 c 0
 56.3203125 105 55.3203125 99 55.3203125 94 c 0
 55.3203125 90 55.3203125 85 55.3203125 81 c 0
 55.3203125 76 54.3203125 72 53.3203125 67 c 0
 52.3203125 62 52.3203125 58 51.3203125 53 c 0
 50.3203125 49 49.3203125 45 48.3203125 41 c 0
 47.3203125 39 46.3203125 37 43.3203125 36 c 0
 42.3203125 37 42.3203125 37 43.3203125 37 c 1
 42.3203125 37 41.3203125 36 40.3203125 36 c 0
 37.3203125 36 34.3203125 38 31.3203125 39 c 0
 28.3203125 41 26.3203125 43 25.3203125 46 c 0
 24.3203125 48 23.3203125 50 23.3203125 52 c 0
 20.3203125 64 1.3203125 60 4.3203125 48 c 0
 5.3203125 44 5.3203125 40 7.3203125 37 c 0
 10.3203125 32 14.3203125 27 19.3203125 24 c 0
 24.3203125 21 30.3203125 18 36.3203125 18 c 0
 43.3203125 18 51.3203125 18 57.3203125 23 c 0
 62.3203125 27 66.3203125 31 68.3203125 37 c 0
 69.3203125 42 70.3203125 47 71.3203125 52 c 0
 72.3203125 57 72.3203125 61 73.3203125 66 c 0
 74.3203125 71 74.3203125 76 74.3203125 81 c 0
 74.3203125 86 75.3203125 91 75.3203125 96 c 0
 75.3203125 101 75.3203125 105 75.3203125 110 c 0
 75.3203125 115 76.3203125 121 76.3203125 126 c 0
 76.3203125 131 76.3203125 137 76.3203125 142 c 0
 76.3203125 148 77.3203125 154 77.3203125 160 c 0
 77.3203125 166 79.3203125 173 78.3203125 179 c 1
 78.3203125 185 73.3203125 188 68.3203125 188 c 1
43.3203125 37 m 1
 44.3203125 37 l 0
 45.3203125 37 47.3203125 37 46.3203125 37 c 0
 45.3203125 37 44.3203125 37 43.3203125 37 c 1
EndSplineSet
EndChar

StartChar: t
Encoding: 67 116 67
Width: 89
VWidth: 309
Flags: HW
LayerCount: 2
Fore
SplineSet
49.2451171875 226 m 0
 44.2451171875 230 35.2451171875 228 33.2451171875 221 c 1
 29.2451171875 214 29.2451171875 207 27.2451171875 200 c 0
 26.2451171875 193 25.2451171875 187 25.2451171875 180 c 0
 25.2451171875 178 25.2451171875 175 25.2451171875 173 c 1
 22.2451171875 173 18.2451171875 173 15.2451171875 172 c 1
 3.2451171875 175 -0.7548828125 156 11.2451171875 153 c 0
 16.2451171875 152 20.2451171875 153 25.2451171875 153 c 1
 25.2451171875 149 25.2451171875 147 25.2451171875 143 c 0
 25.2451171875 137 24.2451171875 132 24.2451171875 126 c 0
 24.2451171875 121 25.2451171875 115 25.2451171875 110 c 0
 25.2451171875 103 26.2451171875 97 30.2451171875 92 c 0
 34.2451171875 87 39.2451171875 86 45.2451171875 84 c 0
 50.2451171875 83 56.2451171875 83 61.2451171875 83 c 0
 69.2451171875 84 76.2451171875 87 82.2451171875 92 c 0
 90.2451171875 101 75.2451171875 113 67.2451171875 104 c 0
 66.2451171875 104 59.2451171875 102 63.2451171875 103 c 0
 64.2451171875 103 64.2451171875 103 64.2451171875 103 c 1
 63.2451171875 103 62.2451171875 102 62.2451171875 102 c 0
 59.2451171875 101 56.2451171875 101 53.2451171875 101 c 0
 51.2451171875 101 48.2451171875 102 46.2451171875 103 c 0
 44.2451171875 105 44.2451171875 109 44.2451171875 112 c 0
 44.2451171875 117 44.2451171875 122 44.2451171875 127 c 0
 44.2451171875 133 44.2451171875 138 44.2451171875 144 c 0
 44.2451171875 148 45.2451171875 151 45.2451171875 155 c 1
 48.2451171875 156 50.2451171875 156 53.2451171875 157 c 0
 60.2451171875 158 66.2451171875 160 72.2451171875 163 c 1
 79.2451171875 171 69.2451171875 182 61.2451171875 178 c 0
 59.2451171875 178 56.2451171875 178 54.2451171875 177 c 0
 51.2451171875 177 48.2451171875 176 45.2451171875 175 c 1
 45.2451171875 177 45.2451171875 179 45.2451171875 181 c 0
 45.2451171875 187 45.2451171875 192 47.2451171875 197 c 0
 48.2451171875 203 50.2451171875 210 52.2451171875 216 c 0
 53.2451171875 220 52.2451171875 224 49.2451171875 226 c 0
EndSplineSet
EndChar

StartChar: x
Encoding: 68 120 68
Width: 79
Flags: HW
VStem: 8.73396 18<90.8645 98.9964>
LayerCount: 2
Fore
SplineSet
64.7333984375 158 m 0
 61.7333984375 158 59.7333984375 156 57.7333984375 153 c 1
 51.7333984375 150 47.7333984375 145 42.7333984375 140 c 0
 40.7333984375 138 37.7333984375 135 35.7333984375 133 c 1
 31.7333984375 138 26.7333984375 143 21.7333984375 148 c 1
 14.7333984375 158 -1.2666015625 147 5.7333984375 137 c 0
 9.7333984375 131 14.7333984375 125 18.7333984375 120 c 0
 19.7333984375 119 20.7333984375 118 21.7333984375 117 c 1
 18.7333984375 114 15.7333984375 112 13.7333984375 109 c 0
 10.7333984375 106 9.7333984375 103 8.7333984375 99 c 0
 5.7333984375 87 23.7333984375 83 26.7333984375 95 c 1
 27.7333984375 94 29.7333984375 99 30.7333984375 99 c 0
 31.7333984375 100 33.7333984375 101 34.7333984375 102 c 1
 37.7333984375 99 39.7333984375 96 42.7333984375 93 c 0
 46.7333984375 88 50.7333984375 85 56.7333984375 83 c 1
 67.7333984375 82 71.7333984375 88 70.7333984375 97 c 0
 69.7333984375 103 63.7333984375 105 58.7333984375 104 c 0
 57.7333984375 105 57.7333984375 105 57.7333984375 105 c 0
 54.7333984375 109 50.7333984375 113 47.7333984375 117 c 1
 51.7333984375 121 54.7333984375 124 58.7333984375 128 c 0
 63.7333984375 133 69.7333984375 138 73.7333984375 143 c 0
 77.7333984375 150 71.7333984375 158 64.7333984375 158 c 0
63.7333984375 100 m 1
 64.7333984375 99 64.7333984375 99 63.7333984375 100 c 1
EndSplineSet
EndChar

StartChar: u
Encoding: 69 117 69
Width: 75
VWidth: 309
Flags: HW
VStem: 50.75 20<104.816 164.575>
LayerCount: 2
Fore
SplineSet
28.75 155 m 1
 27.75 148 26.75 141 25.75 134 c 0
 24.75 128 24.75 121 24.75 115 c 0
 24.75 111 25.75 109 27.75 106 c 0
 29.75 103 32.75 102 36.75 101 c 0
 38.75 101 48.75 105 39.75 102 c 1
 43.75 103 45.75 107 47.75 110 c 0
 49.75 113 50.75 117 50.75 121 c 0
 51.75 126 51.75 130 50.75 135 c 0
 49.75 140 49.75 145 48.75 150 c 0
 47.75 152 47.75 154 47.75 156 c 0
 44.75 168 62.75 173 65.75 161 c 1
 66.75 159 67.75 157 67.75 155 c 0
 68.75 150 68.75 144 69.75 139 c 0
 70.75 133 70.75 127 70.75 121 c 0
 70.75 114 68.75 108 65.75 102 c 0
 61.75 96 58.75 91 52.75 88 c 0
 44.75 85 37.75 81 28.75 83 c 0
 21.75 85 15.75 89 11.75 95 c 0
 8.75 100 5.75 107 4.75 113 c 0
 3.75 120 3.75 127 4.75 134 c 0
 5.75 142 6.75 150 9.75 157 c 1
 10.75 169 29.75 167 28.75 155 c 1
EndSplineSet
EndChar

StartChar: r
Encoding: 70 114 70
Width: 78
VWidth: 309
Flags: HW
HStem: 152 19<44.2919 56.2525>
VStem: 9.3359 18<94 123>
LayerCount: 2
Fore
SplineSet
22.3359375 154 m 1
 24.3359375 147 25.3359375 140 26.3359375 132 c 0
 27.3359375 125 27.3359375 119 28.3359375 112 c 0
 29.3359375 107 30.3359375 101 29.3359375 96 c 1
 13.3359375 64 9.3359375 99 9.3359375 103 c 0
 9.3359375 108 8.3359375 113 8.3359375 118 c 0
 8.3359375 124 8.3359375 130 10.3359375 136 c 0
 12.3359375 142 15.3359375 148 19.3359375 153 c 0
 22.3359375 158 26.3359375 161 31.3359375 165 c 0
 37.3359375 170 44.3359375 171 52.3359375 171 c 0
 58.3359375 171 64.3359375 167 68.3359375 163 c 0
 71.3359375 159 73.3359375 154 74.3359375 149 c 0
 76.3359375 137 58.3359375 134 56.3359375 146 c 1
 56.3359375 145 54.3359375 150 53.3359375 150 c 0
 51.3359375 151 50.3359375 152 48.3359375 152 c 0
 47.3359375 152 48.3359375 152 47.3359375 152 c 0
 46.3359375 152 43.3359375 152 44.3359375 152 c 0
 53.3359375 156 47.3359375 153 45.3359375 152 c 0
 41.3359375 150 39.3359375 147 36.3359375 144 c 0
 33.3359375 141 32.3359375 136 30.3359375 132 c 0
 28.3359375 128 27.3359375 123 27.3359375 119 c 0
 27.3359375 114 28.3359375 110 28.3359375 106 c 0
 29.3359375 94 32.3359375 98 10.3359375 95 c 0
 10.3359375 96 l 0
 9.3359375 100 9.3359375 104 8.3359375 108 c 0
 7.3359375 115 6.3359375 122 5.3359375 129 c 0
 4.3359375 136 4.3359375 143 4.3359375 150 c 1
 1.3359375 162 19.3359375 166 22.3359375 154 c 1
EndSplineSet
EndChar

StartChar: q
Encoding: 71 113 71
Width: 86
VWidth: 309
Flags: HW
LayerCount: 2
Fore
SplineSet
63 170 m 1
 61 171 59 172 57 172 c 0
 57 173 55 172 55 173 c 0
 50 178 44 182 37 183 c 0
 28 184 21 179 15 173 c 0
 11 169 8 163 6 157 c 0
 4 151 4 145 4 139 c 0
 5 133 8 127 11 122 c 0
 15 116 22 113 29 111 c 0
 36 110 41 112 47 115 c 1
 47 113 47 112 47 110 c 0
 47 104 46 96 46 90 c 0
 46 86 46 82 46 78 c 1
 44 78 42 78 40 77 c 0
 28 80 23 61 35 58 c 0
 39 58 43 58 47 58 c 1
 47 53 48 48 48 43 c 0
 48 39 48 34 48 30 c 0
 49 26 49 22 50 18 c 1
 50 19 l 1
 49 7 67 6 68 18 c 0
 68 19 68 19 68 20 c 0
 68 24 67 28 67 32 c 0
 67 37 67 41 67 46 c 0
 67 50 67 55 67 59 c 1
 68 59 69 60 70 60 c 2
 73 60 l 1
 85 61 84 80 72 79 c 1
 70 79 68 78 66 78 c 1
 66 83 66 87 66 92 c 0
 66 98 67 104 67 110 c 0
 67 117 67 124 67 131 c 0
 67 136 67 140 67 145 c 0
 67 146 68 146 68 147 c 0
 69 152 68 157 67 162 c 0
 67 166 66 168 63 170 c 1
36 164 m 1
 37 163 39 162 40 161 c 0
 43 158 45 154 47 150 c 0
 47 149 48 147 48 146 c 0
 47 144 46 141 45 139 c 0
 43 136 41 133 38 132 c 0
 37 132 37 131 36 131 c 0
 35 131 35 129 34 129 c 0
 33 129 l 0
 31 129 30 131 28 132 c 0
 26 135 25 138 24 142 c 0
 24 146 24 149 25 152 c 0
 26 156 28 159 31 162 c 0
 32 163 33 163 34 164 c 0
 35 164 35 164 36 164 c 1
34 164 m 1
 30 163 30 163 32 165 c 0
 33 165 33 164 34 164 c 1
37 130 m 2
 37 130 36 130 35 129 c 0
 34 129 34 129 33 129 c 1
 35 130 37 130 37 130 c 2
EndSplineSet
EndChar

StartChar: y
Encoding: 72 121 72
Width: 86
VWidth: 309
Flags: HW
LayerCount: 2
Fore
SplineSet
29.91015625 152 m 1
 32.91015625 145 33.91015625 138 34.91015625 131 c 0
 35.91015625 125 35.91015625 118 36.91015625 112 c 0
 37.91015625 109 38.91015625 106 41.91015625 104 c 0
 44.91015625 102 47.91015625 102 50.91015625 102 c 0
 52.91015625 103 56.91015625 104 48.91015625 102 c 0
 49.91015625 103 l 0
 50.91015625 104 51.91015625 103 52.91015625 104 c 0
 55.91015625 106 57.91015625 111 58.91015625 114 c 0
 60.91015625 118 60.91015625 123 60.91015625 127 c 0
 60.91015625 131 58.91015625 135 58.91015625 138 c 1
 59.91015625 137 59.91015625 136 60.91015625 136 c 0
 65.91015625 136 69.91015625 137 74.91015625 138 c 0
 75.91015625 139 l 0
 75.91015625 135 75.91015625 139 75.91015625 137 c 0
 75.91015625 133 75.91015625 129 76.91015625 125 c 0
 77.91015625 119 77.91015625 113 78.91015625 107 c 0
 78.91015625 101 78.91015625 96 79.91015625 90 c 0
 80.91015625 85 81.91015625 79 81.91015625 74 c 0
 81.91015625 68 81.91015625 64 81.91015625 58 c 0
 81.91015625 52 79.91015625 45 77.91015625 39 c 0
 74.91015625 33 70.91015625 29 64.91015625 25 c 0
 56.91015625 22 49.91015625 20 41.91015625 21 c 0
 36.91015625 21 30.91015625 22 25.91015625 22 c 0
 19.91015625 23 14.91015625 25 9.91015625 29 c 0
 6.91015625 31 6.91015625 34 4.91015625 37 c 0
 -0.08984375 48 16.91015625 56 21.91015625 45 c 1
 21.91015625 44 22.91015625 43 23.91015625 43 c 0
 26.91015625 41 28.91015625 41 31.91015625 41 c 0
 36.91015625 40 41.91015625 40 46.91015625 40 c 0
 48.91015625 40 63.91015625 42 52.91015625 39 c 1
 55.91015625 39 56.91015625 41 58.91015625 44 c 0
 60.91015625 48 61.91015625 53 61.91015625 58 c 0
 61.91015625 63 61.91015625 67 61.91015625 72 c 0
 61.91015625 77 61.91015625 81 60.91015625 86 c 0
 59.91015625 92 58.91015625 99 58.91015625 105 c 0
 58.91015625 111 58.91015625 116 57.91015625 122 c 0
 57.91015625 126 56.91015625 130 56.91015625 134 c 0
 56.91015625 136 56.91015625 143 57.91015625 144 c 0
 72.91015625 151 69.91015625 153 75.91015625 146 c 1
 78.91015625 141 80.91015625 134 80.91015625 128 c 0
 80.91015625 121 79.91015625 115 77.91015625 109 c 0
 75.91015625 103 73.91015625 97 68.91015625 93 c 0
 62.91015625 87 54.91015625 83 45.91015625 84 c 0
 38.91015625 84 32.91015625 87 27.91015625 91 c 0
 22.91015625 96 19.91015625 101 17.91015625 108 c 0
 16.91015625 114 15.91015625 120 14.91015625 126 c 0
 13.91015625 133 11.91015625 141 11.91015625 148 c 0
 8.91015625 160 26.91015625 164 29.91015625 152 c 1
EndSplineSet
EndChar

StartChar: s
Encoding: 73 115 73
Width: 83
VWidth: 309
Flags: HW
HStem: 124 19<28.3913 57.8831> 158 24<37.625 58.5041>
VStem: 4.25 19<145.094 159.906> 59.25 19<106.094 121.918>
LayerCount: 2
Fore
SplineSet
49.25 158 m 1
 45.25 161 41.25 163 37.25 165 c 0
 34.25 166 33.25 164 30.25 163 c 1
 38.25 166 30.25 163 29.25 162 c 0
 28.25 161 27.25 161 26.25 160 c 0
 24.25 158 23.25 155 23.25 152 c 0
 24.25 149 26.25 147 28.25 145 c 0
 31.25 143 35.25 143 38.25 143 c 0
 42.25 143 47.25 142 51.25 142 c 0
 57.25 142 62.25 140 67.25 136 c 0
 73.25 132 76.25 125 78.25 118 c 0
 79.25 111 78.25 105 74.25 99 c 0
 71.25 94 65.25 90 60.25 87 c 0
 52.25 82 45.25 81 36.25 83 c 0
 30.25 85 24.25 88 18.25 91 c 0
 13.25 94 10.25 98 8.25 103 c 0
 4.25 114 21.25 120 25.25 109 c 1
 24.25 112 29.25 107 30.25 107 c 0
 34.25 105 38.25 103 43.25 102 c 0
 48.25 101 52.25 104 45.25 101 c 0
 47.25 101 l 0
 50.25 103 53.25 104 56.25 106 c 0
 58.25 108 59.25 111 59.25 114 c 0
 59.25 117 56.25 119 54.25 121 c 0
 51.25 123 49.25 124 46.25 124 c 0
 41.25 124 37.25 124 32.25 124 c 0
 26.25 125 20.25 127 15.25 131 c 0
 10.25 136 5.25 142 4.25 149 c 0
 3.25 157 5.25 164 10.25 170 c 0
 16.25 176 21.25 181 29.25 183 c 0
 35.25 185 42.25 184 48.25 182 c 0
 54.25 179 60.25 175 64.25 169 c 0
 71.25 159 56.25 148 49.25 158 c 1
EndSplineSet
EndChar

StartChar: w
Encoding: 74 119 74
Width: 94
VWidth: 309
Flags: HW
LayerCount: 2
Fore
SplineSet
23.3203125 163 m 1
 24.3203125 157 25.3203125 151 26.3203125 145 c 0
 27.3203125 140 29.3203125 135 30.3203125 130 c 0
 31.3203125 126 31.3203125 121 32.3203125 117 c 0
 33.3203125 113 34.3203125 108 35.3203125 104 c 0
 35.3203125 101 36.3203125 101 35.3203125 103 c 0
 33.3203125 107 25.3203125 101 32.3203125 105 c 0
 34.3203125 107 35.3203125 110 35.3203125 113 c 0
 35.3203125 118 36.3203125 124 36.3203125 129 c 0
 36.3203125 130 38.3203125 136 38.3203125 136 c 0
 56.3203125 138 53.3203125 143 56.3203125 135 c 0
 57.3203125 131 58.3203125 127 59.3203125 123 c 0
 60.3203125 119 60.3203125 116 61.3203125 112 c 0
 62.3203125 108 64.3203125 105 67.3203125 102 c 0
 68.3203125 101 72.3203125 100 71.3203125 102 c 1
 63.3203125 98 67.3203125 99 69.3203125 104 c 0
 71.3203125 107 70.3203125 111 70.3203125 115 c 0
 69.3203125 121 69.3203125 128 68.3203125 134 c 0
 68.3203125 139 68.3203125 144 67.3203125 149 c 0
 67.3203125 153 65.3203125 156 65.3203125 160 c 0
 65.3203125 161 65.3203125 161 65.3203125 162 c 0
 63.3203125 174 81.3203125 176 83.3203125 164 c 1
 83.3203125 165 l 1
 84.3203125 161 85.3203125 157 86.3203125 153 c 0
 87.3203125 148 87.3203125 142 88.3203125 137 c 0
 89.3203125 130 90.3203125 124 90.3203125 117 c 0
 90.3203125 111 89.3203125 105 87.3203125 99 c 0
 83.3203125 91 81.3203125 87 72.3203125 83 c 1
 64.3203125 82 58.3203125 84 52.3203125 89 c 0
 48.3203125 94 45.3203125 100 43.3203125 107 c 0
 42.3203125 111 41.3203125 116 40.3203125 120 c 0
 40.3203125 123 40.3203125 126 39.3203125 129 c 1
 44.3203125 130 50.3203125 131 55.3203125 132 c 0
 55.3203125 133 l 0
 55.3203125 131 55.3203125 132 55.3203125 130 c 0
 55.3203125 124 55.3203125 118 55.3203125 112 c 0
 54.3203125 106 53.3203125 101 49.3203125 96 c 0
 44.3203125 89 36.3203125 84 27.3203125 87 c 0
 21.3203125 90 17.3203125 94 16.3203125 101 c 0
 15.3203125 105 14.3203125 109 13.3203125 113 c 0
 12.3203125 117 12.3203125 122 11.3203125 126 c 0
 10.3203125 131 8.3203125 135 7.3203125 140 c 0
 5.3203125 146 4.3203125 153 4.3203125 159 c 1
 1.3203125 171 20.3203125 175 23.3203125 163 c 1
EndSplineSet
EndChar

StartChar: o
Encoding: 75 111 75
Width: 86
Flags: HW
HStem: 144 1<38.0469 40.8063> 145 1<33.0476 34>
VStem: 4 19<110.502 144.961> 62 20<107.346 142.195>
LayerCount: 2
Fore
SplineSet
53 143 m 1xb0
 48 145 43 146 38 147 c 1
 41 149 27 143 31 144 c 0xb0
 32 144 34 146 35 146 c 0
 36 146 34 145 33 145 c 0
 30 143 29 140 27 137 c 0
 25 134 23 130 23 126 c 0
 23 123 24 119 26 116 c 0
 28 112 31 109 34 106 c 0
 37 104 40 101 43 101 c 0
 46 100 55 104 47 102 c 1
 51 103 54 106 57 109 c 0
 60 112 61 116 62 120 c 0
 62 124 61 127 60 131 c 0
 58 135 56 138 53 141 c 0
 51 143 47 145 44 145 c 0x70
 42 146 42 145 40 144 c 0
 39 144 37 144 38 144 c 0xb0
 39 144 40 145 41 145 c 1x70
 40 144 l 0
 31 136 18 151 27 159 c 1
 28 159 28 160 29 160 c 0
 36 163 43 165 51 163 c 0
 57 161 63 159 68 154 c 0
 73 149 77 145 79 138 c 0
 81 132 82 125 82 119 c 0
 81 112 78 105 74 99 c 0
 70 93 65 89 59 86 c 0
 51 83 43 81 35 84 c 0
 29 86 24 89 19 93 c 0
 15 98 11 103 8 108 c 0
 5 114 4 120 4 126 c 0
 4 132 5 138 8 143 c 0
 11 149 14 155 19 159 c 0
 26 164 35 166 44 165 c 0
 51 164 58 163 64 159 c 0
 74 152 63 136 53 143 c 1xb0
EndSplineSet
EndChar

StartChar: ntilde
Encoding: 76 241 76
Width: 92
VWidth: 309
Flags: HW
LayerCount: 2
Fore
SplineSet
31.1474609375 240 m 0
 24.1474609375 240 17.1474609375 236 13.1474609375 231 c 0
 9.1474609375 225 5.1474609375 218 4.1474609375 211 c 0
 2.1474609375 199 21.1474609375 195 23.1474609375 207 c 1
 26.1474609375 212 27.1474609375 217 30.1474609375 221 c 1
 31.1474609375 220 32.1474609375 219 33.1474609375 217 c 0
 34.1474609375 213 35.1474609375 209 37.1474609375 205 c 0
 40.1474609375 199 45.1474609375 195 52.1474609375 194 c 0
 61.1474609375 194 67.1474609375 199 72.1474609375 206 c 0
 75.1474609375 211 75.1474609375 217 75.1474609375 223 c 0
 75.1474609375 225 74.1474609375 227 74.1474609375 229 c 0
 72.1474609375 241 54.1474609375 238 56.1474609375 226 c 0
 56.1474609375 225 56.1474609375 223 56.1474609375 222 c 0
 56.1474609375 219 56.1474609375 216 54.1474609375 214 c 0
 53.1474609375 217 51.1474609375 221 50.1474609375 224 c 0
 47.1474609375 230 44.1474609375 235 38.1474609375 238 c 0
 37.1474609375 239 35.1474609375 240 34.1474609375 240 c 0
 33.1474609375 240 32.1474609375 240 31.1474609375 240 c 0
34.1474609375 223 m 0
 35.1474609375 223 32.1474609375 221 30.1474609375 221 c 1
 31.1474609375 222 l 0
 33.1474609375 223 34.1474609375 223 34.1474609375 223 c 0
55.1474609375 214 m 0
 55.1474609375 214 56.1474609375 214 56.1474609375 213 c 0
 57.1474609375 211 55.1474609375 211 55.1474609375 212 c 0
 55.1474609375 213 l 0
 55.1474609375 214 l 0
45.1474609375 176 m 1
 40.1474609375 176 34.1474609375 175 29.1474609375 171 c 0
 24.1474609375 167 21.1474609375 161 18.1474609375 155 c 0
 16.1474609375 149 13.1474609375 142 13.1474609375 135 c 0
 12.1474609375 128 12.1474609375 120 13.1474609375 113 c 0
 14.1474609375 105 14.1474609375 97 16.1474609375 90 c 1
 18.1474609375 78 37.1474609375 81 35.1474609375 93 c 1
 35.1474609375 101 35.1474609375 108 34.1474609375 116 c 0
 33.1474609375 123 33.1474609375 129 33.1474609375 136 c 0
 33.1474609375 141 35.1474609375 145 37.1474609375 149 c 0
 39.1474609375 152 40.1474609375 157 44.1474609375 158 c 0
 45.1474609375 158 46.1474609375 158 46.1474609375 158 c 0
 45.1474609375 157 43.1474609375 157 42.1474609375 156 c 0
 43.1474609375 157 l 0
 45.1474609375 157 47.1474609375 157 49.1474609375 157 c 0
 53.1474609375 157 56.1474609375 156 59.1474609375 154 c 0
 61.1474609375 152 62.1474609375 149 63.1474609375 147 c 0
 64.1474609375 144 65.1474609375 141 66.1474609375 137 c 0
 67.1474609375 133 67.1474609375 127 67.1474609375 123 c 0
 67.1474609375 118 68.1474609375 112 68.1474609375 107 c 0
 69.1474609375 103 69.1474609375 99 69.1474609375 95 c 0
 69.1474609375 94 l 0
 68.1474609375 85 83.1474609375 80 87.1474609375 90 c 0
 88.1474609375 94 87.1474609375 93 88.1474609375 95 c 0
 88.1474609375 100 88.1474609375 105 87.1474609375 110 c 0
 87.1474609375 115 87.1474609375 120 87.1474609375 125 c 0
 87.1474609375 131 86.1474609375 136 85.1474609375 142 c 0
 84.1474609375 146 83.1474609375 151 81.1474609375 155 c 0
 79.1474609375 160 76.1474609375 165 71.1474609375 169 c 0
 66.1474609375 172 61.1474609375 175 55.1474609375 175 c 0
 51.1474609375 175 48.1474609375 176 45.1474609375 176 c 1
EndSplineSet
EndChar

StartChar: p
Encoding: 77 112 77
Width: 82
VWidth: 309
Flags: HW
LayerCount: 2
Fore
SplineSet
24 158 m 2
 25 152 24 146 25 140 c 0
 26 134 26 127 27 121 c 0
 28 115 28 110 28 104 c 0
 28 98 30 91 30 85 c 0
 30 79 30 73 30 67 c 0
 30 61 31 56 31 50 c 0
 31 45 31 41 31 36 c 0
 32 32 31 28 31 26 c 1
 11 25 14 22 12 34 c 0
 11 39 10 45 10 50 c 0
 10 56 10 61 9 67 c 0
 8 73 8 78 7 84 c 0
 7 89 7 95 6 100 c 0
 5 106 4 111 4 117 c 0
 4 122 4 128 5 133 c 0
 5 138 7 144 8 149 c 0
 9 156 13 161 18 166 c 0
 25 172 33 173 42 172 c 0
 49 171 54 167 59 163 c 0
 63 160 68 156 71 152 c 0
 75 147 76 141 77 135 c 0
 78 130 78 125 78 120 c 0
 78 114 76 108 75 102 c 0
 73 95 69 89 63 85 c 0
 55 80 47 80 39 83 c 0
 35 85 38 83 34 85 c 0
 23 92 33 109 44 102 c 1
 46 101 46 101 48 100 c 0
 51 99 55 102 48 99 c 0
 47 99 49 99 50 99 c 0
 53 98 55 103 56 105 c 0
 57 109 58 114 58 118 c 0
 58 122 58 127 58 131 c 0
 57 134 57 138 55 141 c 0
 52 144 49 147 46 149 c 0
 43 151 39 153 36 153 c 0
 35 153 33 152 32 152 c 0
 31 152 29 152 30 152 c 0
 33 154 37 154 34 154 c 0
 31 153 29 149 28 146 c 0
 27 142 25 138 25 134 c 0
 25 129 24 124 24 119 c 0
 24 114 24 108 25 103 c 0
 26 98 26 92 27 87 c 0
 27 81 29 75 29 69 c 0
 30 63 30 58 30 52 c 0
 30 47 31 42 31 37 c 0
 32 25 36 27 13 26 c 1
 13 20 12 33 12 33 c 0
 12 38 11 44 11 49 c 0
 11 55 10 59 10 65 c 0
 10 71 10 77 10 83 c 0
 10 89 9 95 9 101 c 0
 8 107 7 113 7 119 c 0
 7 125 7 131 6 137 c 0
 5 144 5 150 5 157 c 0
 4 169 23 170 24 158 c 2
EndSplineSet
EndChar

StartChar: v
Encoding: 78 118 78
Width: 88
VWidth: 309
Flags: HW
VStem: 64.3201 20<138.938 174.984>
LayerCount: 2
Fore
SplineSet
23.3203125 165 m 1
 25.3203125 159 27.3203125 152 29.3203125 146 c 0
 31.3203125 140 33.3203125 134 35.3203125 128 c 0
 37.3203125 123 40.3203125 117 42.3203125 112 c 0
 44.3203125 108 45.3203125 104 48.3203125 101 c 0
 50.3203125 98 49.3203125 102 49.3203125 102 c 0
 47.3203125 102 46.3203125 102 44.3203125 101 c 1
 47.3203125 102 48.3203125 105 49.3203125 108 c 0
 51.3203125 112 52.3203125 117 53.3203125 121 c 0
 54.3203125 127 55.3203125 132 57.3203125 138 c 0
 58.3203125 143 59.3203125 148 60.3203125 153 c 0
 61.3203125 159 63.3203125 164 64.3203125 170 c 0
 64.3203125 171 65.3203125 171 65.3203125 172 c 0
 67.3203125 184 86.3203125 181 84.3203125 169 c 1
 84.3203125 168 84.3203125 167 84.3203125 166 c 0
 82.3203125 161 81.3203125 156 80.3203125 151 c 0
 79.3203125 146 78.3203125 140 77.3203125 135 c 0
 75.3203125 129 74.3203125 124 73.3203125 118 c 0
 72.3203125 113 70.3203125 108 68.3203125 103 c 0
 66.3203125 97 62.3203125 91 57.3203125 87 c 0
 54.3203125 86 52.3203125 84 49.3203125 83 c 0
 43.3203125 81 36.3203125 86 32.3203125 90 c 0
 29.3203125 95 26.3203125 100 24.3203125 105 c 0
 22.3203125 110 19.3203125 115 17.3203125 121 c 0
 15.3203125 127 12.3203125 133 10.3203125 139 c 0
 7.3203125 146 4.3203125 153 4.3203125 161 c 1
 1.3203125 173 20.3203125 177 23.3203125 165 c 1
EndSplineSet
EndChar

StartChar: z
Encoding: 79 122 79
Width: 84
VWidth: 309
Flags: HW
HStem: 83 19<40.962 47.88 68.88 75.0282> 117 19<15.3567 21.88> 150 20<8.72481 15.88 31.88 48.5995>
VStem: 47.88 22<137.375 151>
LayerCount: 2
Fore
SplineSet
56.8798828125 171 m 1
 55.8798828125 171 53.8798828125 171 52.8798828125 171 c 0
 47.8798828125 171 41.8798828125 170 36.8798828125 170 c 0
 29.8798828125 170 22.8798828125 171 15.8798828125 170 c 1
 3.8798828125 173 -1.1201171875 154 10.8798828125 151 c 0
 17.8798828125 150 24.8798828125 150 31.8798828125 150 c 0
 37.8798828125 150 42.8798828125 150 48.8798828125 151 c 1
 48.8798828125 151 47.8798828125 151 47.8798828125 150 c 0
 45.8798828125 145 43.8798828125 141 40.8798828125 137 c 0
 40.8798828125 136 l 0
 34.8798828125 136 27.8798828125 137 21.8798828125 136 c 1
 9.8798828125 139 5.8798828125 121 17.8798828125 118 c 0
 20.8798828125 117 24.8798828125 117 27.8798828125 117 c 1
 25.8798828125 114 22.8798828125 110 20.8798828125 107 c 0
 15.8798828125 98 18.8798828125 91 26.8798828125 86 c 0
 31.8798828125 84 37.8798828125 83 42.8798828125 83 c 0
 47.8798828125 83 53.8798828125 83 58.8798828125 83 c 0
 61.8798828125 83 65.8798828125 84 68.8798828125 84 c 0
 80.8798828125 82 83.8798828125 101 71.8798828125 103 c 0
 68.8798828125 103 65.8798828125 103 62.8798828125 103 c 0
 57.8798828125 103 52.8798828125 102 47.8798828125 102 c 0
 45.8798828125 102 42.8798828125 102 40.8798828125 102 c 1
 43.8798828125 106 45.8798828125 110 48.8798828125 114 c 0
 49.8798828125 115 49.8798828125 116 50.8798828125 117 c 0
 51.8798828125 117 54.8798828125 117 55.8798828125 117 c 0
 61.8798828125 117 65.8798828125 119 71.8798828125 121 c 1
 79.8798828125 128 71.8798828125 139 63.8798828125 137 c 1
 64.8798828125 140 65.8798828125 142 66.8798828125 145 c 0
 68.8798828125 151 71.8798828125 157 69.8798828125 163 c 0
 68.8798828125 164 67.8798828125 166 66.8798828125 167 c 0
 63.8798828125 170 60.8798828125 171 56.8798828125 171 c 1
EndSplineSet
EndChar

StartChar: numbersign
Encoding: 80 35 80
Width: 97
VWidth: 309
Flags: HW
LayerCount: 2
Fore
SplineSet
64.515625 263 m 1
 58.515625 268 46.515625 264 48.515625 254 c 1
 48.515625 247 50.515625 240 51.515625 233 c 0
 52.515625 226 53.515625 220 54.515625 213 c 0
 54.515625 209 55.515625 204 55.515625 200 c 1
 54.515625 200 52.515625 199 51.515625 199 c 0
 46.515625 197 41.515625 196 36.515625 194 c 1
 36.515625 195 l 0
 35.515625 200 35.515625 204 34.515625 209 c 0
 33.515625 215 33.515625 221 33.515625 227 c 0
 32.515625 235 32.515625 243 30.515625 251 c 1
 29.515625 263 9.515625 260 10.515625 248 c 1
 10.515625 240 11.515625 232 12.515625 224 c 0
 13.515625 218 14.515625 211 15.515625 205 c 0
 16.515625 200 16.515625 196 17.515625 191 c 0
 17.515625 190 17.515625 188 17.515625 187 c 1
 14.515625 185 11.515625 184 8.515625 182 c 0
 -1.484375 175 9.515625 159 19.515625 166 c 1
 19.515625 161 19.515625 156 19.515625 151 c 0
 19.515625 147 20.515625 143 20.515625 139 c 1
 18.515625 138 15.515625 137 13.515625 136 c 1
 1.515625 137 0.515625 118 12.515625 117 c 0
 15.515625 117 18.515625 118 21.515625 119 c 1
 21.515625 115 21.515625 109 21.515625 105 c 0
 21.515625 100 22.515625 96 22.515625 91 c 0
 23.515625 86 23.515625 82 23.515625 77 c 0
 23.515625 72 23.515625 68 24.515625 63 c 0
 23.515625 51 41.515625 50 42.515625 62 c 0
 42.515625 65 43.515625 63 43.515625 66 c 0
 43.515625 70 42.515625 75 42.515625 79 c 0
 42.515625 84 41.515625 88 41.515625 93 c 0
 41.515625 98 41.515625 103 41.515625 108 c 0
 41.515625 113 40.515625 117 40.515625 122 c 0
 40.515625 123 40.515625 123 40.515625 124 c 0
 42.515625 125 45.515625 125 47.515625 126 c 0
 52.515625 127 57.515625 129 62.515625 130 c 1
 62.515625 128 62.515625 127 62.515625 125 c 0
 62.515625 120 63.515625 115 63.515625 110 c 0
 64.515625 105 64.515625 101 64.515625 96 c 0
 64.515625 91 65.515625 87 65.515625 82 c 0
 65.515625 77 65.515625 73 65.515625 68 c 0
 65.515625 65 66.515625 64 66.515625 61 c 0
 67.515625 49 86.515625 50 85.515625 62 c 0
 85.515625 64 84.515625 67 84.515625 69 c 0
 84.515625 74 84.515625 79 84.515625 84 c 0
 84.515625 89 83.515625 93 83.515625 98 c 0
 83.515625 103 83.515625 107 82.515625 112 c 0
 82.515625 117 81.515625 121 81.515625 126 c 0
 81.515625 129 81.515625 132 81.515625 135 c 1
 83.515625 136 85.515625 137 87.515625 138 c 0
 95.515625 144 88.515625 156 80.515625 154 c 1
 80.515625 156 79.515625 159 79.515625 161 c 0
 78.515625 167 78.515625 173 77.515625 179 c 0
 77.515625 182 76.515625 184 76.515625 187 c 1
 78.515625 188 79.515625 188 81.515625 189 c 0
 83.515625 190 83.515625 189 83.515625 190 c 0
 95.515625 190 96.515625 208 84.515625 208 c 0
 82.515625 208 83.515625 208 82.515625 208 c 0
 80.515625 208 76.515625 207 74.515625 206 c 1
 74.515625 209 74.515625 212 74.515625 215 c 0
 73.515625 222 72.515625 230 71.515625 237 c 0
 70.515625 244 69.515625 251 67.515625 258 c 0
 67.515625 260 65.515625 262 64.515625 263 c 1
79.515625 188 m 1
 78.515625 188 77.515625 187 76.515625 187 c 1
 79.515625 188 l 1
57.515625 181 m 1
 57.515625 179 58.515625 178 58.515625 176 c 0
 59.515625 170 59.515625 164 60.515625 158 c 0
 60.515625 155 60.515625 152 60.515625 149 c 1
 56.515625 148 52.515625 146 48.515625 145 c 0
 45.515625 144 42.515625 144 39.515625 143 c 1
 39.515625 146 39.515625 150 39.515625 153 c 0
 39.515625 158 38.515625 162 38.515625 167 c 0
 38.515625 169 38.515625 172 38.515625 174 c 0
 39.515625 174 38.515625 175 39.515625 175 c 0
 40.515625 175 42.515625 176 44.515625 177 c 0
 46.515625 178 49.515625 178 51.515625 179 c 0
 53.515625 180 55.515625 180 57.515625 181 c 1
EndSplineSet
EndChar

StartChar: question
Encoding: 81 63 81
Width: 96
VWidth: 309
Flags: HW
LayerCount: 2
Fore
SplineSet
78 291 m 1
 73 295 68 298 61 299 c 0
 56 300 50 301 45 300 c 0
 37 299 28 295 22 290 c 0
 18 286 14 282 12 276 c 0
 10 271 8 265 7 260 c 0
 6 254 5 248 5 242 c 0
 4 236 4 228 4 222 c 1
 4 210 23 211 23 223 c 1
 24 229 25 236 25 242 c 0
 25 247 26 253 27 258 c 0
 28 262 29 267 31 271 c 0
 32 274 35 277 38 279 c 0
 38 279 38 279 39 279 c 0
 41 280 47 282 45 281 c 0
 42 280 40 279 43 280 c 0
 47 281 51 281 55 281 c 0
 59 281 62 278 65 276 c 0
 68 274 70 271 71 268 c 0
 72 265 72 261 72 258 c 0
 72 253 72 249 71 244 c 0
 71 238 70 233 70 227 c 0
 70 223 69 218 69 214 c 0
 68 210 68 206 67 202 c 0
 67 198 65 194 63 190 c 0
 61 186 57 182 54 178 c 0
 50 174 46 170 42 166 c 0
 37 162 34 157 30 152 c 0
 26 146 24 140 22 133 c 0
 21 127 19 120 19 113 c 0
 19 107 18 102 18 96 c 0
 18 90 19 84 19 78 c 0
 19 77 19 77 19 76 c 0
 21 64 40 66 38 78 c 0
 38 79 38 79 38 80 c 0
 38 85 38 92 38 97 c 0
 38 103 39 108 39 114 c 0
 39 119 40 125 41 130 c 0
 42 135 44 138 47 142 c 0
 51 146 55 151 59 155 c 0
 63 159 68 163 72 168 c 0
 76 173 78 178 81 184 c 0
 83 189 85 194 86 199 c 0
 87 204 87 209 88 214 c 0
 89 219 89 223 89 228 c 0
 89 233 91 238 91 243 c 0
 92 249 92 254 92 260 c 0
 92 265 90 271 88 276 c 0
 85 282 83 287 78 291 c 1
47 51 m 0
 43 54 38 56 33 56 c 0
 26 55 18 51 16 44 c 0
 16 42 15 42 15 40 c 0
 15 39 16 37 17 36 c 0
 17 35 16 35 16 34 c 0
 16 26 20 21 27 18 c 0
 36 15 45 19 51 27 c 0
 56 34 54 41 50 48 c 0
 49 49 48 50 47 51 c 0
35 29 m 1
 28 26 32 28 34 29 c 0
 35 29 l 1
EndSplineSet
EndChar

StartChar: equal
Encoding: 82 61 82
Width: 70
VWidth: 309
Flags: HW
LayerCount: 2
Fore
SplineSet
14.5888671875 182 m 0
 4.5888671875 182 0.5888671875 166 11.5888671875 163 c 0
 18.5888671875 161 26.5888671875 161 33.5888671875 161 c 0
 38.5888671875 161 45.5888671875 162 50.5888671875 163 c 1
 62.5888671875 162 63.5888671875 180 51.5888671875 181 c 0
 47.5888671875 181 42.5888671875 181 38.5888671875 181 c 0
 31.5888671875 181 24.5888671875 181 17.5888671875 181 c 0
 16.5888671875 181 15.5888671875 182 14.5888671875 182 c 0
49.5888671875 156 m 1
 45.5888671875 156 42.5888671875 155 38.5888671875 155 c 0
 32.5888671875 154 24.5888671875 155 18.5888671875 154 c 1
 6.5888671875 157 2.5888671875 139 14.5888671875 136 c 0
 21.5888671875 135 27.5888671875 136 34.5888671875 136 c 0
 40.5888671875 136 45.5888671875 136 51.5888671875 137 c 0
 52.5888671875 137 52.5888671875 137 52.5888671875 137 c 0
 62.5888671875 131 71.5888671875 147 61.5888671875 153 c 0
 58.5888671875 154 60.5888671875 154 56.5888671875 155 c 0
 54.5888671875 155 51.5888671875 156 49.5888671875 156 c 1
EndSplineSet
EndChar

StartChar: at
Encoding: 83 64 83
Width: 106
VWidth: 309
Flags: HW
LayerCount: 2
Fore
SplineSet
63.4443359375 127 m 1
 54.4443359375 123 45.4443359375 122 36.4443359375 126 c 0
 29.4443359375 130 26.4443359375 136 25.4443359375 143 c 0
 24.4443359375 149 25.4443359375 155 28.4443359375 161 c 0
 31.4443359375 166 35.4443359375 170 40.4443359375 173 c 0
 48.4443359375 178 53.4443359375 180 62.4443359375 177 c 0
 68.4443359375 175 71.4443359375 169 73.4443359375 163 c 0
 74.4443359375 157 74.4443359375 152 74.4443359375 146 c 0
 74.4443359375 141 74.4443359375 137 74.4443359375 132 c 0
 75.4443359375 130 75.4443359375 126 77.4443359375 124 c 1
 77.4443359375 125 76.4443359375 124 77.4443359375 124 c 0
 78.4443359375 125 l 0
 77.4443359375 126 l 0
 75.4443359375 126 75.4443359375 125 73.4443359375 125 c 1
 76.4443359375 126 77.4443359375 129 78.4443359375 132 c 0
 80.4443359375 137 81.4443359375 141 82.4443359375 146 c 0
 83.4443359375 150 82.4443359375 154 82.4443359375 159 c 0
 82.4443359375 163 81.4443359375 167 80.4443359375 171 c 0
 78.4443359375 175 77.4443359375 179 74.4443359375 183 c 0
 72.4443359375 187 69.4443359375 191 66.4443359375 194 c 0
 63.4443359375 197 60.4443359375 200 56.4443359375 201 c 0
 53.4443359375 202 50.4443359375 201 47.4443359375 200 c 0
 45.4443359375 200 43.4443359375 199 41.4443359375 198 c 0
 40.4443359375 198 38.4443359375 198 39.4443359375 198 c 0
 41.4443359375 198 45.4443359375 200 41.4443359375 198 c 0
 37.4443359375 196 35.4443359375 193 33.4443359375 190 c 0
 31.4443359375 186 28.4443359375 182 27.4443359375 177 c 0
 25.4443359375 172 25.4443359375 167 24.4443359375 162 c 0
 23.4443359375 157 24.4443359375 153 24.4443359375 148 c 0
 24.4443359375 143 25.4443359375 140 26.4443359375 135 c 0
 27.4443359375 131 27.4443359375 127 29.4443359375 123 c 0
 30.4443359375 121 32.4443359375 118 35.4443359375 117 c 0
 38.4443359375 116 40.4443359375 116 43.4443359375 117 c 0
 45.4443359375 117 48.4443359375 117 50.4443359375 117 c 0
 62.4443359375 116 59.4443359375 97 47.4443359375 98 c 1
 44.4443359375 98 42.4443359375 98 39.4443359375 98 c 0
 34.4443359375 98 29.4443359375 98 24.4443359375 101 c 0
 18.4443359375 104 14.4443359375 109 11.4443359375 115 c 0
 9.4443359375 120 8.4443359375 126 7.4443359375 131 c 0
 6.4443359375 136 4.4443359375 141 4.4443359375 146 c 0
 4.4443359375 151 3.4443359375 157 4.4443359375 162 c 0
 4.4443359375 168 5.4443359375 175 7.4443359375 181 c 0
 9.4443359375 187 12.4443359375 193 15.4443359375 199 c 0
 19.4443359375 204 21.4443359375 209 27.4443359375 212 c 0
 34.4443359375 216 42.4443359375 218 49.4443359375 219 c 0
 55.4443359375 220 60.4443359375 220 66.4443359375 217 c 0
 72.4443359375 214 77.4443359375 211 81.4443359375 206 c 0
 85.4443359375 202 88.4443359375 198 91.4443359375 193 c 0
 94.4443359375 188 97.4443359375 183 99.4443359375 177 c 0
 100.444335938 172 102.444335938 166 102.444335938 161 c 0
 102.444335938 155 102.444335938 150 101.444335938 144 c 0
 100.444335938 138 100.444335938 132 97.4443359375 126 c 0
 94.4443359375 120 91.4443359375 114 85.4443359375 110 c 0
 82.4443359375 109 79.4443359375 108 76.4443359375 107 c 0
 70.4443359375 106 65.4443359375 109 61.4443359375 113 c 0
 57.4443359375 118 56.4443359375 123 55.4443359375 129 c 0
 54.4443359375 134 54.4443359375 140 54.4443359375 145 c 0
 54.4443359375 149 55.4443359375 154 55.4443359375 158 c 0
 55.4443359375 159 l 0
 54.4443359375 160 l 0
 53.4443359375 159 l 0
 61.4443359375 162 56.4443359375 160 54.4443359375 160 c 0
 51.4443359375 158 48.4443359375 156 46.4443359375 153 c 0
 44.4443359375 151 43.4443359375 150 43.4443359375 147 c 0
 43.4443359375 145 43.4443359375 144 45.4443359375 143 c 0
 47.4443359375 143 60.4443359375 146 52.4443359375 143 c 1
 62.4443359375 150 73.4443359375 134 63.4443359375 127 c 1
EndSplineSet
EndChar

StartChar: underscore
Encoding: 84 95 84
Width: 73
VWidth: 309
Flags: HW
LayerCount: 2
Fore
SplineSet
18.259765625 96 m 1
 24.259765625 96 31.259765625 96 37.259765625 96 c 0
 43.259765625 97 48.259765625 96 54.259765625 96 c 0
 56.259765625 96 59.259765625 96 61.259765625 96 c 0
 73.259765625 93 67.259765625 75 55.259765625 78 c 1
 53.259765625 77 52.259765625 77 50.259765625 77 c 0
 44.259765625 77 38.259765625 76 32.259765625 76 c 0
 25.259765625 76 17.259765625 77 10.259765625 79 c 0
 -0.740234375 84 7.259765625 101 18.259765625 96 c 1
EndSplineSet
EndChar

StartChar: questiondown
Encoding: 85 191 85
Width: 92
VWidth: 309
Flags: HW
LayerCount: 2
Fore
SplineSet
56 306 m 1
 52 309 47 309 43 304 c 1
 36 300 33 294 31 286 c 1
 31 277 34 272 42 270 c 1
 53 269 59 274 61 284 c 0
 61 288 60 291 58 293 c 1
 61 298 60 303 56 306 c 1
53 253 m 1
 47 256 38 254 38 246 c 1
 36 239 36 232 35 225 c 0
 35 219 36 214 36 208 c 0
 36 203 36 198 36 193 c 0
 36 189 37 185 36 181 c 0
 35 178 33 175 31 172 c 0
 28 168 24 164 21 160 c 0
 17 155 14 151 11 146 c 0
 8 141 6 136 5 130 c 0
 4 125 4 119 4 114 c 0
 4 109 5 105 5 100 c 0
 5 96 6 91 5 87 c 0
 5 82 4 77 4 72 c 0
 4 67 5 62 5 57 c 0
 5 52 6 46 8 41 c 0
 10 35 13 31 17 26 c 0
 21 21 26 17 32 14 c 0
 38 11 45 10 51 9 c 0
 59 9 66 12 73 16 c 0
 78 20 83 25 85 31 c 0
 87 36 88 42 88 48 c 0
 88 51 87 54 86 57 c 0
 82 69 64 63 68 51 c 0
 69 50 68 48 68 47 c 0
 68 43 67 40 66 37 c 0
 64 34 62 32 59 30 c 0
 58 29 53 27 60 30 c 0
 61 30 55 28 56 28 c 1
 52 28 47 29 43 31 c 0
 39 33 36 35 33 38 c 0
 30 41 27 45 26 49 c 0
 24 52 24 56 24 60 c 0
 24 64 24 69 24 73 c 0
 24 78 24 82 24 87 c 0
 24 92 24 98 24 103 c 0
 24 108 23 112 23 117 c 0
 23 121 23 124 24 127 c 0
 25 131 27 135 29 138 c 0
 32 142 36 147 39 151 c 0
 42 155 46 159 49 163 c 0
 53 168 54 174 55 180 c 0
 55 185 55 190 55 195 c 0
 55 200 55 205 55 210 c 0
 55 215 55 220 56 225 c 0
 57 232 57 238 57 245 c 0
 57 249 56 252 53 253 c 1
EndSplineSet
EndChar

StartChar: asterisk
Encoding: 86 42 86
Width: 73
VWidth: 309
Flags: HW
LayerCount: 2
Fore
SplineSet
15.0625 193 m 1
 8.0625 193 2.0625 184 8.0625 177 c 0
 12.0625 172 15.0625 168 19.0625 163 c 1
 18.0625 163 16.0625 162 15.0625 162 c 0
 3.0625 163 1.0625 144 13.0625 143 c 0
 14.0625 143 15.0625 143 16.0625 143 c 1
 15.0625 141 13.0625 140 12.0625 139 c 0
 6.0625 128 23.0625 118 29.0625 129 c 0
 32.0625 133 35.0625 137 38.0625 141 c 1
 40.0625 139 41.0625 136 43.0625 134 c 0
 49.0625 123 66.0625 133 60.0625 144 c 0
 60.0625 145 60.0625 145 59.0625 146 c 1
 71.0625 144 73.0625 163 61.0625 165 c 0
 59.0625 165 56.0625 165 54.0625 165 c 1
 57.0625 170 60.0625 175 62.0625 180 c 0
 66.0625 191 48.0625 198 44.0625 187 c 1
 41.0625 183 39.0625 178 36.0625 174 c 1
 32.0625 179 27.0625 185 22.0625 190 c 0
 20.0625 192 17.0625 193 15.0625 193 c 1
EndSplineSet
EndChar

StartChar: quotedbl
Encoding: 87 34 87
Width: 63
VWidth: 309
Flags: HW
LayerCount: 2
Fore
SplineSet
48 281 m 0
 43 281 38 278 38 272 c 1
 36 264 36 256 36 248 c 0
 36 245 36 240 36 237 c 0
 37 224 57 225 56 238 c 0
 56 241 56 246 56 249 c 0
 56 257 57 263 57 271 c 0
 57 277 53 281 48 281 c 0
18 276 m 1
 14 276 10 273 9 268 c 0
 7 261 6 253 6 245 c 0
 6 239 6 233 7 227 c 0
 7 226 8 227 8 226 c 0
 9 214 27 216 26 228 c 0
 26 229 l 0
 26 235 27 239 27 245 c 0
 27 252 28 259 28 266 c 1
 29 273 23 276 18 276 c 1
EndSplineSet
EndChar

StartChar: percent
Encoding: 88 37 88
Width: 100
VWidth: 289
Flags: HW
LayerCount: 2
Fore
SplineSet
31.9365234375 208 m 0
 29.9365234375 208 26.9365234375 208 24.9365234375 207 c 0
 22.9365234375 207 21.9365234375 207 19.9365234375 206 c 0
 17.9365234375 205 15.9365234375 203 13.9365234375 201 c 0
 10.9365234375 198 12.9365234375 200 10.9365234375 196 c 0
 9.9365234375 195 l 0
 7.9365234375 192 5.9365234375 188 4.9365234375 185 c 0
 2.9365234375 176 3.9365234375 169 9.9365234375 162 c 1
 19.9365234375 154 26.9365234375 155 37.9365234375 159 c 1
 43.9365234375 163 48.9365234375 168 51.9365234375 175 c 0
 54.9365234375 182 53.9365234375 190 50.9365234375 197 c 0
 47.9365234375 203 40.9365234375 206 34.9365234375 208 c 0
 33.9365234375 208 32.9365234375 208 31.9365234375 208 c 0
81.9365234375 199 m 2
 78.9365234375 199 75.9365234375 198 73.9365234375 194 c 0
 67.9365234375 187 62.9365234375 178 58.9365234375 170 c 0
 53.9365234375 161 49.9365234375 153 44.9365234375 144 c 0
 39.9365234375 136 36.9365234375 126 31.9365234375 118 c 0
 27.9365234375 111 24.9365234375 105 20.9365234375 98 c 0
 18.9365234375 94 17.9365234375 90 15.9365234375 86 c 0
 10.9365234375 75 28.9365234375 68 33.9365234375 79 c 0
 35.9365234375 82 36.9365234375 86 38.9365234375 89 c 1
 39.9365234375 81 44.9365234375 76 51.9365234375 72 c 0
 57.9365234375 69 64.9365234375 69 71.9365234375 70 c 0
 80.9365234375 71 87.9365234375 76 91.9365234375 84 c 0
 94.9365234375 89 95.9365234375 95 95.9365234375 101 c 0
 95.9365234375 109 92.9365234375 116 86.9365234375 121 c 0
 80.9365234375 125 74.9365234375 125 67.9365234375 125 c 0
 66.9365234375 125 65.9365234375 124 64.9365234375 124 c 0
 58.9365234375 124 54.9365234375 120 54.9365234375 115 c 0
 53.9365234375 114 52.9365234375 114 51.9365234375 113 c 1
 55.9365234375 121 60.9365234375 129 64.9365234375 137 c 0
 69.9365234375 146 73.9365234375 154 78.9365234375 163 c 0
 82.9365234375 171 86.9365234375 177 90.9365234375 185 c 1
 94.9365234375 192 87.9365234375 199 81.9365234375 199 c 2
30.9365234375 190 m 0
 31.9365234375 190 32.9365234375 189 32.9365234375 189 c 0
 33.9365234375 187 33.9365234375 184 32.9365234375 181 c 0
 30.9365234375 178 28.9365234375 176 25.9365234375 175 c 1
 33.9365234375 177 27.9365234375 175 25.9365234375 174 c 1
 22.9365234375 175 23.9365234375 178 24.9365234375 180 c 0
 26.9365234375 184 27.9365234375 187 30.9365234375 190 c 0
28.9365234375 190 m 0
 28.9365234375 190 l 0
75.9365234375 102 m 1
 75.9365234375 101 l 0
 75.9365234375 97 75.9365234375 94 73.9365234375 91 c 0
 72.9365234375 90 71.9365234375 89 70.9365234375 89 c 1
 71.9365234375 89 72.9365234375 90 73.9365234375 90 c 0
 72.9365234375 89 l 0
 69.9365234375 88 65.9365234375 88 62.9365234375 88 c 0
 60.9365234375 88 58.9365234375 89 58.9365234375 91 c 0
 58.9365234375 94 60.9365234375 95 62.9365234375 96 c 0
 63.9365234375 97 65.9365234375 98 66.9365234375 99 c 0
 67.9365234375 99 69.9365234375 99 68.9365234375 100 c 0
 67.9365234375 101 67.9365234375 98 66.9365234375 99 c 0
 65.9365234375 100 71.9365234375 100 70.9365234375 101 c 1
 72.9365234375 101 74.9365234375 101 75.9365234375 102 c 1
70.9365234375 89 m 1
 68.9365234375 89 69.9365234375 89 70.9365234375 89 c 1
EndSplineSet
EndChar

